<svg width="40" height="40" xmlns="http://www.w3.org/2000/svg" xmlns:xlink="http://www.w3.org/1999/xlink" overflow="hidden"><defs><clipPath id="clip0"><path d="M490 117 530 117 530 157 490 157Z" fill-rule="evenodd" clip-rule="evenodd"/></clipPath><clipPath id="clip1"><path d="M491 118 529 118 529 156 491 156Z" fill-rule="evenodd" clip-rule="evenodd"/></clipPath><clipPath id="clip2"><path d="M500 124 519 124 519 152 500 152Z" fill-rule="evenodd" clip-rule="evenodd"/></clipPath><clipPath id="clip3"><path d="M500 124 519 124 519 152 500 152Z" fill-rule="evenodd" clip-rule="evenodd"/></clipPath></defs><g clip-path="url(#clip0)" transform="translate(-490 -117)"><g clip-path="url(#clip1)"><g clip-path="url(#clip2)"><g clip-path="url(#clip3)"><path d="M16.4971 6.59864 15.1229 23.0217C15.0209 24.4442 13.6869 25.5521 12.0756 25.5521L6.0045 25.5521C4.39288 25.5521 3.05887 24.4442 2.95721 23.0214L1.58589 6.59864 16.4971 6.59864Z" fill="#EDEDED" transform="matrix(1 0 -0 1.00001 500.134 124.975)"/><path d="M9.04149 6.4481 9.04149 6.52337 1.43277 6.52337 1.42698 6.4481Z" fill="#EDEDED" transform="matrix(1 0 -0 1.00001 500.134 124.975)"/><path d="M9.04149 7.16673 1.43277 7.16673C1.09597 7.16673 0.816427 6.90714 0.791335 6.5713L0.785545 6.49571C0.772035 6.31717 0.833476 6.14121 0.955393 6.00997 1.07699 5.87872 1.2478 5.80409 1.42698 5.80409L9.04149 5.80409C9.39663 5.80409 9.68485 6.09232 9.68485 6.44745L9.68485 6.52305C9.68485 6.87883 9.39695 7.16673 9.04149 7.16673Z" transform="matrix(1 0 -0 1.00001 500.134 124.975)"/><path d="M16.6557 6.4481 16.6499 6.52337 9.04149 6.52337 9.04149 6.4481Z" fill="#EDEDED" transform="matrix(1 0 -0 1.00001 500.134 124.975)"/><path d="M16.6502 7.16673 9.04149 7.16673C8.68635 7.16673 8.39813 6.87851 8.39813 6.52337L8.39813 6.44778C8.39813 6.09264 8.68635 5.80441 9.04149 5.80441L16.6557 5.80441C16.8349 5.80441 17.0057 5.87904 17.1273 6.01029 17.2492 6.14153 17.3106 6.31749 17.2971 6.49603L17.2913 6.57162C17.2666 6.90714 16.987 7.16673 16.6502 7.16673Z" transform="matrix(1 0 -0 1.00001 500.134 124.975)"/><path d="M14.5197 6.59864 13.5093 23.0217C13.4344 24.4442 12.4539 25.5521 11.2691 25.5521L6.80581 25.5521C5.62106 25.5521 4.64025 24.4442 4.56562 23.0214L3.55747 6.59897 14.5197 6.59897Z" fill="#FCFAFB" transform="matrix(1 0 -0 1.00001 500.134 124.975)"/><path d="M12.7386 26.0571 5.34151 26.0571C3.61409 26.0571 2.17553 24.7067 2.06648 22.9825L0.853742 6.56615C0.841839 6.40499 0.89749 6.2464 1.00751 6.12802 1.1172 6.00997 1.27128 5.94274 1.43277 5.94274L16.6502 5.94274C16.8117 5.94274 16.9658 6.00997 17.0755 6.12835 17.1852 6.2464 17.2411 6.40531 17.2292 6.56615L16.0133 22.9889C15.9046 24.707 14.466 26.0571 12.7386 26.0571ZM2.05779 7.104 3.22485 22.903C3.29562 24.0235 4.22528 24.8959 5.34151 24.8959L12.7386 24.8959C13.8548 24.8959 14.7841 24.0231 14.8549 22.9092L16.0249 7.10368 2.05779 7.10368Z" transform="matrix(1 0 -0 1.00001 500.134 124.975)"/><path d="M17.4367 5.04589 17.4367 6.52337 0.643362 6.52337 0.643362 5.04589C0.643362 4.21853 1.31407 3.54814 2.14433 3.54814L15.939 3.54814C16.766 3.54782 17.4367 4.21853 17.4367 5.04589Z" fill="#EDEDED" transform="matrix(1 0 -0 1.00001 500.134 124.975)"/><path d="M14.2949 5.04364 14.2949 6.52112 3.78522 6.52112 3.78522 5.04364C3.78522 4.21627 4.20502 3.54589 4.72453 3.54589L13.3575 3.54589C13.8751 3.54557 14.2949 4.21627 14.2949 5.04364Z" fill="#FCFAFB" transform="matrix(1 0 -0 1.00001 500.134 124.975)"/><path d="M0 6.52337 0 5.04589C0 3.86532 0.96054 2.90446 2.14143 2.90446L15.9361 2.90446C17.1183 2.90446 18.0804 3.865 18.0804 5.04589L18.0804 6.52337C18.0804 6.87851 17.7922 7.16673 17.437 7.16673L0.643362 7.16673C0.288226 7.16673 0 6.87883 0 6.52337ZM16.7934 5.04589C16.7934 4.57463 16.4086 4.19118 15.9358 4.19118L2.14143 4.19118C1.67017 4.19118 1.28672 4.57463 1.28672 5.04589L1.28672 5.88001 16.7934 5.88001 16.7934 5.04589Z" transform="matrix(1 0 -0 1.00001 500.134 124.975)"/><path d="M13.941 0.643362 4.15355 0.643362C3.66234 0.643362 3.23289 0.975015 3.1084 1.45014L2.55994 3.54557 15.5227 3.54557 14.9874 1.45561C14.8652 0.977589 14.4345 0.643362 13.941 0.643362Z" fill="#EDEDED" transform="matrix(1 0 -0 1.00001 500.134 124.975)"/><path d="M15.523 4.18893 2.55994 4.18893C2.3605 4.18893 2.17263 4.09661 2.05072 3.93866 1.9288 3.78072 1.88698 3.57549 1.93749 3.38248L2.48595 1.28672C2.68443 0.529487 3.37025 0 4.15355 0L13.941 0C14.7285 0 15.4153 0.533026 15.6109 1.29573L16.1461 3.38602C16.1954 3.5787 16.1529 3.78297 16.0313 3.93995 15.9094 4.09725 15.7218 4.18893 15.523 4.18893ZM3.39341 2.90221 14.6941 2.90221 14.3647 1.61516C14.3148 1.42183 14.1408 1.28672 13.941 1.28672L4.15355 1.28672C3.95507 1.28672 3.78104 1.42087 3.73086 1.61291L3.39341 2.90221Z" transform="matrix(1 0 -0 1.00001 500.134 124.975)"/><path d="M15.9708 20.6728 2.11184 20.6728 1.50643 11.2241 16.5765 11.2241Z" fill="#9AC97F" transform="matrix(1 0 -0 1.00001 500.134 124.975)"/><path d="M15.9708 21.3162 2.11184 21.3162C1.77246 21.3162 1.49131 21.0527 1.46976 20.714L0.864357 11.2653C0.853098 11.0877 0.915504 10.9137 1.0371 10.784 1.1587 10.6544 1.32854 10.5807 1.50643 10.5807L16.5769 10.5807C16.7548 10.5807 16.9246 10.6544 17.0462 10.784 17.1678 10.9137 17.2302 11.0877 17.2189 11.2653L16.6132 20.7143C16.5913 21.0527 16.3102 21.3162 15.9708 21.3162ZM2.71531 20.0295 15.3673 20.0295 15.8907 11.8671 2.19193 11.8671 2.71531 20.0295Z" transform="matrix(1 0 -0 1.00001 500.134 124.975)"/><path d="M12.8486 16.8796 5.23407 16.8796C4.78983 16.8796 4.42987 16.5196 4.42987 16.0754 4.42987 15.6311 4.78983 15.2712 5.23407 15.2712L12.8486 15.2712C13.2928 15.2712 13.6528 15.6311 13.6528 16.0754 13.6528 16.5196 13.2928 16.8796 12.8486 16.8796Z" fill="#FFFFFF" transform="matrix(1 0 -0 1.00001 500.134 124.975)"/><path d="M11.4512 16.0754C11.4512 17.4078 10.371 18.488 9.0386 18.488 7.70615 18.488 6.62599 17.4078 6.62599 16.0754 6.62599 14.7429 7.70615 13.6628 9.0386 13.6628 10.371 13.6628 11.4512 14.7429 11.4512 16.0754Z" fill="#FFFFFF" transform="matrix(1 0 -0 1.00001 500.134 124.975)"/></g></g></g></g></svg>