<svg id="svg" version="1.1" xmlns="http://www.w3.org/2000/svg" xmlns:xlink="http://www.w3.org/1999/xlink" width="400" height="400" viewBox="0, 0, 400,400"><g id="svgg"><path id="path0" d="M170.437 13.603 C 169.687 13.780,168.913 14.212,168.717 14.562 C 168.409 15.112,167.272 15.200,160.442 15.200 C 153.032 15.200,152.478 15.251,151.800 16.000 C 151.162 16.705,150.568 16.800,146.788 16.800 C 141.557 16.800,140.098 17.060,139.785 18.048 C 139.571 18.722,139.105 18.800,135.269 18.800 C 131.426 18.800,130.942 18.881,130.493 19.600 C 130.054 20.303,129.560 20.400,126.427 20.400 C 123.207 20.400,122.746 20.497,121.673 21.400 C 120.691 22.226,120.063 22.400,118.056 22.400 C 116.038 22.400,115.556 22.535,115.200 23.200 C 114.836 23.880,114.362 24.000,112.048 24.000 C 109.882 24.000,109.183 24.155,108.638 24.758 C 108.260 25.175,107.132 25.639,106.130 25.790 C 104.808 25.988,104.254 26.273,104.108 26.831 C 103.952 27.427,103.549 27.600,102.316 27.600 C 101.062 27.600,100.681 27.769,100.516 28.400 C 100.354 29.020,99.970 29.200,98.812 29.200 C 97.772 29.200,96.989 29.504,96.238 30.200 C 95.442 30.937,94.717 31.200,93.476 31.200 C 92.226 31.200,91.664 31.406,91.293 32.000 C 90.962 32.530,90.356 32.802,89.497 32.805 C 87.421 32.814,86.400 33.224,86.400 34.047 C 86.400 34.673,86.096 34.800,84.600 34.800 C 83.084 34.800,82.800 34.923,82.800 35.577 C 82.800 36.205,82.474 36.378,81.100 36.477 C 79.687 36.579,79.378 36.752,79.272 37.500 C 79.184 38.120,78.872 38.400,78.268 38.400 C 77.787 38.400,77.168 38.760,76.893 39.200 C 76.576 39.707,75.960 40.000,75.211 40.000 C 74.450 40.000,73.880 40.277,73.613 40.776 C 73.339 41.287,72.577 41.644,71.371 41.825 C 70.238 41.995,69.367 42.384,69.076 42.850 C 68.818 43.262,68.201 43.600,67.704 43.600 C 67.067 43.600,66.800 43.836,66.800 44.400 C 66.800 44.840,66.620 45.223,66.400 45.250 C 66.180 45.278,65.775 45.323,65.500 45.350 C 63.937 45.506,64.874 51.600,66.462 51.600 C 66.881 51.600,67.326 51.862,67.448 52.182 C 68.122 53.938,71.665 54.981,73.542 53.975 C 74.337 53.549,75.194 53.200,75.445 53.200 C 75.696 53.200,76.128 52.928,76.404 52.595 C 76.680 52.263,77.647 51.634,78.553 51.197 C 79.459 50.761,81.010 49.935,82.000 49.363 C 82.990 48.791,84.340 48.130,85.000 47.896 C 85.660 47.661,86.290 47.360,86.400 47.226 C 86.577 47.011,88.308 46.160,93.800 43.584 C 94.680 43.171,95.940 42.708,96.600 42.556 C 97.260 42.403,98.229 41.945,98.754 41.539 C 99.279 41.133,100.091 40.800,100.560 40.800 C 101.028 40.800,102.039 40.464,102.806 40.053 C 103.573 39.643,104.830 39.172,105.600 39.007 C 106.370 38.842,107.450 38.475,108.000 38.190 C 109.457 37.437,113.908 36.011,116.061 35.608 C 117.085 35.417,118.490 34.967,119.183 34.609 C 119.876 34.250,121.378 33.852,122.522 33.723 C 123.665 33.594,125.084 33.244,125.676 32.946 C 126.269 32.648,128.069 32.219,129.676 31.994 C 131.284 31.769,133.140 31.332,133.800 31.024 C 134.460 30.716,136.350 30.337,138.000 30.182 C 139.650 30.027,141.628 29.644,142.397 29.330 C 143.165 29.017,145.235 28.665,146.997 28.549 C 148.758 28.432,151.820 27.996,153.800 27.579 C 155.780 27.163,160.190 26.640,163.600 26.418 C 167.010 26.196,170.970 25.791,172.400 25.517 C 176.816 24.673,222.699 24.804,227.600 25.675 C 229.690 26.047,233.740 26.467,236.600 26.609 C 239.460 26.751,242.790 27.135,244.000 27.463 C 245.210 27.790,248.247 28.221,250.749 28.421 C 253.251 28.620,255.522 28.969,255.796 29.196 C 256.069 29.423,257.802 29.790,259.646 30.010 C 261.491 30.231,263.720 30.675,264.600 30.997 C 265.480 31.318,267.536 31.770,269.169 31.999 C 270.802 32.229,272.365 32.605,272.642 32.835 C 272.919 33.065,274.287 33.414,275.682 33.612 C 277.078 33.809,278.811 34.266,279.534 34.627 C 280.257 34.988,281.602 35.382,282.524 35.503 C 283.446 35.625,284.562 35.959,285.005 36.246 C 285.448 36.533,286.798 36.978,288.005 37.236 C 289.212 37.493,290.555 37.950,290.989 38.252 C 291.423 38.553,292.060 38.800,292.404 38.800 C 292.749 38.800,293.734 39.158,294.593 39.596 C 295.452 40.034,296.795 40.501,297.578 40.634 C 298.360 40.766,299.488 41.218,300.084 41.637 C 300.680 42.057,301.397 42.400,301.678 42.400 C 301.959 42.400,303.091 42.828,304.194 43.351 C 308.671 45.475,318.694 50.508,320.076 51.326 C 320.888 51.807,322.920 53.010,324.593 54.000 C 326.265 54.990,328.185 56.102,328.859 56.470 C 329.534 56.839,330.471 57.492,330.943 57.920 C 331.414 58.349,333.009 59.535,334.487 60.556 C 335.964 61.578,337.674 62.882,338.287 63.456 C 338.899 64.029,340.776 65.550,342.458 66.835 C 346.047 69.578,353.552 76.932,357.118 81.200 C 358.497 82.850,359.979 84.566,360.412 85.014 C 360.845 85.462,361.200 85.970,361.200 86.142 C 361.200 86.315,361.898 87.299,362.752 88.328 C 364.358 90.266,367.436 94.606,368.285 96.129 C 368.552 96.608,368.954 97.270,369.178 97.600 C 370.979 100.253,371.600 101.294,371.600 101.660 C 371.600 101.893,372.050 102.619,372.600 103.273 C 373.150 103.927,373.600 104.780,373.600 105.169 C 373.600 105.558,373.939 106.183,374.354 106.558 C 374.769 106.934,375.217 107.786,375.351 108.453 C 375.484 109.119,375.955 110.125,376.396 110.686 C 376.838 111.248,377.200 112.106,377.200 112.592 C 377.200 113.078,377.560 113.802,378.000 114.200 C 378.440 114.598,378.800 115.304,378.800 115.768 C 378.800 116.232,379.136 117.239,379.547 118.006 C 379.957 118.773,380.427 120.030,380.590 120.800 C 380.753 121.570,381.227 122.761,381.643 123.447 C 382.059 124.133,382.400 125.088,382.400 125.569 C 382.400 126.050,382.743 127.199,383.162 128.122 C 383.582 129.045,384.055 130.700,384.214 131.800 C 384.374 132.900,384.732 134.250,385.011 134.800 C 385.289 135.351,385.644 136.881,385.799 138.200 C 385.954 139.520,386.422 141.939,386.840 143.575 C 387.435 145.904,387.594 147.904,387.573 152.775 L 387.547 159.000 386.253 160.781 C 385.541 161.761,384.068 163.201,382.980 163.981 L 381.000 165.400 199.200 165.400 L 17.400 165.400 16.000 164.392 C 14.278 163.151,12.400 161.402,12.400 161.038 C 12.400 160.889,11.995 160.219,11.500 159.548 C 10.273 157.885,10.309 150.343,11.568 145.039 C 12.026 143.113,12.400 140.927,12.400 140.182 C 12.400 139.437,12.683 137.994,13.029 136.975 C 13.375 135.956,13.905 134.015,14.206 132.661 C 14.508 131.308,15.027 129.480,15.360 128.600 C 15.693 127.720,15.973 126.678,15.982 126.284 C 15.992 125.890,16.336 124.900,16.746 124.084 C 17.156 123.268,17.611 121.943,17.757 121.140 C 17.902 120.337,18.268 119.476,18.569 119.226 C 18.870 118.976,19.240 118.103,19.392 117.286 C 19.543 116.469,19.992 115.260,20.388 114.600 C 20.784 113.940,21.244 112.950,21.409 112.400 C 21.575 111.850,22.045 110.971,22.455 110.446 C 22.865 109.921,23.200 109.094,23.200 108.608 C 23.200 108.122,23.544 107.413,23.964 107.033 C 24.384 106.652,24.842 105.886,24.982 105.330 C 25.121 104.775,25.550 103.843,25.934 103.260 C 27.153 101.409,27.601 100.633,28.202 99.327 C 28.524 98.627,28.956 97.951,29.162 97.824 C 29.367 97.697,30.189 96.424,30.987 94.996 C 31.786 93.568,32.615 92.400,32.829 92.400 C 33.044 92.400,33.384 91.969,33.584 91.443 C 34.315 89.520,42.647 79.646,48.482 73.788 C 55.821 66.419,56.692 64.598,53.987 62.282 C 53.554 61.911,53.200 61.156,53.200 60.604 C 53.200 59.895,52.983 59.600,52.462 59.600 C 52.056 59.600,51.390 59.231,50.983 58.781 C 50.146 57.857,47.587 57.839,47.282 58.755 C 47.142 59.174,47.284 59.183,48.000 58.800 C 48.736 58.406,49.008 58.440,49.547 58.993 C 50.154 59.617,50.116 59.658,49.000 59.589 C 46.004 59.404,45.200 59.576,45.200 60.400 C 45.200 60.933,44.933 61.200,44.400 61.200 C 43.813 61.200,43.600 61.467,43.600 62.200 C 43.600 62.922,43.385 63.200,42.827 63.200 C 42.402 63.200,41.940 63.560,41.800 64.000 C 41.660 64.440,41.198 64.800,40.773 64.800 C 40.215 64.800,40.000 65.078,40.000 65.800 C 40.000 66.533,39.787 66.800,39.200 66.800 C 38.676 66.800,38.400 67.067,38.400 67.572 C 38.400 68.068,38.078 68.390,37.500 68.472 C 36.922 68.554,36.554 68.922,36.472 69.500 C 36.390 70.078,36.068 70.400,35.572 70.400 C 35.067 70.400,34.800 70.676,34.800 71.200 C 34.800 71.649,34.533 72.000,34.191 72.000 C 33.857 72.000,33.378 72.450,33.127 73.000 C 32.877 73.550,32.443 74.000,32.163 74.000 C 31.883 74.000,31.538 74.366,31.396 74.813 C 31.254 75.260,30.702 76.096,30.169 76.671 C 29.636 77.246,29.200 78.051,29.200 78.458 C 29.200 78.933,28.912 79.200,28.400 79.200 C 27.883 79.200,27.600 79.467,27.600 79.953 C 27.600 80.370,27.243 80.800,26.800 80.916 C 26.321 81.041,26.000 81.462,26.000 81.963 C 26.000 82.431,25.742 82.800,25.414 82.800 C 24.677 82.800,24.000 84.032,24.000 85.374 C 24.000 86.133,23.792 86.400,23.200 86.400 C 22.676 86.400,22.400 86.667,22.400 87.172 C 22.400 87.668,22.078 87.990,21.500 88.072 C 20.808 88.170,20.571 88.503,20.474 89.513 C 20.400 90.275,20.023 91.029,19.574 91.309 C 19.148 91.575,18.800 92.115,18.800 92.509 C 18.800 92.903,18.485 93.341,18.100 93.483 C 17.144 93.836,16.813 94.403,16.806 95.700 C 16.801 96.531,16.605 96.800,16.000 96.800 C 15.353 96.800,15.200 97.067,15.200 98.191 C 15.200 99.233,14.949 99.746,14.200 100.237 C 13.650 100.597,13.200 101.237,13.200 101.659 C 13.200 102.080,12.935 102.527,12.611 102.651 C 12.287 102.776,11.899 103.535,11.750 104.339 C 11.601 105.142,11.160 106.025,10.771 106.300 C 10.382 106.576,9.936 107.386,9.780 108.100 C 9.623 108.815,9.159 109.829,8.748 110.354 C 8.277 110.954,8.000 111.955,8.000 113.054 C 8.000 114.533,7.878 114.800,7.200 114.800 C 6.422 114.800,6.096 116.489,6.332 119.300 C 6.398 120.090,5.795 120.239,5.362 119.538 C 5.173 119.233,5.254 119.186,5.600 119.400 C 5.949 119.616,6.027 119.567,5.834 119.255 C 5.675 118.998,5.374 118.892,5.166 119.021 C 4.957 119.150,4.881 119.407,4.996 119.593 C 5.111 119.779,5.034 119.992,4.825 120.066 C 4.616 120.140,4.404 121.234,4.354 122.498 C 4.304 123.762,4.176 124.709,4.068 124.602 C 3.360 123.893,2.800 125.580,2.800 128.426 C 2.800 131.217,2.703 131.623,1.900 132.184 C 1.079 132.759,0.988 133.190,0.861 137.107 C 0.775 139.762,0.546 141.514,0.261 141.700 C -0.071 141.916,-0.032 142.120,0.400 142.430 C 0.852 142.755,0.876 142.911,0.500 143.064 C -0.137 143.322,-0.236 162.800,0.400 162.800 C 0.620 162.800,0.800 163.501,0.800 164.358 C 0.800 165.497,1.067 166.169,1.793 166.858 C 2.339 167.376,2.789 168.205,2.793 168.700 C 2.798 169.331,3.039 169.600,3.600 169.600 C 4.187 169.600,4.400 169.867,4.400 170.600 C 4.400 171.400,4.600 171.600,5.400 171.600 C 6.133 171.600,6.400 171.813,6.400 172.400 C 6.400 172.924,6.667 173.200,7.172 173.200 C 7.668 173.200,7.990 173.522,8.072 174.100 C 8.181 174.870,8.478 175.018,10.120 175.123 C 11.814 175.231,12.011 175.337,11.793 176.023 C 11.565 176.742,11.755 176.800,14.326 176.800 C 16.770 176.800,17.132 176.897,17.316 177.600 C 17.431 178.040,17.812 178.400,18.163 178.400 C 18.712 178.400,18.800 179.091,18.800 183.397 C 18.800 187.960,18.869 188.437,19.600 188.893 C 20.040 189.168,20.400 189.756,20.400 190.200 C 20.400 190.644,20.040 191.232,19.600 191.507 C 19.160 191.782,18.800 192.275,18.800 192.603 C 18.800 192.933,18.442 193.200,18.000 193.200 C 17.467 193.200,17.200 193.467,17.200 194.000 C 17.200 194.587,16.933 194.800,16.200 194.800 C 15.467 194.800,15.200 195.013,15.200 195.600 C 15.200 196.117,14.933 196.400,14.446 196.400 C 14.031 196.400,13.397 196.850,13.037 197.400 C 12.676 197.950,12.104 198.400,11.764 198.400 C 11.318 198.400,11.220 198.634,11.413 199.239 C 11.637 199.946,11.551 200.038,10.872 199.823 C 9.960 199.533,9.474 200.516,9.498 202.598 C 9.505 203.259,9.427 203.575,9.322 203.300 C 9.218 203.025,8.958 202.800,8.743 202.800 C 8.528 202.800,8.464 202.980,8.600 203.200 C 8.736 203.420,8.672 203.600,8.457 203.600 C 8.221 203.600,8.048 206.353,8.019 210.600 C 7.974 217.077,8.188 218.513,9.004 217.193 C 9.412 216.533,10.000 217.167,10.000 218.266 C 10.000 218.971,9.829 219.220,9.446 219.073 C 8.985 218.896,8.990 219.057,9.475 220.030 C 9.817 220.717,10.377 221.200,10.829 221.200 C 11.487 221.200,11.600 221.492,11.600 223.195 C 11.600 225.014,11.522 225.182,10.718 225.095 C 9.918 225.009,9.847 225.157,9.949 226.700 C 10.062 228.406,8.825 229.287,8.265 227.900 C 8.036 227.332,7.891 229.735,7.997 232.355 C 8.061 233.962,7.995 234.092,7.218 233.889 C 6.377 233.669,6.369 233.730,6.422 239.926 C 6.466 245.084,6.564 246.064,6.982 245.493 C 7.792 244.385,7.995 244.664,8.009 246.900 C 8.038 251.428,8.081 251.634,8.973 251.513 C 9.619 251.425,9.779 251.597,9.705 252.300 C 9.629 253.018,9.811 253.200,10.605 253.200 C 11.675 253.200,12.060 254.548,11.100 254.935 C 10.700 255.096,10.700 255.143,11.100 255.168 C 11.375 255.186,11.600 255.560,11.600 256.000 C 11.600 256.545,11.867 256.800,12.437 256.800 C 12.939 256.800,13.359 257.122,13.485 257.603 C 13.633 258.169,14.153 258.479,15.247 258.654 C 16.410 258.840,16.800 259.091,16.800 259.651 C 16.800 260.183,17.089 260.400,17.800 260.400 L 18.800 260.400 18.800 268.600 L 18.800 276.800 17.414 276.800 C 16.438 276.800,15.902 277.036,15.600 277.600 C 15.240 278.273,14.762 278.400,12.586 278.400 C 10.267 278.400,10.000 278.482,10.000 279.200 C 10.000 279.792,9.733 280.000,8.974 280.000 C 7.501 280.000,6.400 280.700,6.400 281.638 C 6.400 282.083,6.236 282.346,6.036 282.222 C 5.424 281.844,4.341 282.468,4.570 283.067 C 4.691 283.381,4.480 283.743,4.093 283.886 C 3.144 284.236,2.813 284.805,2.806 286.100 C 2.802 286.910,2.601 287.200,2.043 287.200 C 1.181 287.200,0.800 287.945,0.800 289.633 C 0.800 290.275,0.620 290.800,0.400 290.800 C 0.143 290.800,0.000 294.867,0.000 302.200 C 0.000 309.533,0.143 313.600,0.400 313.600 C 0.979 313.600,0.893 315.096,0.300 315.335 C -0.100 315.496,-0.100 315.543,0.300 315.568 C 0.604 315.588,0.802 316.187,0.805 317.100 C 0.813 319.284,1.186 320.342,2.043 320.614 C 2.651 320.807,2.800 321.243,2.800 322.831 C 2.800 324.313,3.000 324.979,3.600 325.493 C 4.163 325.975,4.400 326.673,4.400 327.847 C 4.400 329.105,4.645 329.748,5.393 330.458 C 6.161 331.187,6.388 331.808,6.393 333.204 C 6.398 334.570,6.594 335.129,7.200 335.507 C 7.830 335.900,8.000 336.440,8.000 338.041 C 8.000 339.703,8.139 340.111,8.760 340.274 C 9.303 340.416,9.595 340.975,9.785 342.236 C 9.993 343.624,10.214 344.000,10.825 344.000 C 11.466 344.000,11.600 344.284,11.600 345.637 C 11.600 346.938,11.764 347.318,12.400 347.484 C 12.843 347.600,13.200 348.030,13.200 348.447 C 13.200 348.861,13.393 349.200,13.629 349.200 C 14.402 349.200,15.200 350.322,15.200 351.409 C 15.200 352.138,15.452 352.541,16.000 352.684 C 16.440 352.799,16.800 353.146,16.800 353.455 C 16.800 353.764,17.250 354.222,17.800 354.473 C 18.350 354.723,18.800 355.260,18.800 355.664 C 18.800 356.133,19.090 356.400,19.600 356.400 C 20.131 356.400,20.400 356.667,20.400 357.192 C 20.400 357.704,20.754 358.074,21.400 358.236 C 22.026 358.393,22.400 358.770,22.400 359.243 C 22.400 359.733,22.682 360.000,23.200 360.000 C 23.733 360.000,24.000 360.267,24.000 360.800 C 24.000 361.324,24.267 361.600,24.772 361.600 C 25.268 361.600,25.590 361.922,25.672 362.500 C 25.754 363.078,26.122 363.446,26.700 363.528 C 27.278 363.610,27.600 363.932,27.600 364.428 C 27.600 364.924,27.876 365.200,28.372 365.200 C 28.868 365.200,29.190 365.522,29.272 366.100 C 29.354 366.678,29.722 367.046,30.300 367.128 C 30.878 367.210,31.200 367.532,31.200 368.028 C 31.200 368.590,31.479 368.800,32.227 368.800 C 33.057 368.800,33.207 368.947,33.011 369.566 C 32.708 370.520,33.260 370.880,35.027 370.880 C 35.990 370.880,36.400 371.062,36.400 371.489 C 36.400 371.968,36.279 371.998,35.836 371.630 C 35.516 371.365,35.174 371.319,35.046 371.525 C 34.675 372.125,35.247 372.400,36.867 372.400 C 38.236 372.400,38.400 372.507,38.400 373.400 C 38.400 374.319,38.547 374.400,40.200 374.400 C 41.533 374.400,42.000 374.556,42.000 375.000 C 42.000 375.730,41.164 375.782,40.399 375.100 C 39.922 374.675,39.918 374.704,40.368 375.300 C 40.683 375.715,41.429 376.000,42.202 376.000 C 43.170 376.000,43.561 376.206,43.716 376.800 C 43.895 377.487,44.262 377.600,46.298 377.600 C 48.442 377.600,48.716 377.697,49.127 378.600 C 49.491 379.398,49.875 379.600,51.028 379.600 C 51.868 379.600,52.900 379.935,53.491 380.400 C 54.050 380.840,54.844 381.200,55.254 381.200 C 55.664 381.200,56.000 381.464,56.000 381.786 C 56.000 382.676,57.325 383.200,59.574 383.200 C 61.039 383.200,61.600 383.354,61.600 383.757 C 61.600 384.517,62.494 384.800,64.889 384.800 C 66.257 384.800,67.059 385.001,67.367 385.422 C 68.333 386.744,71.886 386.781,199.274 386.790 C 327.913 386.800,329.600 386.782,329.600 385.410 C 329.600 384.914,330.199 384.800,332.797 384.800 C 335.560 384.800,336.061 384.692,336.493 384.000 C 336.899 383.350,337.426 383.200,339.306 383.200 C 341.406 383.200,341.655 383.108,342.000 382.200 C 342.348 381.284,342.585 381.200,344.828 381.200 C 346.917 381.200,347.305 381.086,347.479 380.421 C 347.632 379.835,348.093 379.612,349.341 379.521 C 350.712 379.421,351.022 379.244,351.128 378.500 C 351.210 377.922,351.532 377.600,352.028 377.600 C 352.453 377.600,353.160 377.240,353.600 376.800 C 354.040 376.360,354.850 376.000,355.400 376.000 C 356.123 376.000,356.400 375.785,356.400 375.223 C 356.400 374.595,356.726 374.422,358.100 374.323 C 359.513 374.221,359.822 374.048,359.928 373.300 C 360.019 372.660,360.326 372.400,360.990 372.400 C 361.728 372.400,361.881 372.231,361.716 371.600 C 361.553 370.976,361.704 370.800,362.402 370.800 C 363.159 370.800,363.220 370.894,362.792 371.410 C 362.514 371.745,362.390 372.123,362.516 372.250 C 362.873 372.606,363.600 372.020,363.600 371.376 C 363.600 371.059,363.960 370.800,364.400 370.800 C 364.987 370.800,365.200 370.533,365.200 369.800 C 365.200 369.000,365.400 368.800,366.200 368.800 C 366.933 368.800,367.200 368.587,367.200 368.000 C 367.200 367.467,367.467 367.200,368.000 367.200 C 368.587 367.200,368.800 366.933,368.800 366.200 C 368.800 365.409,369.002 365.200,369.767 365.200 C 371.154 365.200,372.000 364.801,372.000 364.147 C 372.000 363.835,372.450 363.409,373.000 363.200 C 373.550 362.991,374.000 362.557,374.000 362.237 C 374.000 361.916,374.347 361.544,374.772 361.409 C 375.202 361.273,375.658 360.647,375.800 360.000 C 375.942 359.353,376.398 358.727,376.828 358.591 C 377.312 358.438,377.600 357.983,377.600 357.373 C 377.600 356.602,377.807 356.400,378.600 356.400 C 379.313 356.400,379.600 356.184,379.600 355.647 C 379.600 355.230,379.957 354.800,380.400 354.684 C 380.860 354.564,381.200 354.138,381.200 353.684 C 381.200 353.233,381.539 352.805,381.989 352.687 C 382.549 352.541,382.854 352.005,383.040 350.840 C 383.239 349.597,383.484 349.200,384.051 349.200 C 384.525 349.200,384.800 348.916,384.800 348.427 C 384.800 348.002,385.145 347.544,385.568 347.410 C 386.082 347.247,386.424 346.644,386.603 345.583 C 386.805 344.384,387.056 344.000,387.635 344.000 C 388.188 344.000,388.400 343.718,388.400 342.981 C 388.400 342.408,388.838 341.556,389.400 341.035 C 389.950 340.525,390.400 339.743,390.400 339.297 C 390.400 338.851,390.660 338.386,390.978 338.264 C 391.296 338.142,391.682 337.358,391.836 336.521 C 391.990 335.684,392.450 334.571,392.858 334.046 C 393.317 333.455,393.600 332.438,393.600 331.374 C 393.600 329.897,393.726 329.638,394.500 329.528 C 395.306 329.413,395.412 329.144,395.518 326.942 C 395.616 324.895,395.767 324.450,396.418 324.279 C 397.134 324.092,397.200 323.705,397.200 319.675 C 397.200 315.562,397.249 315.288,397.954 315.472 C 398.487 315.612,398.644 315.910,398.491 316.497 C 398.349 317.040,398.426 317.231,398.716 317.052 C 399.024 316.862,399.168 312.817,399.189 303.789 L 399.219 290.800 398.210 290.800 C 397.467 290.800,397.200 290.589,397.200 290.000 C 397.200 289.017,397.504 288.994,398.527 289.900 C 399.149 290.451,399.278 290.473,399.133 290.000 C 399.031 289.670,398.555 289.222,398.074 289.005 C 397.488 288.740,397.200 288.254,397.200 287.528 C 397.200 286.922,396.869 286.213,396.448 285.918 C 396.034 285.629,395.627 285.033,395.544 284.596 C 395.456 284.138,395.011 283.746,394.496 283.672 C 393.922 283.590,393.600 283.267,393.600 282.772 C 393.600 282.301,393.325 282.000,392.895 282.000 C 392.507 282.000,392.012 281.595,391.795 281.100 C 391.505 280.438,391.003 280.167,389.900 280.076 C 388.725 279.979,388.400 279.784,388.400 279.176 C 388.400 278.478,388.103 278.400,385.429 278.400 C 382.736 278.400,382.384 278.306,381.671 277.400 C 381.239 276.850,380.596 276.400,380.242 276.400 C 379.674 276.400,379.600 275.479,379.600 268.400 C 379.600 260.667,379.627 260.400,380.400 260.400 C 380.924 260.400,381.200 260.133,381.200 259.628 C 381.200 259.132,381.522 258.810,382.100 258.728 C 382.678 258.646,383.046 258.278,383.128 257.700 C 383.210 257.122,383.532 256.800,384.028 256.800 C 384.524 256.800,384.800 256.524,384.800 256.028 C 384.800 255.532,385.122 255.210,385.700 255.128 C 386.278 255.046,386.646 254.678,386.728 254.100 C 386.810 253.522,387.132 253.200,387.628 253.200 C 388.163 253.200,388.400 252.922,388.400 252.296 C 388.400 251.799,388.850 250.907,389.400 250.313 C 389.950 249.720,390.400 248.940,390.400 248.581 C 390.400 248.221,390.760 247.469,391.200 246.909 C 392.423 245.354,392.423 234.436,391.200 234.116 C 390.606 233.961,390.400 233.570,390.400 232.603 C 390.400 230.282,389.915 228.703,389.139 228.500 C 388.583 228.355,388.400 227.929,388.400 226.780 C 388.400 225.605,388.216 225.195,387.600 225.000 C 386.415 224.624,386.415 221.200,387.600 221.200 C 388.281 221.200,388.400 220.933,388.400 219.400 C 388.400 217.886,388.523 217.600,389.175 217.600 C 390.839 217.600,390.961 203.908,389.300 203.672 C 388.521 203.562,388.400 203.305,388.400 201.772 C 388.400 200.267,388.280 200.000,387.600 200.000 C 387.067 200.000,386.800 199.733,386.800 199.200 C 386.800 198.756,386.533 198.400,386.200 198.400 C 385.870 198.400,385.600 198.258,385.600 198.083 C 385.600 197.715,382.912 194.800,382.572 194.800 C 382.179 194.800,381.200 193.679,381.200 193.229 C 381.200 192.993,380.795 192.794,380.300 192.787 C 378.363 192.758,377.600 191.528,377.600 188.436 C 377.600 185.678,377.627 185.600,378.600 185.600 C 379.588 185.600,379.600 185.559,379.600 182.218 C 379.600 177.689,380.358 176.800,384.218 176.800 C 386.508 176.800,386.800 176.712,386.800 176.023 C 386.800 175.395,387.126 175.222,388.500 175.123 C 389.913 175.021,390.222 174.848,390.328 174.100 C 390.410 173.522,390.732 173.200,391.228 173.200 C 391.733 173.200,392.000 172.924,392.000 172.400 C 392.000 171.867,392.267 171.600,392.800 171.600 C 393.387 171.600,393.600 171.333,393.600 170.600 C 393.600 169.800,393.800 169.600,394.600 169.600 C 395.333 169.600,395.600 169.387,395.600 168.800 C 395.600 168.267,395.867 168.000,396.400 168.000 C 397.091 168.000,397.200 167.733,397.200 166.035 C 397.200 164.177,397.254 164.076,398.200 164.180 L 399.200 164.290 399.200 152.131 C 399.200 140.234,399.183 139.981,398.426 140.386 C 397.270 141.005,397.200 140.937,397.200 139.186 C 397.200 137.696,397.261 137.605,398.000 138.000 C 398.550 138.294,398.800 138.297,398.800 138.010 C 398.800 137.780,398.440 137.284,398.000 136.907 C 397.355 136.355,397.198 135.718,397.188 133.611 C 397.179 131.642,397.075 131.172,396.768 131.700 C 396.087 132.868,395.535 132.487,395.608 130.900 C 395.815 126.419,395.660 125.600,394.600 125.600 C 393.611 125.600,393.600 125.562,393.600 122.163 C 393.600 119.062,393.522 118.705,392.800 118.516 C 392.140 118.343,392.000 117.970,392.000 116.386 C 392.000 114.090,391.709 113.200,390.957 113.200 C 390.627 113.200,390.381 112.751,390.354 112.100 C 390.328 111.495,390.266 110.820,390.215 110.600 C 390.164 110.380,390.094 109.963,390.061 109.673 C 390.022 109.335,389.713 109.237,389.200 109.400 C 388.473 109.631,388.400 109.472,388.400 107.651 C 388.400 106.549,388.192 105.519,387.938 105.362 C 387.652 105.185,387.585 105.252,387.762 105.538 C 387.933 105.815,387.787 106.000,387.398 106.000 C 387.020 106.000,386.779 105.708,386.821 105.300 C 387.046 103.086,386.805 102.400,385.800 102.400 C 384.881 102.400,384.800 102.253,384.800 100.600 C 384.800 99.358,384.562 98.562,384.032 98.032 C 383.610 97.610,383.205 96.845,383.132 96.332 C 383.046 95.722,382.689 95.356,382.100 95.272 C 381.337 95.164,381.200 94.899,381.200 93.535 C 381.200 92.262,381.033 91.881,380.400 91.716 C 379.960 91.601,379.600 91.187,379.600 90.797 C 379.600 90.373,379.197 89.986,378.600 89.836 C 377.767 89.627,377.600 89.346,377.600 88.155 C 377.600 87.062,377.412 86.676,376.800 86.516 C 376.340 86.396,376.000 85.970,376.000 85.516 C 376.000 85.062,375.660 84.636,375.200 84.516 C 374.757 84.400,374.400 83.970,374.400 83.553 C 374.400 83.139,374.207 82.800,373.971 82.800 C 373.361 82.800,372.553 81.911,372.226 80.881 C 372.072 80.396,371.598 79.813,371.173 79.586 C 370.748 79.358,370.400 78.818,370.400 78.386 C 370.400 77.867,370.129 77.600,369.600 77.600 C 369.055 77.600,368.800 77.333,368.800 76.763 C 368.800 76.262,368.479 75.841,368.000 75.716 C 367.557 75.600,367.200 75.170,367.200 74.753 C 367.200 74.216,366.913 74.000,366.200 74.000 C 365.400 74.000,365.200 73.800,365.200 73.000 C 365.200 72.267,364.987 72.000,364.400 72.000 C 363.867 72.000,363.600 71.733,363.600 71.200 C 363.600 70.613,363.333 70.400,362.600 70.400 C 361.800 70.400,361.600 70.200,361.600 69.400 C 361.600 68.667,361.387 68.400,360.800 68.400 C 360.267 68.400,360.000 68.133,360.000 67.600 C 360.000 67.076,359.733 66.800,359.228 66.800 C 358.732 66.800,358.410 66.478,358.328 65.900 C 358.246 65.322,357.878 64.954,357.300 64.872 C 356.722 64.790,356.400 64.468,356.400 63.972 C 356.400 63.476,356.124 63.200,355.628 63.200 C 355.132 63.200,354.810 62.878,354.728 62.300 C 354.646 61.722,354.278 61.354,353.700 61.272 C 353.122 61.190,352.800 60.868,352.800 60.372 C 352.800 59.867,352.524 59.600,352.000 59.600 C 351.467 59.600,351.200 59.333,351.200 58.800 C 351.200 58.213,350.933 58.000,350.200 58.000 C 349.588 58.000,349.200 57.772,349.200 57.414 C 349.200 57.092,348.852 56.642,348.427 56.414 C 348.002 56.187,347.540 55.641,347.400 55.200 C 347.204 54.582,346.795 54.400,345.601 54.400 C 344.303 54.400,344.035 54.256,343.928 53.500 C 343.848 52.937,343.479 52.554,342.941 52.478 C 342.468 52.410,341.990 52.005,341.878 51.578 C 341.725 50.993,341.325 50.800,340.265 50.800 C 339.110 50.800,338.833 50.638,338.728 49.904 C 338.654 49.389,338.262 48.944,337.804 48.856 C 337.367 48.773,336.771 48.366,336.482 47.952 C 336.139 47.464,335.472 47.200,334.577 47.200 C 333.493 47.200,333.200 47.039,333.200 46.443 C 333.200 45.651,332.464 45.200,331.171 45.200 C 330.751 45.200,330.182 44.840,329.907 44.400 C 329.632 43.960,329.022 43.600,328.550 43.600 C 328.053 43.600,327.612 43.290,327.500 42.861 C 327.383 42.412,326.789 42.018,325.989 41.858 C 325.264 41.713,324.420 41.236,324.113 40.797 C 323.746 40.273,323.100 40.000,322.224 40.000 C 321.230 40.000,320.840 39.798,320.684 39.200 C 320.519 38.567,320.138 38.400,318.865 38.400 C 317.501 38.400,317.236 38.263,317.128 37.500 C 317.030 36.808,316.697 36.571,315.687 36.474 C 314.925 36.400,314.171 36.023,313.891 35.574 C 313.625 35.148,313.113 34.800,312.753 34.800 C 312.392 34.800,311.843 34.417,311.533 33.949 C 311.118 33.324,310.425 33.047,308.918 32.902 C 307.347 32.751,306.822 32.529,306.672 31.952 C 306.536 31.433,306.114 31.200,305.310 31.200 C 304.565 31.200,303.830 30.839,303.275 30.200 C 302.618 29.444,302.014 29.200,300.803 29.200 C 299.699 29.200,299.200 29.026,299.200 28.643 C 299.200 27.891,298.310 27.600,296.014 27.600 C 294.468 27.600,294.055 27.453,293.896 26.845 C 293.740 26.250,293.169 26.029,291.205 25.801 C 289.594 25.614,288.443 25.243,287.956 24.756 C 287.361 24.161,286.613 24.000,284.447 24.000 C 282.030 24.000,281.668 23.902,281.484 23.200 C 281.295 22.478,280.938 22.400,277.837 22.400 C 274.738 22.400,274.400 22.326,274.400 21.647 C 274.400 20.712,273.363 20.413,270.100 20.405 C 268.138 20.401,267.428 20.228,266.800 19.600 C 266.142 18.942,265.467 18.800,263.000 18.800 C 260.578 18.800,260.000 18.682,260.000 18.190 C 260.000 17.306,258.316 16.800,255.374 16.800 C 253.958 16.800,252.800 16.649,252.800 16.464 C 252.800 15.487,250.377 15.200,242.125 15.200 C 234.774 15.200,233.420 15.107,233.033 14.578 C 232.783 14.236,231.863 13.790,230.989 13.588 C 229.041 13.136,172.357 13.151,170.437 13.603 M250.400 16.200 C 250.821 16.707,250.736 16.800,249.849 16.800 C 248.835 16.800,248.515 16.418,249.067 15.867 C 249.481 15.453,249.858 15.547,250.400 16.200 M391.508 114.325 C 391.595 114.586,391.382 114.800,391.033 114.800 C 390.685 114.800,390.400 114.515,390.400 114.167 C 390.400 113.460,391.261 113.583,391.508 114.325 M392.800 119.400 C 393.208 119.891,393.180 120.000,392.649 120.000 C 392.292 120.000,392.000 119.730,392.000 119.400 C 392.000 119.070,392.068 118.800,392.151 118.800 C 392.234 118.800,392.526 119.070,392.800 119.400 M394.683 124.388 C 395.429 125.260,395.829 125.173,395.462 124.217 C 395.332 123.878,394.951 123.600,394.616 123.600 C 394.094 123.600,394.103 123.712,394.683 124.388 M367.254 177.094 C 368.751 178.591,367.467 186.392,365.337 188.737 C 364.932 189.184,364.240 190.008,363.800 190.568 C 362.543 192.168,359.635 193.827,356.800 194.560 C 352.895 195.570,43.771 195.346,40.583 194.330 C 38.340 193.616,36.030 192.178,34.823 190.744 C 32.738 188.267,32.101 187.323,31.892 186.400 C 31.767 185.850,31.388 184.680,31.050 183.800 C 30.068 181.245,30.208 178.556,31.383 177.380 L 32.366 176.397 199.563 176.499 C 331.603 176.579,366.864 176.704,367.254 177.094 M18.800 177.133 C 18.800 177.654,18.324 178.001,17.938 177.761 C 17.524 177.506,17.881 176.800,18.424 176.800 C 18.631 176.800,18.800 176.950,18.800 177.133 M33.695 203.502 C 34.280 204.051,35.155 204.400,35.948 204.400 C 36.661 204.400,38.036 204.761,39.004 205.202 C 41.169 206.188,358.472 206.303,359.658 205.318 C 359.978 205.052,361.041 204.714,362.020 204.566 C 362.999 204.417,364.220 203.914,364.732 203.448 C 366.372 201.956,372.567 202.202,374.861 203.849 C 377.985 206.094,380.004 211.703,378.220 213.183 C 377.902 213.448,377.441 214.270,377.196 215.011 C 376.883 215.960,376.196 216.690,374.876 217.479 L 373.000 218.600 360.200 218.800 C 349.338 218.970,347.205 219.100,346.114 219.663 C 345.406 220.027,344.102 220.448,343.216 220.597 C 342.329 220.747,341.505 221.030,341.384 221.225 C 341.264 221.421,340.180 222.234,338.976 223.033 C 337.772 223.833,335.845 225.461,334.694 226.652 C 319.609 242.254,308.700 252.798,307.637 252.803 C 307.286 252.804,306.460 253.163,305.800 253.600 C 304.089 254.733,297.200 254.763,295.367 253.645 C 294.688 253.231,293.563 252.768,292.867 252.615 C 292.170 252.462,291.600 252.201,291.600 252.036 C 291.600 251.870,290.681 251.139,289.559 250.412 C 287.662 249.183,286.555 248.240,281.866 243.861 C 280.888 242.947,279.520 241.750,278.826 241.200 C 278.131 240.650,277.095 239.795,276.523 239.300 C 275.951 238.805,275.374 238.397,275.242 238.392 C 275.109 238.388,273.650 237.108,272.000 235.547 C 270.350 233.986,266.930 231.034,264.400 228.987 C 261.870 226.940,259.180 224.620,258.422 223.833 C 257.663 223.045,256.833 222.400,256.575 222.400 C 256.318 222.400,255.679 222.063,255.154 221.652 C 254.629 221.241,253.591 220.771,252.846 220.609 C 252.102 220.446,250.752 219.976,249.846 219.565 C 248.251 218.841,244.737 218.817,136.835 218.809 L 25.470 218.800 23.557 217.572 C 22.249 216.733,21.504 215.921,21.201 215.004 C 20.958 214.267,20.498 213.448,20.180 213.183 C 19.490 212.610,19.380 208.983,20.041 208.575 C 20.283 208.425,20.729 207.710,21.032 206.985 C 21.611 205.598,24.443 203.036,25.800 202.670 C 27.948 202.091,32.730 202.595,33.695 203.502 M137.000 230.367 C 199.007 230.505,248.240 230.769,248.800 230.966 C 249.691 231.280,253.141 233.917,254.833 235.579 C 255.181 235.920,256.074 236.650,256.818 237.200 C 258.016 238.085,261.666 241.301,263.559 243.140 C 263.934 243.503,266.345 245.510,268.918 247.600 C 271.490 249.690,273.596 251.679,273.598 252.020 C 273.599 252.361,273.825 252.876,274.100 253.163 C 275.331 254.453,265.309 252.752,262.800 251.246 C 262.470 251.048,261.750 250.678,261.200 250.423 C 260.650 250.169,259.480 249.526,258.600 248.995 C 250.734 244.244,244.594 242.424,236.400 242.413 C 230.707 242.406,222.733 244.200,219.600 246.193 C 219.270 246.403,217.865 247.147,216.478 247.845 C 215.091 248.544,213.651 249.384,213.278 249.711 C 212.905 250.038,212.150 250.438,211.600 250.600 C 211.050 250.762,210.305 251.153,209.944 251.470 C 207.094 253.967,192.373 254.006,188.738 251.525 C 188.154 251.126,187.403 250.800,187.069 250.800 C 186.735 250.800,185.927 250.350,185.273 249.800 C 184.619 249.250,183.970 248.800,183.830 248.800 C 183.690 248.800,182.341 248.101,180.833 247.246 C 179.325 246.391,177.395 245.468,176.545 245.194 C 175.695 244.920,174.779 244.521,174.510 244.307 C 171.769 242.133,151.838 242.124,149.104 244.296 C 148.827 244.516,147.905 244.920,147.055 245.194 C 146.205 245.468,144.275 246.391,142.767 247.246 C 141.259 248.101,139.910 248.800,139.770 248.800 C 139.630 248.800,138.981 249.250,138.327 249.800 C 137.673 250.350,136.865 250.800,136.531 250.800 C 136.197 250.800,135.446 251.129,134.862 251.532 C 131.302 253.984,117.657 253.975,113.920 251.518 C 113.350 251.143,112.428 250.722,111.871 250.582 C 111.314 250.442,110.548 249.984,110.167 249.564 C 109.787 249.144,109.330 248.800,109.152 248.800 C 108.973 248.800,107.606 248.126,106.114 247.303 C 97.949 242.799,89.201 241.435,78.800 243.044 C 74.242 243.750,72.492 244.343,67.000 247.043 C 65.020 248.016,63.248 248.810,63.062 248.806 C 62.876 248.803,62.235 249.148,61.637 249.573 C 61.040 249.999,60.028 250.478,59.387 250.639 C 58.747 250.800,57.678 251.240,57.012 251.618 C 56.345 251.996,54.927 252.416,53.859 252.551 C 52.792 252.686,51.082 253.084,50.059 253.437 C 47.076 254.466,36.988 254.347,33.648 253.243 C 32.244 252.780,30.714 252.399,30.248 252.399 C 29.782 252.398,28.811 252.038,28.090 251.599 C 27.370 251.159,26.609 250.800,26.398 250.800 C 24.307 250.800,19.980 245.593,18.997 241.893 C 17.559 236.483,21.049 229.080,24.690 229.815 C 25.520 229.983,76.060 230.231,137.000 230.367 M375.281 230.031 C 378.510 231.544,380.426 238.116,379.026 242.878 C 377.866 246.825,371.286 252.355,367.708 252.391 C 367.218 252.396,366.048 252.715,365.108 253.100 C 362.682 254.094,350.440 254.116,347.200 253.132 C 345.990 252.764,344.280 252.286,343.400 252.068 C 339.414 251.082,333.816 248.508,332.416 247.017 L 331.449 245.987 338.674 238.849 C 347.798 229.833,346.310 230.415,360.371 230.353 C 366.217 230.327,371.540 230.168,372.200 230.000 C 373.958 229.553,374.268 229.556,375.281 230.031 M10.000 250.233 C 10.000 250.940,9.139 250.817,8.892 250.075 C 8.805 249.814,9.018 249.600,9.367 249.600 C 9.715 249.600,10.000 249.885,10.000 250.233 M96.000 255.690 C 98.476 256.589,99.691 257.220,102.046 258.829 C 102.621 259.223,103.701 259.823,104.446 260.164 C 105.191 260.505,106.070 260.947,106.400 261.147 C 107.939 262.080,111.484 263.600,112.119 263.600 C 112.507 263.600,113.481 263.874,114.282 264.208 C 117.578 265.586,131.006 265.624,134.612 264.266 C 135.485 263.937,136.656 263.569,137.214 263.448 C 138.805 263.103,145.851 259.615,146.365 258.919 C 146.616 258.579,149.614 257.091,153.167 255.544 C 156.441 254.118,167.182 254.124,170.432 255.554 C 174.512 257.349,177.600 258.920,177.600 259.199 C 177.600 259.353,178.275 259.770,179.100 260.126 C 179.925 260.482,180.870 260.939,181.200 261.142 C 182.625 262.018,186.265 263.600,186.857 263.600 C 187.212 263.600,188.181 263.884,189.010 264.230 C 192.336 265.620,206.063 265.620,209.387 264.231 C 210.218 263.884,211.188 263.600,211.543 263.600 C 212.126 263.600,215.696 262.054,217.200 261.150 C 217.530 260.952,218.520 260.431,219.400 259.992 C 220.280 259.553,221.895 258.636,222.989 257.956 C 228.692 254.409,239.886 253.200,245.233 255.554 C 248.844 257.144,252.361 258.889,252.484 259.152 C 252.759 259.741,259.528 263.086,261.186 263.452 C 261.744 263.575,262.920 263.933,263.800 264.248 C 267.676 265.632,280.476 265.615,283.814 264.220 C 285.672 263.444,289.342 263.416,290.514 264.169 C 292.584 265.499,302.392 266.103,307.245 265.199 C 311.206 264.461,317.467 260.882,321.061 257.300 C 322.527 255.839,325.866 256.748,329.483 259.594 C 330.047 260.037,330.732 260.400,331.005 260.400 C 331.278 260.400,331.717 260.658,331.979 260.974 C 332.241 261.290,333.013 261.671,333.694 261.821 C 334.376 261.970,335.488 262.431,336.167 262.845 C 336.845 263.259,337.809 263.598,338.310 263.599 C 338.810 263.599,340.250 263.976,341.510 264.435 C 343.128 265.024,345.183 265.334,348.511 265.490 C 351.101 265.611,353.317 265.866,353.434 266.055 C 353.733 266.539,361.098 266.488,361.400 266.000 C 361.536 265.780,362.897 265.600,364.424 265.600 L 367.200 265.600 367.200 271.134 L 367.200 276.669 338.511 276.933 L 309.821 277.197 307.898 278.498 C 304.325 280.918,304.896 286.193,308.931 288.025 C 310.526 288.749,312.087 288.783,344.080 288.791 C 384.236 288.802,383.472 288.709,386.448 293.957 L 387.671 296.113 387.535 303.996 C 387.448 309.088,387.239 312.077,386.946 312.439 C 386.696 312.748,386.268 314.350,385.995 316.000 C 385.722 317.650,385.251 319.355,384.949 319.789 C 384.647 320.223,384.398 321.123,384.396 321.789 C 384.394 322.455,383.950 323.900,383.409 325.000 C 382.868 326.100,382.419 327.383,382.413 327.851 C 382.406 328.319,382.142 328.917,381.826 329.179 C 381.510 329.441,381.139 330.138,381.001 330.728 C 380.863 331.317,380.132 332.880,379.376 334.200 C 378.620 335.520,377.783 337.050,377.516 337.600 C 377.249 338.150,376.619 339.109,376.116 339.731 C 375.612 340.353,375.200 341.047,375.200 341.273 C 375.200 341.703,373.765 343.618,372.398 345.014 C 371.959 345.462,371.600 346.038,371.600 346.294 C 371.600 346.551,371.375 346.904,371.100 347.080 C 370.825 347.256,369.430 348.744,368.000 350.386 C 366.570 352.028,364.770 353.944,364.000 354.644 C 361.517 356.902,360.499 357.784,359.429 358.600 C 357.366 360.175,356.582 360.786,355.342 361.786 C 354.650 362.344,353.912 362.800,353.701 362.800 C 353.490 362.800,352.831 363.250,352.238 363.800 C 351.644 364.350,350.911 364.800,350.608 364.800 C 350.305 364.800,349.801 365.057,349.487 365.370 C 349.173 365.684,348.305 366.220,347.558 366.562 C 346.811 366.904,345.930 367.357,345.600 367.568 C 344.764 368.102,340.808 369.842,339.600 370.206 C 339.050 370.372,338.245 370.754,337.811 371.054 C 337.377 371.354,336.567 371.604,336.011 371.609 C 335.455 371.614,334.192 371.984,333.205 372.432 C 332.218 372.879,330.219 373.395,328.762 373.578 C 327.306 373.761,325.683 374.143,325.157 374.426 C 323.312 375.419,309.336 375.545,199.800 375.554 C 89.492 375.562,75.187 375.421,72.966 374.300 C 72.325 373.977,70.672 373.599,69.294 373.461 C 67.916 373.324,66.386 372.948,65.894 372.626 C 65.402 372.304,64.190 371.917,63.200 371.767 C 62.210 371.617,61.130 371.262,60.800 370.978 C 60.470 370.694,59.660 370.328,59.000 370.165 C 58.340 370.001,57.008 369.447,56.040 368.933 C 55.073 368.420,54.051 368.000,53.769 368.000 C 53.487 368.000,53.019 367.775,52.729 367.500 C 52.438 367.225,51.495 366.640,50.633 366.200 C 47.243 364.469,46.533 364.042,46.027 363.433 C 45.738 363.085,45.293 362.800,45.038 362.800 C 44.783 362.800,44.130 362.450,43.587 362.023 C 37.846 357.503,35.428 355.463,33.580 353.578 C 29.960 349.888,28.400 348.095,28.400 347.623 C 28.400 347.377,28.155 347.081,27.857 346.966 C 27.239 346.730,23.200 341.442,23.200 340.871 C 23.200 340.666,22.905 340.253,22.545 339.955 C 22.185 339.656,21.550 338.689,21.134 337.806 C 20.718 336.923,19.395 334.310,18.193 332.000 C 16.990 329.690,16.004 327.530,16.001 327.200 C 15.998 326.870,15.706 326.060,15.353 325.400 C 14.999 324.740,14.460 323.156,14.155 321.880 C 13.850 320.604,13.330 319.038,13.000 318.400 C 12.670 317.762,12.400 316.536,12.400 315.675 C 12.400 314.814,12.035 312.641,11.588 310.847 C 10.356 305.896,10.276 297.060,11.448 295.400 C 11.914 294.740,12.417 293.806,12.567 293.324 C 13.009 291.900,16.322 289.804,18.967 289.274 C 20.763 288.914,53.109 288.800,153.080 288.800 C 298.855 288.800,286.639 289.041,288.556 286.131 C 290.456 283.247,290.334 281.313,288.110 279.090 C 286.043 277.022,298.137 277.200,159.372 277.200 C 89.793 277.200,32.581 277.091,32.233 276.957 C 31.335 276.613,31.281 265.808,32.175 265.465 C 32.492 265.343,34.337 265.426,36.275 265.648 C 40.557 266.140,39.734 266.123,44.860 265.817 C 53.814 265.282,58.741 264.082,66.200 260.617 C 67.300 260.106,68.470 259.578,68.800 259.444 C 69.130 259.310,70.540 258.570,71.934 257.800 C 73.327 257.030,74.731 256.400,75.054 256.400 C 75.376 256.400,76.216 256.096,76.920 255.724 C 80.042 254.077,91.505 254.056,96.000 255.690 M13.500 255.700 C 13.408 255.975,13.093 256.200,12.800 256.200 C 12.507 256.200,12.192 255.975,12.100 255.700 C 12.001 255.403,12.284 255.200,12.800 255.200 C 13.316 255.200,13.599 255.403,13.500 255.700 M15.200 257.587 C 15.200 258.475,14.207 258.315,13.843 257.369 C 13.700 256.996,13.896 256.800,14.413 256.800 C 14.929 256.800,15.200 257.071,15.200 257.587 M391.600 281.443 C 391.600 281.749,391.330 282.000,391.000 282.000 C 390.670 282.000,390.400 281.646,390.400 281.213 C 390.400 280.677,390.592 280.499,391.000 280.655 C 391.330 280.782,391.600 281.136,391.600 281.443 M6.400 283.243 C 6.400 283.700,5.315 283.710,5.034 283.256 C 4.917 283.066,4.924 282.809,5.050 282.683 C 5.362 282.371,6.400 282.801,6.400 283.243 M394.580 284.433 C 394.478 284.597,394.616 284.805,394.887 284.896 C 395.158 284.986,394.979 285.164,394.490 285.292 C 393.822 285.467,393.600 285.352,393.600 284.829 C 393.600 284.446,393.862 284.133,394.182 284.133 C 394.503 284.133,394.682 284.268,394.580 284.433 M346.430 380.110 C 346.381 380.588,345.832 380.496,345.660 379.980 C 345.572 379.716,345.716 379.572,345.980 379.660 C 346.244 379.748,346.447 379.950,346.430 380.110 " stroke="none" fill="#080604" fill-rule="evenodd"></path><path id="path1" d="M178.931 25.997 C 178.453 26.192,174.673 26.547,170.531 26.787 C 166.389 27.027,161.470 27.485,159.600 27.804 C 157.730 28.124,154.130 28.570,151.600 28.797 C 149.070 29.023,146.248 29.471,145.328 29.792 C 144.409 30.114,142.159 30.497,140.328 30.643 C 138.498 30.790,136.472 31.177,135.828 31.503 C 135.183 31.829,133.299 32.264,131.642 32.470 C 129.985 32.675,128.443 32.998,128.215 33.186 C 127.987 33.375,126.630 33.746,125.200 34.011 C 123.770 34.276,121.970 34.738,121.200 35.037 C 120.430 35.337,118.720 35.837,117.400 36.149 C 116.080 36.462,114.460 36.909,113.800 37.142 C 113.140 37.376,111.790 37.824,110.800 38.138 C 108.104 38.992,106.382 39.621,104.543 40.424 C 103.632 40.822,102.244 41.268,101.458 41.416 C 100.672 41.563,99.820 41.935,99.565 42.242 C 99.310 42.549,98.791 42.800,98.411 42.800 C 98.030 42.800,96.873 43.250,95.838 43.800 C 94.804 44.350,93.631 44.800,93.233 44.800 C 92.834 44.800,92.064 45.149,91.522 45.575 C 90.980 46.002,90.011 46.475,89.368 46.628 C 88.726 46.780,87.840 47.222,87.400 47.609 C 86.960 47.997,86.030 48.434,85.333 48.581 C 84.637 48.728,83.976 49.085,83.866 49.373 C 83.755 49.661,83.156 50.025,82.535 50.181 C 81.913 50.337,81.154 50.675,80.849 50.932 C 80.543 51.189,79.590 51.760,78.730 52.200 C 77.871 52.640,76.015 53.617,74.607 54.370 C 71.616 55.970,69.832 55.770,67.652 53.590 C 65.901 51.840,61.600 52.091,61.600 53.944 C 61.600 54.369,61.046 54.573,60.266 54.436 C 60.082 54.404,59.836 54.742,59.719 55.189 C 59.566 55.773,59.176 56.000,58.325 56.000 C 57.675 56.000,56.886 56.257,56.571 56.571 C 55.717 57.426,55.882 57.831,56.760 57.036 C 57.593 56.282,58.167 56.691,57.580 57.619 C 57.259 58.126,57.211 58.126,57.206 57.620 C 57.201 57.169,57.093 57.147,56.720 57.520 C 56.456 57.784,55.916 58.000,55.520 58.000 C 54.874 58.000,54.616 58.437,54.753 59.300 C 54.779 59.465,54.620 59.600,54.400 59.600 C 53.673 59.600,53.985 61.398,54.800 61.907 C 55.464 62.322,55.600 62.840,55.600 64.948 C 55.600 67.987,55.673 67.885,48.181 75.400 C 45.330 78.260,41.340 82.670,39.315 85.200 C 37.290 87.730,35.356 90.115,35.017 90.500 C 34.677 90.885,34.400 91.354,34.400 91.542 C 34.400 91.729,33.995 92.341,33.500 92.901 C 33.005 93.461,31.992 94.928,31.249 96.160 C 30.506 97.392,29.769 98.400,29.612 98.400 C 29.455 98.400,29.116 99.101,28.860 99.959 C 28.603 100.816,28.124 101.620,27.796 101.746 C 27.468 101.872,27.200 102.341,27.200 102.787 C 27.200 103.234,26.861 103.939,26.446 104.354 C 26.032 104.768,25.483 105.744,25.226 106.522 C 24.969 107.300,24.498 108.152,24.180 108.417 C 23.861 108.682,23.600 109.302,23.600 109.795 C 23.600 110.288,23.251 111.136,22.825 111.678 C 22.398 112.220,21.927 113.189,21.777 113.832 C 21.627 114.474,21.284 115.360,21.014 115.800 C 20.744 116.240,20.211 117.543,19.831 118.695 C 19.450 119.848,18.973 120.893,18.769 121.019 C 18.566 121.144,18.398 121.642,18.396 122.124 C 18.394 122.606,17.950 123.900,17.409 125.000 C 16.868 126.100,16.419 127.450,16.412 128.000 C 16.405 128.550,16.057 129.900,15.639 131.001 C 15.221 132.101,14.750 133.901,14.593 135.001 C 14.436 136.100,14.078 137.540,13.797 138.200 C 13.516 138.860,12.789 143.090,12.182 147.600 L 11.078 155.800 12.139 158.112 C 12.723 159.383,13.200 160.533,13.200 160.666 C 13.200 161.181,15.348 162.861,17.216 163.808 L 19.173 164.800 199.147 164.800 L 379.121 164.800 381.060 163.890 C 386.486 161.346,388.124 156.687,386.436 148.600 C 386.023 146.620,385.566 143.650,385.420 142.000 C 385.275 140.350,385.011 138.640,384.833 138.200 C 384.087 136.347,383.600 134.473,383.600 133.450 C 383.600 132.848,383.246 131.578,382.813 130.628 C 382.380 129.677,381.906 128.112,381.759 127.150 C 381.613 126.187,381.268 125.130,380.991 124.800 C 380.715 124.470,380.357 123.570,380.196 122.800 C 380.034 122.030,379.590 120.770,379.209 120.000 C 378.828 119.230,378.401 118.000,378.261 117.266 C 378.121 116.533,377.645 115.425,377.203 114.805 C 376.761 114.184,376.400 113.310,376.400 112.862 C 376.400 112.414,376.222 111.937,376.005 111.803 C 375.564 111.531,372.800 105.940,372.800 105.320 C 372.800 105.102,372.440 104.598,372.000 104.200 C 371.560 103.802,371.200 103.215,371.200 102.896 C 371.200 102.577,370.750 101.781,370.200 101.127 C 369.650 100.473,369.200 99.636,369.200 99.266 C 369.200 98.895,368.840 98.368,368.400 98.093 C 367.960 97.818,367.600 97.352,367.600 97.058 C 367.600 96.763,367.235 96.102,366.789 95.587 C 366.343 95.073,365.874 94.236,365.746 93.726 C 365.618 93.217,365.292 92.800,365.021 92.800 C 364.750 92.800,364.320 92.395,364.065 91.900 C 363.809 91.405,362.971 90.190,362.200 89.200 C 361.430 88.210,360.684 87.157,360.542 86.860 C 360.400 86.563,359.905 85.916,359.442 85.422 C 358.515 84.433,354.498 79.896,352.362 77.425 C 350.313 75.056,349.251 74.016,346.400 71.586 C 343.933 69.483,342.057 67.847,339.537 65.600 C 338.920 65.050,337.771 64.150,336.983 63.600 C 336.194 63.050,334.583 61.835,333.402 60.900 C 332.220 59.965,331.133 59.200,330.985 59.200 C 330.837 59.200,330.181 58.750,329.527 58.200 C 328.873 57.650,328.089 57.200,327.783 57.200 C 327.478 57.200,327.035 56.840,326.800 56.400 C 326.565 55.960,326.063 55.600,325.686 55.599 C 325.309 55.599,323.970 54.884,322.711 54.010 C 321.451 53.136,319.980 52.310,319.440 52.174 C 318.900 52.039,318.148 51.584,317.767 51.164 C 317.387 50.744,316.768 50.400,316.392 50.400 C 316.016 50.400,315.279 50.066,314.754 49.658 C 314.229 49.250,313.112 48.692,312.272 48.418 C 311.432 48.144,310.647 47.668,310.529 47.360 C 310.411 47.052,309.908 46.800,309.411 46.800 C 308.914 46.800,308.072 46.457,307.540 46.039 C 307.007 45.620,305.821 45.075,304.903 44.828 C 303.985 44.581,303.129 44.208,303.000 44.000 C 302.871 43.792,302.062 43.432,301.201 43.200 C 300.340 42.969,299.397 42.540,299.105 42.248 C 298.813 41.956,297.767 41.596,296.781 41.448 C 295.795 41.300,294.450 40.825,293.794 40.392 C 293.137 39.959,292.233 39.604,291.785 39.603 C 291.336 39.601,290.291 39.254,289.461 38.831 C 288.632 38.408,287.203 37.936,286.285 37.781 C 285.368 37.626,284.254 37.265,283.809 36.980 C 283.364 36.695,281.964 36.274,280.699 36.044 C 279.433 35.814,277.993 35.406,277.499 35.136 C 277.004 34.866,275.596 34.523,274.370 34.374 C 273.143 34.225,271.510 33.805,270.742 33.440 C 269.973 33.076,267.999 32.627,266.356 32.442 C 264.712 32.258,262.835 31.837,262.184 31.508 C 261.533 31.179,259.290 30.785,257.200 30.634 C 255.060 30.478,253.023 30.112,252.537 29.794 C 251.995 29.440,249.612 29.084,246.118 28.836 C 243.062 28.619,240.030 28.238,239.381 27.989 C 238.731 27.741,235.230 27.365,231.600 27.156 C 227.970 26.946,223.650 26.564,222.000 26.307 C 218.373 25.742,180.230 25.468,178.931 25.997 M27.000 203.153 C 20.359 204.521,18.507 213.256,24.060 217.020 L 25.800 218.200 138.200 218.400 C 242.612 218.586,250.685 218.648,251.800 219.274 C 252.460 219.644,253.997 220.420,255.216 220.997 C 256.435 221.574,258.715 223.161,260.283 224.523 C 261.852 225.885,264.086 227.810,265.249 228.800 C 268.068 231.201,269.366 232.337,271.127 233.944 C 271.937 234.683,274.175 236.563,276.100 238.123 C 278.025 239.682,279.600 241.102,279.600 241.279 C 279.600 241.456,279.772 241.600,279.982 241.600 C 280.192 241.600,280.781 242.005,281.292 242.500 C 282.929 244.088,287.563 248.099,288.496 248.736 C 288.993 249.076,289.494 249.488,289.609 249.653 C 290.078 250.325,292.791 251.934,294.246 252.403 C 295.101 252.679,295.980 253.036,296.200 253.198 C 298.215 254.676,306.708 253.333,309.026 251.171 C 309.480 250.747,310.017 250.400,310.219 250.400 C 310.519 250.400,323.130 237.757,332.843 227.718 C 335.769 224.693,338.762 222.000,339.197 222.000 C 339.387 222.000,339.830 221.713,340.181 221.362 C 340.776 220.767,343.417 219.629,346.197 218.770 C 346.856 218.567,352.907 218.400,359.643 218.400 C 371.286 218.400,371.942 218.360,372.909 217.600 C 373.469 217.160,374.095 216.800,374.302 216.800 C 375.553 216.800,378.000 212.706,378.000 210.612 C 378.000 205.158,369.994 200.957,365.400 204.000 C 364.740 204.437,363.965 204.796,363.678 204.797 C 363.391 204.799,362.311 205.205,361.278 205.700 L 359.400 206.600 201.877 206.704 C 108.189 206.766,43.269 206.660,41.677 206.442 C 38.811 206.050,36.212 205.240,32.994 203.737 C 31.028 202.818,29.395 202.659,27.000 203.153 M290.279 284.705 C 290.157 285.313,289.694 286.230,289.250 286.742 C 288.806 287.255,288.388 287.792,288.321 287.937 C 287.402 289.934,297.468 289.782,151.390 290.000 L 17.379 290.200 15.307 291.800 C 13.967 292.834,13.068 293.895,12.765 294.800 C 12.507 295.570,12.094 296.454,11.848 296.764 C 11.210 297.567,11.377 304.347,12.130 308.200 C 12.473 309.960,12.875 312.570,13.023 314.000 C 13.171 315.430,13.478 316.954,13.706 317.387 C 13.934 317.820,14.432 319.350,14.812 320.787 C 15.673 324.039,16.240 325.641,17.450 328.240 C 17.973 329.362,18.400 330.504,18.400 330.777 C 18.400 331.050,18.760 331.731,19.200 332.291 C 19.640 332.850,20.000 333.529,20.000 333.800 C 20.000 334.071,20.335 334.721,20.745 335.246 C 21.155 335.771,21.627 336.650,21.795 337.200 C 21.962 337.750,22.437 338.522,22.850 338.916 C 23.262 339.309,23.600 339.851,23.600 340.119 C 23.600 340.388,23.960 340.832,24.400 341.107 C 24.840 341.382,25.200 341.862,25.200 342.175 C 25.200 342.487,25.425 342.985,25.700 343.281 C 25.975 343.577,26.819 344.625,27.575 345.610 C 31.009 350.081,37.104 356.059,41.800 359.563 C 42.680 360.220,43.850 361.101,44.400 361.522 C 44.950 361.943,45.805 362.415,46.300 362.571 C 46.795 362.726,47.200 362.994,47.200 363.166 C 47.200 363.338,47.920 363.803,48.800 364.200 C 49.680 364.597,50.400 365.074,50.400 365.261 C 50.400 365.447,50.645 365.600,50.944 365.600 C 51.243 365.600,52.151 366.050,52.962 366.600 C 53.772 367.150,54.706 367.600,55.036 367.600 C 55.366 367.600,56.482 368.050,57.515 368.600 C 58.548 369.150,59.670 369.600,60.008 369.600 C 60.346 369.600,60.977 369.847,61.411 370.148 C 61.845 370.450,63.154 370.900,64.320 371.148 C 65.486 371.397,66.962 371.870,67.600 372.200 C 68.238 372.530,69.264 372.800,69.880 372.800 C 70.496 372.800,72.260 373.088,73.800 373.440 C 75.340 373.792,78.220 374.246,80.200 374.449 C 85.739 375.016,320.926 374.722,321.639 374.147 C 322.321 373.596,325.943 372.800,327.769 372.800 C 328.500 372.800,329.886 372.460,330.849 372.044 C 331.812 371.629,333.440 371.170,334.467 371.025 C 335.494 370.880,336.551 370.500,336.816 370.180 C 337.081 369.861,337.682 369.600,338.152 369.600 C 338.622 369.600,339.852 369.150,340.885 368.600 C 341.918 368.050,343.104 367.600,343.520 367.600 C 343.936 367.600,344.593 367.250,344.979 366.823 C 345.366 366.395,346.216 365.928,346.869 365.785 C 347.521 365.642,348.147 365.283,348.260 364.987 C 348.374 364.691,348.973 364.338,349.592 364.202 C 350.211 364.066,351.034 363.605,351.421 363.177 C 351.807 362.750,352.295 362.400,352.504 362.400 C 352.713 362.400,353.393 361.995,354.015 361.500 C 354.636 361.005,355.788 360.150,356.575 359.600 C 358.416 358.312,362.830 354.376,365.395 351.735 C 368.736 348.294,370.978 345.835,371.400 345.149 C 373.129 342.333,375.697 338.800,376.014 338.800 C 376.226 338.800,376.400 338.395,376.400 337.900 C 376.401 337.405,376.851 336.477,377.400 335.838 C 377.950 335.199,378.400 334.366,378.400 333.987 C 378.400 333.608,378.669 333.075,378.997 332.802 C 379.326 332.530,379.789 331.563,380.026 330.653 C 380.263 329.744,380.687 328.820,380.966 328.600 C 381.246 328.380,381.606 327.480,381.767 326.600 C 381.928 325.720,382.351 324.550,382.708 324.000 C 383.064 323.450,383.483 322.076,383.637 320.946 C 383.792 319.817,384.196 318.287,384.536 317.546 C 384.875 316.806,385.270 315.120,385.414 313.800 C 385.557 312.480,385.946 310.320,386.279 309.000 C 387.194 305.362,387.208 297.126,386.300 296.116 C 385.915 295.687,385.600 295.064,385.600 294.730 C 385.600 293.975,384.673 292.944,382.600 291.396 L 381.000 290.200 345.400 290.000 C 311.065 289.807,309.757 289.773,308.600 289.026 C 306.529 287.691,305.650 286.738,305.388 285.546 C 305.003 283.792,304.184 283.600,297.076 283.600 L 290.500 283.600 290.279 284.705 " stroke="none" fill="#eea034" fill-rule="evenodd"></path><path id="path2" d="M249.067 15.867 C 248.518 16.415,248.832 16.800,249.829 16.800 C 250.743 16.800,250.790 16.733,250.257 16.200 C 249.583 15.526,249.446 15.487,249.067 15.867 M175.000 25.228 C 173.020 25.424,170.590 25.758,169.600 25.971 C 168.610 26.183,165.370 26.469,162.400 26.606 C 159.430 26.742,155.470 27.189,153.600 27.598 C 151.730 28.006,148.758 28.435,146.997 28.551 C 145.235 28.666,143.165 29.017,142.397 29.330 C 141.628 29.644,139.650 30.027,138.000 30.182 C 136.350 30.337,134.460 30.716,133.800 31.024 C 133.140 31.332,131.284 31.769,129.676 31.994 C 128.069 32.219,126.269 32.648,125.676 32.946 C 125.084 33.244,123.665 33.594,122.522 33.723 C 121.378 33.852,119.876 34.250,119.183 34.609 C 118.490 34.967,117.085 35.417,116.061 35.608 C 113.908 36.011,109.457 37.437,108.000 38.190 C 107.450 38.475,106.370 38.842,105.600 39.007 C 104.830 39.172,103.573 39.643,102.806 40.053 C 102.039 40.464,101.028 40.800,100.560 40.800 C 100.091 40.800,99.279 41.133,98.754 41.539 C 98.229 41.945,97.260 42.403,96.600 42.556 C 95.940 42.708,94.680 43.171,93.800 43.584 C 88.308 46.160,86.577 47.011,86.400 47.226 C 86.290 47.360,85.660 47.661,85.000 47.896 C 84.340 48.130,82.990 48.791,82.000 49.363 C 81.010 49.935,79.459 50.761,78.553 51.197 C 77.647 51.634,76.680 52.263,76.404 52.595 C 76.128 52.928,75.696 53.200,75.445 53.200 C 75.194 53.200,74.337 53.549,73.542 53.975 C 71.665 54.981,68.122 53.938,67.448 52.182 C 67.326 51.862,66.895 51.600,66.493 51.600 C 66.090 51.600,65.522 51.375,65.231 51.100 C 64.795 50.687,64.783 50.757,65.165 51.500 C 65.420 51.995,65.816 52.400,66.045 52.400 C 66.274 52.400,66.997 52.936,67.652 53.590 C 69.832 55.770,71.616 55.970,74.607 54.370 C 76.015 53.617,77.871 52.640,78.730 52.200 C 79.590 51.760,80.543 51.189,80.849 50.932 C 81.154 50.675,81.913 50.337,82.535 50.181 C 83.156 50.025,83.755 49.661,83.866 49.373 C 83.976 49.085,84.637 48.728,85.333 48.581 C 86.030 48.434,86.960 47.997,87.400 47.609 C 87.840 47.222,88.726 46.780,89.368 46.628 C 90.011 46.475,90.980 46.002,91.522 45.575 C 92.064 45.149,92.834 44.800,93.233 44.800 C 93.631 44.800,94.804 44.350,95.838 43.800 C 96.873 43.250,98.030 42.800,98.411 42.800 C 98.791 42.800,99.310 42.549,99.565 42.242 C 99.820 41.935,100.672 41.563,101.458 41.416 C 102.244 41.268,103.632 40.822,104.543 40.424 C 106.382 39.621,108.104 38.992,110.800 38.138 C 111.790 37.824,113.140 37.376,113.800 37.142 C 114.460 36.909,116.080 36.462,117.400 36.149 C 118.720 35.837,120.430 35.337,121.200 35.037 C 121.970 34.738,123.770 34.276,125.200 34.011 C 126.630 33.746,127.987 33.375,128.215 33.186 C 128.443 32.998,129.985 32.675,131.642 32.470 C 133.299 32.264,135.183 31.829,135.828 31.503 C 136.472 31.177,138.493 30.790,140.318 30.644 C 142.143 30.498,144.422 30.111,145.383 29.785 C 146.344 29.459,149.741 28.943,152.933 28.640 C 156.124 28.336,158.930 27.967,159.167 27.820 C 159.405 27.673,163.604 27.297,168.500 26.983 C 173.395 26.670,178.120 26.223,179.000 25.991 C 181.209 25.408,217.962 25.679,222.000 26.307 C 223.650 26.564,227.970 26.946,231.600 27.156 C 235.230 27.365,238.731 27.741,239.381 27.989 C 240.030 28.238,243.062 28.619,246.118 28.836 C 249.612 29.084,251.995 29.440,252.537 29.794 C 253.023 30.112,255.060 30.478,257.200 30.634 C 259.290 30.785,261.533 31.179,262.184 31.508 C 262.835 31.837,264.712 32.258,266.356 32.442 C 267.999 32.627,269.973 33.076,270.742 33.440 C 271.510 33.805,273.143 34.225,274.370 34.374 C 275.596 34.523,277.004 34.866,277.499 35.136 C 277.993 35.406,279.433 35.814,280.699 36.044 C 281.964 36.274,283.364 36.695,283.809 36.980 C 284.254 37.265,285.368 37.626,286.285 37.781 C 287.203 37.936,288.632 38.408,289.461 38.831 C 290.291 39.254,291.336 39.601,291.785 39.603 C 292.233 39.604,293.137 39.959,293.794 40.392 C 294.450 40.825,295.795 41.300,296.781 41.448 C 297.767 41.596,298.813 41.956,299.105 42.248 C 299.397 42.540,300.340 42.969,301.201 43.200 C 302.062 43.432,302.871 43.792,303.000 44.000 C 303.129 44.208,303.985 44.581,304.903 44.828 C 305.821 45.075,307.007 45.620,307.540 46.039 C 308.072 46.457,308.914 46.800,309.411 46.800 C 309.908 46.800,310.411 47.052,310.529 47.360 C 310.647 47.668,311.432 48.144,312.272 48.418 C 313.112 48.692,314.229 49.250,314.754 49.658 C 315.279 50.066,316.016 50.400,316.392 50.400 C 316.768 50.400,317.387 50.744,317.767 51.164 C 318.148 51.584,318.900 52.039,319.440 52.174 C 319.980 52.310,321.451 53.136,322.711 54.010 C 323.970 54.884,325.309 55.599,325.686 55.599 C 326.063 55.600,326.565 55.960,326.800 56.400 C 327.035 56.840,327.478 57.200,327.783 57.200 C 328.089 57.200,328.873 57.650,329.527 58.200 C 330.181 58.750,330.837 59.200,330.985 59.200 C 331.133 59.200,332.220 59.965,333.402 60.900 C 334.583 61.835,336.194 63.050,336.983 63.600 C 337.771 64.150,338.920 65.050,339.537 65.600 C 342.057 67.847,343.933 69.483,346.400 71.586 C 349.251 74.016,350.313 75.056,352.362 77.425 C 354.498 79.896,358.515 84.433,359.442 85.422 C 359.905 85.916,360.400 86.563,360.542 86.860 C 360.684 87.157,361.430 88.210,362.200 89.200 C 362.971 90.190,363.809 91.405,364.065 91.900 C 364.320 92.395,364.750 92.800,365.021 92.800 C 365.292 92.800,365.618 93.217,365.746 93.726 C 365.874 94.236,366.343 95.073,366.789 95.587 C 367.235 96.102,367.600 96.763,367.600 97.058 C 367.600 97.352,367.960 97.818,368.400 98.093 C 368.840 98.368,369.200 98.895,369.200 99.266 C 369.200 99.636,369.650 100.473,370.200 101.127 C 370.750 101.781,371.200 102.577,371.200 102.896 C 371.200 103.215,371.560 103.802,372.000 104.200 C 372.440 104.598,372.800 105.102,372.800 105.320 C 372.800 105.940,375.564 111.531,376.005 111.803 C 376.222 111.937,376.400 112.414,376.400 112.862 C 376.400 113.310,376.761 114.184,377.203 114.805 C 377.645 115.425,378.121 116.533,378.261 117.266 C 378.401 118.000,378.828 119.230,379.209 120.000 C 379.590 120.770,380.034 122.030,380.196 122.800 C 380.357 123.570,380.715 124.470,380.991 124.800 C 381.268 125.130,381.613 126.187,381.759 127.150 C 381.906 128.112,382.380 129.677,382.813 130.628 C 383.246 131.578,383.600 132.848,383.600 133.450 C 383.600 134.473,384.087 136.347,384.833 138.200 C 385.011 138.640,385.275 140.350,385.420 142.000 C 385.566 143.650,386.023 146.620,386.436 148.600 C 388.124 156.687,386.486 161.346,381.060 163.890 L 379.121 164.800 199.147 164.800 L 19.173 164.800 17.216 163.808 C 15.348 162.861,13.200 161.181,13.200 160.666 C 13.200 160.533,12.723 159.383,12.139 158.112 L 11.078 155.800 12.182 147.600 C 12.789 143.090,13.516 138.860,13.797 138.200 C 14.078 137.540,14.436 136.100,14.593 135.001 C 14.750 133.901,15.221 132.101,15.639 131.001 C 16.057 129.900,16.405 128.550,16.412 128.000 C 16.419 127.450,16.868 126.100,17.409 125.000 C 17.950 123.900,18.394 122.606,18.396 122.124 C 18.398 121.642,18.566 121.144,18.769 121.019 C 18.973 120.893,19.450 119.848,19.831 118.695 C 20.211 117.543,20.744 116.240,21.014 115.800 C 21.284 115.360,21.627 114.474,21.777 113.832 C 21.927 113.189,22.398 112.220,22.825 111.678 C 23.251 111.136,23.600 110.288,23.600 109.795 C 23.600 109.302,23.861 108.682,24.180 108.417 C 24.498 108.152,24.969 107.300,25.226 106.522 C 25.483 105.744,26.032 104.768,26.446 104.354 C 26.861 103.939,27.200 103.234,27.200 102.787 C 27.200 102.341,27.468 101.872,27.796 101.746 C 28.124 101.620,28.603 100.816,28.860 99.959 C 29.116 99.101,29.455 98.400,29.612 98.400 C 29.769 98.400,30.506 97.392,31.249 96.160 C 31.992 94.928,33.005 93.461,33.500 92.901 C 33.995 92.341,34.400 91.729,34.400 91.542 C 34.400 91.354,34.677 90.885,35.017 90.500 C 35.356 90.115,37.290 87.730,39.315 85.200 C 41.340 82.670,45.330 78.260,48.181 75.400 C 55.673 67.885,55.600 67.987,55.600 64.948 C 55.600 62.840,55.464 62.322,54.800 61.907 C 54.360 61.632,54.000 61.001,54.000 60.504 C 54.000 60.007,53.820 59.600,53.600 59.600 C 52.889 59.600,53.176 61.587,53.987 62.282 C 56.692 64.598,55.821 66.419,48.482 73.788 C 42.647 79.646,34.315 89.520,33.584 91.443 C 33.384 91.969,33.044 92.400,32.829 92.400 C 32.615 92.400,31.786 93.568,30.987 94.996 C 30.189 96.424,29.367 97.697,29.162 97.824 C 28.956 97.951,28.524 98.627,28.202 99.327 C 27.601 100.633,27.153 101.409,25.934 103.260 C 25.550 103.843,25.121 104.775,24.982 105.330 C 24.842 105.886,24.384 106.652,23.964 107.033 C 23.544 107.413,23.200 108.122,23.200 108.608 C 23.200 109.094,22.865 109.921,22.455 110.446 C 22.045 110.971,21.575 111.850,21.409 112.400 C 21.244 112.950,20.784 113.940,20.388 114.600 C 19.992 115.260,19.543 116.469,19.392 117.286 C 19.240 118.103,18.870 118.976,18.569 119.226 C 18.268 119.476,17.902 120.337,17.757 121.140 C 17.611 121.943,17.156 123.268,16.746 124.084 C 16.336 124.900,15.992 125.890,15.982 126.284 C 15.973 126.678,15.693 127.720,15.360 128.600 C 15.027 129.480,14.508 131.308,14.206 132.661 C 13.905 134.015,13.375 135.956,13.029 136.975 C 12.683 137.994,12.400 139.437,12.400 140.182 C 12.400 140.927,12.026 143.113,11.568 145.039 C 10.309 150.343,10.273 157.885,11.500 159.548 C 11.995 160.219,12.400 160.889,12.400 161.038 C 12.400 161.402,14.278 163.151,16.000 164.392 L 17.400 165.400 199.200 165.400 L 381.000 165.400 382.980 163.981 C 384.068 163.201,385.541 161.761,386.253 160.781 L 387.547 159.000 387.573 152.775 C 387.594 147.904,387.435 145.904,386.840 143.575 C 386.422 141.939,385.954 139.520,385.799 138.200 C 385.644 136.881,385.289 135.351,385.011 134.800 C 384.732 134.250,384.374 132.900,384.214 131.800 C 384.055 130.700,383.582 129.045,383.162 128.122 C 382.743 127.199,382.400 126.050,382.400 125.569 C 382.400 125.088,382.059 124.133,381.643 123.447 C 381.227 122.761,380.753 121.570,380.590 120.800 C 380.427 120.030,379.957 118.773,379.547 118.006 C 379.136 117.239,378.800 116.232,378.800 115.768 C 378.800 115.304,378.440 114.598,378.000 114.200 C 377.560 113.802,377.200 113.078,377.200 112.592 C 377.200 112.106,376.838 111.248,376.396 110.686 C 375.955 110.125,375.484 109.119,375.351 108.453 C 375.217 107.786,374.769 106.934,374.354 106.558 C 373.939 106.183,373.600 105.558,373.600 105.169 C 373.600 104.780,373.150 103.927,372.600 103.273 C 372.050 102.619,371.600 101.893,371.600 101.660 C 371.600 101.294,370.979 100.253,369.178 97.600 C 368.954 97.270,368.552 96.608,368.285 96.129 C 367.436 94.606,364.358 90.266,362.752 88.328 C 361.898 87.299,361.200 86.315,361.200 86.142 C 361.200 85.970,360.845 85.462,360.412 85.014 C 359.979 84.566,358.497 82.850,357.118 81.200 C 353.552 76.932,346.047 69.578,342.458 66.835 C 340.776 65.550,338.899 64.029,338.287 63.456 C 337.674 62.882,335.964 61.578,334.487 60.556 C 333.009 59.535,331.414 58.349,330.943 57.920 C 330.471 57.492,329.534 56.839,328.859 56.470 C 328.185 56.102,326.265 54.990,324.593 54.000 C 322.920 53.010,320.888 51.807,320.076 51.326 C 318.694 50.508,308.671 45.475,304.194 43.351 C 303.091 42.828,301.959 42.400,301.678 42.400 C 301.397 42.400,300.680 42.057,300.084 41.637 C 299.488 41.218,298.360 40.766,297.578 40.634 C 296.795 40.501,295.452 40.034,294.593 39.596 C 293.734 39.158,292.749 38.800,292.404 38.800 C 292.060 38.800,291.423 38.553,290.989 38.252 C 290.555 37.950,289.212 37.493,288.005 37.236 C 286.798 36.978,285.448 36.533,285.005 36.246 C 284.562 35.959,283.446 35.625,282.524 35.503 C 281.602 35.382,280.257 34.988,279.534 34.627 C 278.811 34.266,277.078 33.809,275.682 33.612 C 274.287 33.414,272.919 33.065,272.642 32.835 C 272.365 32.605,270.802 32.229,269.169 31.999 C 267.536 31.770,265.480 31.318,264.600 30.997 C 263.720 30.675,261.491 30.231,259.646 30.010 C 257.802 29.790,256.069 29.423,255.796 29.196 C 255.522 28.969,253.251 28.620,250.749 28.421 C 248.247 28.221,245.210 27.789,244.000 27.460 C 242.790 27.132,239.370 26.741,236.400 26.592 C 233.430 26.443,229.560 26.048,227.800 25.713 C 224.048 25.000,181.285 24.607,175.000 25.228 M48.200 58.806 C 47.485 59.082,47.472 59.143,48.077 59.391 C 49.164 59.836,50.262 59.510,49.562 58.949 C 49.236 58.688,48.665 58.628,48.200 58.806 M392.000 119.400 C 392.000 119.730,392.292 120.000,392.649 120.000 C 393.180 120.000,393.208 119.891,392.800 119.400 C 392.526 119.070,392.234 118.800,392.151 118.800 C 392.068 118.800,392.000 119.070,392.000 119.400 M393.600 124.613 C 393.600 125.400,393.803 125.600,394.603 125.600 C 395.503 125.600,395.556 125.518,395.112 124.808 C 394.341 123.573,393.600 123.478,393.600 124.613 M395.600 130.938 C 395.600 132.522,396.133 132.846,396.773 131.650 C 397.082 131.073,396.994 130.737,396.387 130.188 C 395.618 129.492,395.600 129.509,395.600 130.938 M397.762 138.342 C 398.609 139.295,398.800 139.382,398.800 138.814 C 398.800 138.602,398.395 138.216,397.900 137.956 C 397.005 137.486,397.004 137.488,397.762 138.342 M397.200 140.200 C 397.200 140.873,397.273 140.900,398.167 140.557 C 399.061 140.214,398.954 139.600,398.000 139.600 C 397.556 139.600,397.200 139.867,397.200 140.200 M31.383 177.380 C 30.208 178.556,30.068 181.245,31.050 183.800 C 31.388 184.680,31.767 185.850,31.892 186.400 C 32.101 187.323,32.738 188.267,34.823 190.744 C 36.030 192.178,38.340 193.616,40.583 194.330 C 43.771 195.346,352.895 195.570,356.800 194.560 C 359.635 193.827,362.543 192.168,363.800 190.568 C 364.240 190.008,364.932 189.184,365.337 188.737 C 367.467 186.392,368.751 178.591,367.254 177.094 C 366.864 176.704,331.603 176.579,199.563 176.499 L 32.366 176.397 31.383 177.380 M17.817 177.172 C 17.544 177.614,18.175 178.092,18.544 177.722 C 18.925 177.342,18.854 176.800,18.424 176.800 C 18.217 176.800,17.944 176.968,17.817 177.172 M25.800 202.670 C 24.443 203.036,21.611 205.598,21.032 206.985 C 20.729 207.710,20.283 208.425,20.041 208.575 C 19.380 208.983,19.490 212.610,20.180 213.183 C 20.498 213.448,20.958 214.267,21.201 215.004 C 21.504 215.921,22.249 216.733,23.557 217.572 L 25.470 218.800 136.835 218.809 C 244.737 218.817,248.251 218.841,249.846 219.565 C 250.752 219.976,252.102 220.446,252.846 220.609 C 253.591 220.771,254.629 221.241,255.154 221.652 C 255.679 222.063,256.318 222.400,256.575 222.400 C 256.833 222.400,257.663 223.045,258.422 223.833 C 259.180 224.620,261.870 226.940,264.400 228.987 C 266.930 231.034,270.350 233.986,272.000 235.547 C 273.650 237.108,275.109 238.388,275.242 238.392 C 275.374 238.397,275.951 238.805,276.523 239.300 C 277.095 239.795,278.131 240.650,278.826 241.200 C 279.520 241.750,280.888 242.947,281.866 243.861 C 286.555 248.240,287.662 249.183,289.559 250.412 C 290.681 251.139,291.600 251.870,291.600 252.036 C 291.600 252.201,292.170 252.462,292.867 252.615 C 293.563 252.768,294.688 253.231,295.367 253.645 C 297.200 254.763,304.089 254.733,305.800 253.600 C 306.460 253.163,307.286 252.804,307.637 252.803 C 308.700 252.798,319.609 242.254,334.694 226.652 C 335.845 225.461,337.772 223.833,338.976 223.033 C 340.180 222.234,341.264 221.421,341.384 221.225 C 341.505 221.030,342.329 220.747,343.216 220.597 C 344.102 220.448,345.406 220.027,346.114 219.663 C 347.205 219.100,349.338 218.970,360.200 218.800 L 373.000 218.600 374.876 217.479 C 376.196 216.690,376.883 215.960,377.196 215.011 C 377.441 214.270,377.902 213.448,378.220 213.183 C 380.004 211.703,377.985 206.094,374.861 203.849 C 372.567 202.202,366.372 201.956,364.732 203.448 C 364.220 203.914,362.999 204.417,362.020 204.566 C 361.041 204.714,359.978 205.052,359.658 205.318 C 358.472 206.303,41.169 206.188,39.004 205.202 C 38.036 204.761,36.661 204.400,35.948 204.400 C 35.155 204.400,34.280 204.051,33.695 203.502 C 32.730 202.595,27.948 202.091,25.800 202.670 M32.994 203.737 C 36.212 205.240,38.811 206.050,41.677 206.442 C 43.269 206.660,108.189 206.766,201.877 206.704 L 359.400 206.600 361.278 205.700 C 362.311 205.205,363.391 204.799,363.678 204.797 C 363.965 204.796,364.740 204.437,365.400 204.000 C 369.994 200.957,378.000 205.158,378.000 210.612 C 378.000 212.706,375.553 216.800,374.302 216.800 C 374.095 216.800,373.469 217.160,372.909 217.600 C 371.942 218.360,371.286 218.400,359.643 218.400 C 352.907 218.400,346.856 218.567,346.197 218.770 C 343.417 219.629,340.776 220.767,340.181 221.362 C 339.830 221.713,339.387 222.000,339.197 222.000 C 338.762 222.000,335.769 224.693,332.843 227.718 C 323.130 237.757,310.519 250.400,310.219 250.400 C 310.017 250.400,309.480 250.747,309.026 251.171 C 306.708 253.333,298.215 254.676,296.200 253.198 C 295.980 253.036,295.101 252.679,294.246 252.403 C 292.791 251.934,290.078 250.325,289.609 249.653 C 289.494 249.488,288.993 249.076,288.496 248.736 C 287.563 248.099,282.929 244.088,281.292 242.500 C 280.781 242.005,280.192 241.600,279.982 241.600 C 279.772 241.600,279.600 241.456,279.600 241.279 C 279.600 241.102,278.025 239.682,276.100 238.123 C 274.175 236.563,271.937 234.683,271.127 233.944 C 269.366 232.337,268.068 231.201,265.249 228.800 C 264.086 227.810,261.852 225.885,260.283 224.523 C 258.715 223.161,256.435 221.574,255.216 220.997 C 253.997 220.420,252.460 219.644,251.800 219.274 C 250.685 218.648,242.612 218.586,138.200 218.400 L 25.800 218.200 24.060 217.020 C 15.886 211.479,23.939 199.506,32.994 203.737 M9.100 226.757 C 8.171 227.699,8.213 228.400,9.200 228.400 C 9.822 228.400,10.000 228.133,10.000 227.200 C 10.000 225.815,10.020 225.825,9.100 226.757 M6.855 232.358 C 6.394 232.649,6.394 232.737,6.855 232.920 C 7.281 233.090,7.286 233.144,6.876 233.168 C 6.173 233.211,6.692 234.000,7.424 234.000 C 7.772 234.000,8.000 233.604,8.000 233.000 C 8.000 231.941,7.741 231.796,6.855 232.358 M7.200 245.224 C 7.200 245.457,7.022 245.537,6.805 245.403 C 6.581 245.265,6.509 245.418,6.638 245.754 C 6.763 246.082,7.121 246.252,7.433 246.132 C 8.076 245.885,8.212 244.800,7.600 244.800 C 7.380 244.800,7.200 244.991,7.200 245.224 M8.892 250.075 C 9.139 250.817,10.000 250.940,10.000 250.233 C 10.000 249.885,9.715 249.600,9.367 249.600 C 9.018 249.600,8.805 249.814,8.892 250.075 M40.905 254.287 C 41.514 254.379,42.414 254.377,42.905 254.282 C 43.397 254.187,42.900 254.111,41.800 254.114 C 40.700 254.117,40.297 254.195,40.905 254.287 M79.800 254.751 C 78.920 254.915,77.624 255.353,76.920 255.724 C 76.216 256.096,75.376 256.400,75.054 256.400 C 74.731 256.400,73.327 257.030,71.934 257.800 C 70.540 258.570,69.130 259.310,68.800 259.444 C 68.470 259.578,67.300 260.106,66.200 260.617 C 58.741 264.082,53.814 265.282,44.860 265.817 C 39.734 266.123,40.557 266.140,36.275 265.648 C 34.337 265.426,32.492 265.343,32.175 265.465 C 31.281 265.808,31.335 276.613,32.233 276.957 C 32.581 277.091,89.793 277.200,159.372 277.200 C 284.748 277.200,285.886 277.207,286.839 277.990 C 290.342 280.869,290.750 282.802,288.556 286.131 C 286.639 289.041,298.855 288.800,153.080 288.800 C 53.109 288.800,20.763 288.914,18.967 289.274 C 16.322 289.804,13.009 291.900,12.567 293.324 C 12.417 293.806,11.914 294.740,11.448 295.400 C 10.276 297.060,10.356 305.896,11.588 310.847 C 12.035 312.641,12.400 314.814,12.400 315.675 C 12.400 316.536,12.670 317.762,13.000 318.400 C 13.330 319.038,13.850 320.604,14.155 321.880 C 14.460 323.156,14.999 324.740,15.353 325.400 C 15.706 326.060,15.998 326.870,16.001 327.200 C 16.004 327.530,16.990 329.690,18.193 332.000 C 19.395 334.310,20.718 336.923,21.134 337.806 C 21.550 338.689,22.185 339.656,22.545 339.955 C 22.905 340.253,23.200 340.666,23.200 340.871 C 23.200 341.442,27.239 346.730,27.857 346.966 C 28.155 347.081,28.400 347.377,28.400 347.623 C 28.400 348.095,29.960 349.888,33.580 353.578 C 35.428 355.463,37.846 357.503,43.587 362.023 C 44.130 362.450,44.783 362.800,45.038 362.800 C 45.293 362.800,45.738 363.085,46.027 363.433 C 46.533 364.042,47.243 364.469,50.633 366.200 C 51.495 366.640,52.438 367.225,52.729 367.500 C 53.019 367.775,53.487 368.000,53.769 368.000 C 54.051 368.000,55.073 368.420,56.040 368.933 C 57.008 369.447,58.340 370.001,59.000 370.165 C 59.660 370.328,60.470 370.694,60.800 370.978 C 61.130 371.262,62.210 371.617,63.200 371.767 C 64.190 371.917,65.402 372.304,65.894 372.626 C 66.386 372.948,67.916 373.324,69.294 373.461 C 70.672 373.599,72.325 373.977,72.966 374.300 C 76.560 376.114,321.794 376.237,325.157 374.426 C 325.683 374.143,327.306 373.761,328.762 373.578 C 330.219 373.395,332.218 372.879,333.205 372.432 C 334.192 371.984,335.455 371.614,336.011 371.609 C 336.567 371.604,337.377 371.354,337.811 371.054 C 338.245 370.754,339.050 370.372,339.600 370.206 C 340.808 369.842,344.764 368.102,345.600 367.568 C 345.930 367.357,346.811 366.904,347.558 366.562 C 348.305 366.220,349.173 365.684,349.487 365.370 C 349.801 365.057,350.305 364.800,350.608 364.800 C 350.911 364.800,351.644 364.350,352.238 363.800 C 352.831 363.250,353.490 362.800,353.701 362.800 C 353.912 362.800,354.650 362.344,355.342 361.786 C 356.582 360.786,357.366 360.175,359.429 358.600 C 360.499 357.784,361.517 356.902,364.000 354.644 C 364.770 353.944,366.570 352.028,368.000 350.386 C 369.430 348.744,370.825 347.256,371.100 347.080 C 371.375 346.904,371.600 346.551,371.600 346.294 C 371.600 346.038,371.959 345.462,372.398 345.014 C 373.765 343.618,375.200 341.703,375.200 341.273 C 375.200 341.047,375.612 340.353,376.116 339.731 C 376.619 339.109,377.249 338.150,377.516 337.600 C 377.783 337.050,378.620 335.520,379.376 334.200 C 380.132 332.880,380.863 331.317,381.001 330.728 C 381.139 330.138,381.510 329.441,381.826 329.179 C 382.142 328.917,382.406 328.319,382.413 327.851 C 382.419 327.383,382.868 326.100,383.409 325.000 C 383.950 323.900,384.394 322.455,384.396 321.789 C 384.398 321.123,384.647 320.223,384.949 319.789 C 385.251 319.355,385.722 317.650,385.995 316.000 C 386.268 314.350,386.696 312.748,386.946 312.439 C 387.239 312.077,387.448 309.088,387.535 303.996 L 387.671 296.113 386.448 293.957 C 383.472 288.709,384.236 288.802,344.080 288.791 C 312.087 288.783,310.526 288.749,308.931 288.025 C 304.896 286.193,304.325 280.918,307.898 278.498 L 309.821 277.197 338.511 276.933 L 367.200 276.669 367.200 271.134 L 367.200 265.600 364.424 265.600 C 362.897 265.600,361.536 265.780,361.400 266.000 C 361.098 266.488,353.733 266.539,353.434 266.055 C 353.317 265.866,351.101 265.611,348.511 265.490 C 345.183 265.334,343.128 265.024,341.510 264.435 C 340.250 263.976,338.810 263.599,338.310 263.599 C 337.809 263.598,336.845 263.259,336.167 262.845 C 335.488 262.431,334.376 261.970,333.694 261.821 C 333.013 261.671,332.241 261.290,331.979 260.974 C 331.717 260.658,331.278 260.400,331.005 260.400 C 330.732 260.400,330.047 260.037,329.483 259.594 C 325.866 256.748,322.527 255.839,321.061 257.300 C 317.467 260.882,311.206 264.461,307.245 265.199 C 302.392 266.103,292.584 265.499,290.514 264.169 C 289.342 263.416,285.672 263.444,283.814 264.220 C 280.476 265.615,267.676 265.632,263.800 264.248 C 262.920 263.933,261.744 263.575,261.186 263.452 C 259.528 263.086,252.759 259.741,252.484 259.152 C 252.361 258.889,248.844 257.144,245.233 255.554 C 239.886 253.200,228.692 254.409,222.989 257.956 C 221.895 258.636,220.280 259.553,219.400 259.992 C 218.520 260.431,217.530 260.952,217.200 261.150 C 215.696 262.054,212.126 263.600,211.543 263.600 C 211.188 263.600,210.218 263.884,209.387 264.231 C 206.063 265.620,192.336 265.620,189.010 264.230 C 188.181 263.884,187.212 263.600,186.857 263.600 C 186.265 263.600,182.625 262.018,181.200 261.142 C 180.870 260.939,179.925 260.482,179.100 260.126 C 178.275 259.770,177.600 259.353,177.600 259.199 C 177.600 258.920,174.512 257.349,170.432 255.554 C 167.182 254.124,156.441 254.118,153.167 255.544 C 149.614 257.091,146.616 258.579,146.365 258.919 C 145.851 259.615,138.805 263.103,137.214 263.448 C 136.656 263.569,135.485 263.937,134.612 264.266 C 131.006 265.624,117.578 265.586,114.282 264.208 C 113.481 263.874,112.507 263.600,112.119 263.600 C 111.484 263.600,107.939 262.080,106.400 261.147 C 106.070 260.947,105.191 260.505,104.446 260.164 C 103.701 259.823,102.621 259.223,102.046 258.829 C 97.148 255.483,94.702 254.776,87.400 254.599 C 84.100 254.519,80.680 254.588,79.800 254.751 M12.100 255.700 C 12.192 255.975,12.507 256.200,12.800 256.200 C 13.093 256.200,13.408 255.975,13.500 255.700 C 13.599 255.403,13.316 255.200,12.800 255.200 C 12.284 255.200,12.001 255.403,12.100 255.700 M13.843 257.369 C 14.207 258.315,15.200 258.475,15.200 257.587 C 15.200 257.071,14.929 256.800,14.413 256.800 C 13.896 256.800,13.700 256.996,13.843 257.369 M390.508 281.170 C 390.542 281.626,390.802 282.000,391.085 282.000 C 391.770 282.000,391.739 281.413,391.023 280.819 C 390.549 280.426,390.456 280.489,390.508 281.170 M5.050 282.683 C 4.924 282.809,4.917 283.066,5.034 283.256 C 5.315 283.710,6.400 283.700,6.400 283.243 C 6.400 282.801,5.362 282.371,5.050 282.683 M304.394 283.997 C 304.801 284.215,305.249 284.912,305.388 285.546 C 305.650 286.738,306.529 287.691,308.600 289.026 C 309.757 289.773,311.065 289.807,345.400 290.000 L 381.000 290.200 382.600 291.396 C 384.673 292.944,385.600 293.975,385.600 294.730 C 385.600 295.064,385.915 295.687,386.300 296.116 C 387.208 297.126,387.194 305.362,386.279 309.000 C 385.946 310.320,385.557 312.480,385.414 313.800 C 385.270 315.120,384.875 316.806,384.536 317.546 C 384.196 318.287,383.792 319.817,383.637 320.946 C 383.483 322.076,383.064 323.450,382.708 324.000 C 382.351 324.550,381.928 325.720,381.767 326.600 C 381.606 327.480,381.246 328.380,380.966 328.600 C 380.687 328.820,380.263 329.744,380.026 330.653 C 379.789 331.563,379.326 332.530,378.997 332.802 C 378.669 333.075,378.400 333.608,378.400 333.987 C 378.400 334.366,377.950 335.199,377.400 335.838 C 376.851 336.477,376.401 337.405,376.400 337.900 C 376.400 338.395,376.226 338.800,376.014 338.800 C 375.697 338.800,373.129 342.333,371.400 345.149 C 370.978 345.835,368.736 348.294,365.395 351.735 C 362.830 354.376,358.416 358.312,356.575 359.600 C 355.788 360.150,354.636 361.005,354.015 361.500 C 353.393 361.995,352.713 362.400,352.504 362.400 C 352.295 362.400,351.807 362.750,351.421 363.177 C 351.034 363.605,350.211 364.066,349.592 364.202 C 348.973 364.338,348.374 364.691,348.260 364.987 C 348.147 365.283,347.521 365.642,346.869 365.785 C 346.216 365.928,345.366 366.395,344.979 366.823 C 344.593 367.250,343.936 367.600,343.520 367.600 C 343.104 367.600,341.918 368.050,340.885 368.600 C 339.852 369.150,338.622 369.600,338.152 369.600 C 337.682 369.600,337.081 369.861,336.816 370.180 C 336.551 370.500,335.494 370.880,334.467 371.025 C 333.440 371.170,331.812 371.629,330.849 372.044 C 329.886 372.460,328.500 372.800,327.769 372.800 C 325.943 372.800,322.321 373.596,321.639 374.147 C 320.926 374.722,85.739 375.016,80.200 374.449 C 78.220 374.246,75.340 373.792,73.800 373.440 C 72.260 373.088,70.496 372.800,69.880 372.800 C 69.264 372.800,68.238 372.530,67.600 372.200 C 66.962 371.870,65.486 371.397,64.320 371.148 C 63.154 370.900,61.845 370.450,61.411 370.148 C 60.977 369.847,60.346 369.600,60.008 369.600 C 59.670 369.600,58.548 369.150,57.515 368.600 C 56.482 368.050,55.366 367.600,55.036 367.600 C 54.706 367.600,53.772 367.150,52.962 366.600 C 52.151 366.050,51.243 365.600,50.944 365.600 C 50.645 365.600,50.400 365.447,50.400 365.261 C 50.400 365.074,49.680 364.597,48.800 364.200 C 47.920 363.803,47.200 363.338,47.200 363.166 C 47.200 362.994,46.795 362.726,46.300 362.571 C 45.805 362.415,44.950 361.943,44.400 361.522 C 43.850 361.101,42.680 360.220,41.800 359.563 C 37.104 356.059,31.009 350.081,27.575 345.610 C 26.819 344.625,25.975 343.577,25.700 343.281 C 25.425 342.985,25.200 342.487,25.200 342.175 C 25.200 341.862,24.840 341.382,24.400 341.107 C 23.960 340.832,23.600 340.388,23.600 340.119 C 23.600 339.851,23.262 339.309,22.850 338.916 C 22.437 338.522,21.962 337.750,21.795 337.200 C 21.627 336.650,21.155 335.771,20.745 335.246 C 20.335 334.721,20.000 334.071,20.000 333.800 C 20.000 333.529,19.640 332.850,19.200 332.291 C 18.760 331.731,18.400 331.050,18.400 330.777 C 18.400 330.504,17.973 329.362,17.450 328.240 C 16.240 325.641,15.673 324.039,14.812 320.787 C 14.432 319.350,13.934 317.820,13.706 317.387 C 13.478 316.954,13.171 315.430,13.023 314.000 C 12.875 312.570,12.473 309.960,12.130 308.200 C 11.377 304.347,11.210 297.567,11.848 296.764 C 12.094 296.454,12.507 295.570,12.765 294.800 C 13.068 293.895,13.967 292.834,15.307 291.800 L 17.379 290.200 151.390 290.000 C 297.468 289.782,287.402 289.934,288.321 287.937 C 288.388 287.792,288.806 287.255,289.250 286.742 C 289.694 286.230,290.157 285.313,290.279 284.705 L 290.500 283.600 297.076 283.600 C 300.693 283.600,303.986 283.779,304.394 283.997 M393.600 284.829 C 393.600 285.352,393.822 285.467,394.490 285.292 C 394.979 285.164,395.158 284.986,394.887 284.896 C 394.616 284.805,394.478 284.597,394.580 284.433 C 394.682 284.268,394.503 284.133,394.182 284.133 C 393.862 284.133,393.600 284.446,393.600 284.829 M397.426 289.878 C 397.278 290.262,397.286 290.448,397.442 290.291 C 397.598 290.135,397.968 290.207,398.263 290.452 C 398.591 290.724,398.800 290.742,398.800 290.498 C 398.800 289.637,397.707 289.144,397.426 289.878 M0.000 314.400 C 0.000 314.840,0.180 315.200,0.400 315.200 C 0.620 315.200,0.800 314.840,0.800 314.400 C 0.800 313.960,0.620 313.600,0.400 313.600 C 0.180 313.600,0.000 313.960,0.000 314.400 M397.200 316.237 C 397.200 317.388,398.217 317.541,398.507 316.435 C 398.642 315.916,398.464 315.605,397.954 315.472 C 397.370 315.319,397.200 315.492,397.200 316.237 M35.200 370.951 C 35.200 371.034,35.470 371.326,35.800 371.600 C 36.291 372.008,36.400 371.980,36.400 371.449 C 36.400 371.092,36.130 370.800,35.800 370.800 C 35.470 370.800,35.200 370.868,35.200 370.951 M361.600 371.376 C 361.600 372.305,362.201 372.411,362.723 371.574 C 363.141 370.905,363.098 370.800,362.403 370.800 C 361.962 370.800,361.600 371.059,361.600 371.376 M40.528 374.986 C 40.740 375.621,42.000 375.731,42.000 375.115 C 42.000 374.816,41.638 374.571,41.195 374.571 C 40.753 374.571,40.453 374.758,40.528 374.986 M345.660 379.980 C 345.748 380.244,345.950 380.447,346.110 380.430 C 346.588 380.381,346.496 379.832,345.980 379.660 C 345.716 379.572,345.572 379.716,345.660 379.980 " stroke="none" fill="#bf383c" fill-rule="evenodd"></path><path id="path3" d="M219.000 12.800 C 218.850 13.042,219.404 13.200,220.400 13.200 C 221.396 13.200,221.950 13.042,221.800 12.800 C 221.664 12.580,221.034 12.400,220.400 12.400 C 219.766 12.400,219.136 12.580,219.000 12.800 M64.300 48.230 C 64.135 48.397,64.000 49.043,64.000 49.667 C 64.000 50.290,63.820 50.800,63.600 50.800 C 63.380 50.800,63.200 51.160,63.200 51.600 C 63.200 52.226,63.467 52.400,64.424 52.400 C 65.303 52.400,65.559 52.259,65.334 51.900 C 65.162 51.625,64.926 50.619,64.810 49.663 C 64.695 48.708,64.465 48.063,64.300 48.230 M61.390 53.230 C 61.246 53.687,61.233 54.167,61.363 54.297 C 61.494 54.427,61.600 54.298,61.600 54.011 C 61.600 53.723,61.915 53.249,62.300 52.957 C 62.943 52.469,62.945 52.424,62.327 52.413 C 61.957 52.406,61.535 52.774,61.390 53.230 M58.267 54.667 C 58.120 54.813,58.000 55.173,58.000 55.467 C 58.000 56.316,59.484 56.085,59.716 55.200 C 59.923 54.408,58.901 54.032,58.267 54.667 M56.248 56.323 C 56.109 56.548,56.221 56.817,56.498 56.920 C 56.797 57.032,56.595 57.279,56.000 57.529 C 55.329 57.811,55.223 57.958,55.676 57.975 C 56.048 57.989,56.476 57.801,56.626 57.557 C 56.817 57.249,57.004 57.279,57.244 57.657 C 57.575 58.181,57.600 58.135,57.600 57.000 C 57.600 56.890,57.485 56.815,57.345 56.834 C 57.204 56.853,56.957 56.654,56.795 56.391 C 56.603 56.081,56.412 56.057,56.248 56.323 M53.067 58.267 C 52.485 58.849,52.850 59.600,53.715 59.600 C 54.343 59.600,54.649 59.349,54.690 58.800 C 54.749 58.017,53.671 57.663,53.067 58.267 M384.800 101.635 C 384.800 102.163,385.078 102.398,385.700 102.394 C 386.428 102.389,386.485 102.314,386.000 102.000 C 385.506 101.681,385.500 101.611,385.967 101.606 C 386.664 101.599,386.199 101.076,385.388 100.957 C 385.046 100.907,384.800 101.190,384.800 101.635 M387.067 104.667 C 386.592 105.141,386.784 106.000,387.365 106.000 C 387.675 106.000,387.890 105.735,387.843 105.412 C 387.731 104.647,387.402 104.331,387.067 104.667 M5.266 119.321 C 4.946 119.706,5.035 119.847,5.620 119.892 C 6.419 119.952,6.681 119.421,6.045 119.028 C 5.850 118.907,5.499 119.039,5.266 119.321 M397.200 138.753 C 397.200 139.244,397.557 139.575,398.221 139.702 L 399.243 139.897 398.352 138.949 C 397.277 137.804,397.200 137.791,397.200 138.753 M397.200 165.200 C 397.200 165.717,397.467 166.000,397.953 166.000 C 398.370 166.000,398.800 165.643,398.916 165.200 C 399.082 164.564,398.928 164.400,398.163 164.400 C 397.467 164.400,397.200 164.622,397.200 165.200 M10.492 175.675 C 10.739 176.417,11.600 176.540,11.600 175.833 C 11.600 175.485,11.315 175.200,10.967 175.200 C 10.618 175.200,10.405 175.414,10.492 175.675 M10.639 199.138 C 10.500 199.361,10.582 199.665,10.820 199.812 C 11.435 200.193,11.832 199.672,11.318 199.158 C 11.031 198.871,10.807 198.864,10.639 199.138 M390.400 209.849 C 390.400 212.915,390.469 213.241,391.018 212.785 C 391.358 212.503,391.544 212.031,391.431 211.736 C 391.318 211.441,391.399 211.200,391.613 211.200 C 391.826 211.200,392.000 210.750,392.000 210.200 C 392.000 209.650,391.809 209.200,391.576 209.200 C 391.343 209.200,391.269 209.012,391.411 208.782 C 391.553 208.553,391.428 208.068,391.134 207.706 C 390.678 207.143,390.688 207.098,391.200 207.400 C 391.718 207.705,391.725 207.661,391.251 207.077 C 390.424 206.057,390.400 206.135,390.400 209.849 M8.157 218.233 C 8.291 218.581,8.400 218.947,8.400 219.047 C 8.400 219.147,8.760 219.035,9.200 218.800 C 10.319 218.201,10.197 217.600,8.957 217.600 C 8.171 217.600,7.974 217.755,8.157 218.233 M10.090 222.895 C 10.270 225.466,11.600 225.584,11.600 223.029 C 11.600 221.456,11.486 221.200,10.786 221.200 C 10.076 221.200,9.987 221.418,10.090 222.895 M22.709 230.009 C 17.745 233.031,17.634 244.052,22.528 248.000 C 24.744 249.788,25.597 250.337,27.600 251.266 C 33.475 253.991,46.552 254.980,51.400 253.067 C 52.280 252.719,53.543 252.427,54.206 252.418 C 54.869 252.408,56.084 252.040,56.904 251.600 C 57.725 251.160,58.623 250.799,58.899 250.798 C 59.174 250.796,59.940 250.505,60.600 250.151 C 65.356 247.597,70.159 245.200,70.518 245.200 C 70.754 245.200,71.679 244.868,72.574 244.463 C 78.067 241.974,94.395 241.825,99.800 244.215 C 104.373 246.236,109.355 248.854,110.359 249.763 C 110.746 250.113,111.231 250.400,111.437 250.400 C 111.643 250.400,112.529 250.788,113.406 251.262 C 118.402 253.962,130.142 254.117,134.723 251.543 C 135.450 251.134,136.281 250.800,136.569 250.800 C 136.857 250.800,137.568 250.426,138.150 249.968 C 139.621 248.811,144.229 246.340,148.000 244.686 C 153.797 242.144,169.766 241.844,174.400 244.190 C 174.950 244.469,176.120 244.923,177.000 245.201 C 177.880 245.478,178.827 245.885,179.104 246.105 C 179.826 246.677,181.993 247.919,183.432 248.584 C 184.109 248.898,184.896 249.434,185.181 249.777 C 185.465 250.120,185.908 250.400,186.164 250.400 C 186.421 250.400,187.344 250.777,188.215 251.237 C 191.936 253.203,199.359 254.018,204.200 252.993 C 205.740 252.667,207.332 252.400,207.738 252.400 C 208.144 252.400,208.954 252.064,209.538 251.652 C 210.122 251.241,211.050 250.770,211.600 250.605 C 212.150 250.440,212.894 250.048,213.252 249.734 C 213.611 249.420,214.511 248.842,215.252 248.449 C 215.994 248.057,217.500 247.245,218.600 246.644 C 229.498 240.689,244.397 240.949,255.688 247.290 C 257.166 248.121,258.533 248.800,258.726 248.800 C 258.918 248.800,259.387 249.144,259.767 249.564 C 260.148 249.984,260.930 250.446,261.505 250.591 C 262.080 250.735,263.040 251.201,263.637 251.627 C 264.235 252.052,265.056 252.400,265.462 252.400 C 265.868 252.400,267.460 252.667,269.000 252.993 C 272.577 253.751,274.656 253.794,274.092 253.100 C 273.869 252.825,273.622 252.297,273.543 251.926 C 273.464 251.556,271.150 249.418,268.400 247.176 C 265.650 244.933,262.402 242.176,261.183 241.049 C 259.964 239.922,258.074 238.291,256.983 237.425 C 255.892 236.559,254.706 235.569,254.346 235.225 C 252.318 233.286,249.806 231.350,248.871 231.005 C 248.182 230.752,208.239 230.524,137.000 230.366 C 76.060 230.232,25.570 230.002,24.800 229.855 C 24.017 229.706,23.095 229.774,22.709 230.009 M372.800 230.000 C 372.250 230.176,366.874 230.338,360.854 230.360 C 346.423 230.413,347.930 229.832,338.690 238.902 L 331.454 246.004 332.571 247.170 C 333.185 247.811,334.152 248.452,334.719 248.594 C 335.287 248.737,336.212 249.179,336.776 249.577 C 337.339 249.975,338.367 250.423,339.061 250.573 C 339.754 250.724,341.008 251.196,341.846 251.623 C 342.684 252.050,343.957 252.400,344.676 252.400 C 345.396 252.400,346.752 252.713,347.692 253.096 C 350.193 254.116,362.223 254.119,364.708 253.100 C 365.648 252.715,366.908 252.399,367.508 252.399 C 368.109 252.398,369.152 252.060,369.828 251.648 C 370.503 251.237,371.493 250.765,372.028 250.599 C 374.273 249.905,378.074 245.772,378.912 243.114 C 380.410 238.362,378.519 231.548,375.281 230.031 C 374.257 229.550,374.206 229.550,372.800 230.000 M6.533 231.847 C 6.533 232.189,6.770 232.344,7.099 232.217 C 7.411 232.098,7.741 232.000,7.833 232.000 C 8.395 232.000,7.866 231.360,7.267 231.315 C 6.863 231.285,6.533 231.524,6.533 231.847 M6.413 246.385 C 6.443 246.893,7.502 247.965,7.740 247.727 C 8.338 247.128,7.979 246.051,7.200 246.110 C 6.760 246.143,6.406 246.267,6.413 246.385 M10.110 254.000 C 10.146 254.479,10.457 254.800,10.885 254.800 C 11.333 254.800,11.600 254.502,11.600 254.000 C 11.600 253.475,11.333 253.200,10.825 253.200 C 10.296 253.200,10.069 253.454,10.110 254.000 M17.200 261.000 C 17.200 261.330,17.275 261.600,17.367 261.600 C 17.459 261.600,17.819 261.709,18.167 261.843 C 18.621 262.017,18.800 261.847,18.800 261.243 C 18.800 260.667,18.547 260.400,18.000 260.400 C 17.556 260.400,17.200 260.667,17.200 261.000 M379.600 261.033 C 379.600 261.382,379.814 261.595,380.075 261.508 C 380.817 261.261,380.940 260.400,380.233 260.400 C 379.885 260.400,379.600 260.685,379.600 261.033 M17.200 275.167 C 17.200 275.369,17.106 275.780,16.991 276.079 C 16.853 276.440,17.123 276.652,17.791 276.708 C 18.622 276.776,18.800 276.615,18.800 275.796 C 18.800 275.067,18.586 274.800,18.000 274.800 C 17.560 274.800,17.200 274.965,17.200 275.167 M397.307 289.955 C 397.342 290.420,397.624 290.800,397.934 290.800 C 398.409 290.800,398.413 290.689,397.962 290.100 C 397.667 289.715,397.385 289.335,397.335 289.255 C 397.284 289.175,397.272 289.490,397.307 289.955 M368.897 366.174 C 368.852 366.766,368.927 366.841,369.170 366.448 C 369.355 366.150,369.750 365.755,370.048 365.570 C 370.441 365.327,370.366 365.252,369.774 365.297 C 369.263 365.335,368.935 365.663,368.897 366.174 " stroke="none" fill="#a0e053" fill-rule="evenodd"></path></g></svg>