<svg id="svg" version="1.1" xmlns="http://www.w3.org/2000/svg" xmlns:xlink="http://www.w3.org/1999/xlink" width="400" height="400" viewBox="0, 0, 400,400"><g id="svgg"><path id="path0" d="M184.600 12.845 C 174.890 13.870,166.208 15.161,161.000 16.353 C 160.120 16.554,158.500 16.915,157.400 17.155 C 155.008 17.675,153.573 18.049,149.600 19.187 C 147.950 19.659,146.001 20.200,145.268 20.388 C 144.536 20.576,143.831 20.836,143.702 20.965 C 143.195 21.472,144.874 21.147,148.823 19.974 C 151.094 19.299,153.772 18.571,154.775 18.354 C 155.779 18.138,157.320 17.789,158.200 17.578 C 161.440 16.803,163.672 16.363,170.300 15.194 C 184.766 12.644,206.747 12.303,224.000 14.361 C 232.076 15.324,243.261 17.643,251.500 20.063 C 253.754 20.725,255.824 21.190,256.100 21.095 C 256.579 20.931,255.001 20.402,249.800 18.985 C 245.693 17.865,244.663 17.604,242.600 17.155 C 241.500 16.915,239.880 16.557,239.000 16.359 C 232.590 14.914,226.633 14.041,214.732 12.802 C 210.176 12.328,189.210 12.358,184.600 12.845 M140.478 21.895 C 139.531 22.222,138.855 22.589,138.976 22.709 C 139.229 22.962,142.411 22.025,142.980 21.530 C 143.531 21.051,142.480 21.204,140.478 21.895 M257.020 21.530 C 257.581 22.019,260.769 22.964,261.018 22.716 C 261.135 22.598,260.335 22.209,259.240 21.851 C 257.015 21.123,256.460 21.043,257.020 21.530 M136.800 23.200 C 136.312 23.515,136.364 23.589,137.076 23.594 C 137.558 23.597,138.064 23.420,138.200 23.200 C 138.515 22.691,137.588 22.691,136.800 23.200 M261.800 23.200 C 261.936 23.420,262.442 23.597,262.924 23.594 C 263.636 23.589,263.688 23.515,263.200 23.200 C 262.412 22.691,261.485 22.691,261.800 23.200 M130.200 25.770 C 86.958 43.519,53.327 74.437,32.272 115.800 C 28.742 122.733,23.352 135.486,23.773 135.907 C 23.888 136.021,24.092 135.774,24.227 135.357 C 24.362 134.941,24.660 134.150,24.890 133.600 C 25.332 132.541,25.855 131.242,26.500 129.600 C 26.716 129.050,27.052 128.287,27.247 127.905 C 27.441 127.523,27.600 126.938,27.600 126.605 C 27.600 126.272,27.780 126.000,28.000 126.000 C 28.220 126.000,28.400 125.755,28.400 125.456 C 28.400 125.157,28.918 123.852,29.552 122.556 C 30.186 121.260,31.309 118.940,32.049 117.400 C 34.018 113.300,39.448 103.510,40.847 101.538 C 41.261 100.954,41.600 100.279,41.600 100.038 C 41.600 99.797,41.780 99.600,42.000 99.600 C 42.220 99.600,42.400 99.330,42.400 99.000 C 42.400 98.670,42.580 98.400,42.800 98.400 C 43.020 98.400,43.200 98.130,43.200 97.800 C 43.200 97.470,43.380 97.200,43.600 97.200 C 43.820 97.200,44.000 96.930,44.000 96.600 C 44.000 96.270,44.180 96.000,44.400 96.000 C 44.620 96.000,44.800 95.812,44.800 95.583 C 44.800 95.354,45.160 94.780,45.600 94.308 C 46.040 93.836,46.400 93.213,46.400 92.925 C 46.400 92.636,46.541 92.400,46.714 92.400 C 46.886 92.400,47.343 91.867,47.728 91.215 C 48.113 90.563,48.648 89.798,48.916 89.515 C 49.185 89.232,50.483 87.560,51.802 85.800 C 53.121 84.040,54.292 82.510,54.405 82.400 C 54.519 82.290,55.419 81.215,56.405 80.011 C 61.849 73.373,73.373 61.849,80.011 56.405 C 81.215 55.419,82.290 54.519,82.400 54.405 C 82.510 54.292,84.040 53.121,85.800 51.802 C 87.560 50.483,89.232 49.185,89.515 48.916 C 89.798 48.648,90.563 48.113,91.215 47.728 C 91.867 47.343,92.400 46.886,92.400 46.714 C 92.400 46.541,92.636 46.400,92.925 46.400 C 93.213 46.400,93.836 46.040,94.308 45.600 C 94.780 45.160,95.354 44.800,95.583 44.800 C 95.812 44.800,96.000 44.620,96.000 44.400 C 96.000 44.180,96.270 44.000,96.600 44.000 C 96.930 44.000,97.200 43.820,97.200 43.600 C 97.200 43.380,97.470 43.200,97.800 43.200 C 98.130 43.200,98.400 43.020,98.400 42.800 C 98.400 42.580,98.670 42.400,99.000 42.400 C 99.330 42.400,99.600 42.220,99.600 42.000 C 99.600 41.780,99.797 41.600,100.038 41.600 C 100.279 41.600,100.954 41.261,101.538 40.847 C 103.510 39.448,113.300 34.018,117.400 32.049 C 118.940 31.309,121.260 30.186,122.556 29.552 C 123.852 28.918,125.157 28.400,125.456 28.400 C 125.755 28.400,126.000 28.220,126.000 28.000 C 126.000 27.780,126.272 27.600,126.605 27.600 C 126.938 27.600,127.523 27.441,127.905 27.247 C 128.287 27.052,129.095 26.692,129.700 26.447 C 130.305 26.201,131.295 25.799,131.900 25.553 C 132.505 25.308,133.313 24.948,133.695 24.753 C 134.077 24.559,134.651 24.400,134.971 24.400 C 135.291 24.400,135.664 24.220,135.800 24.000 C 136.197 23.357,135.680 23.521,130.200 25.770 M264.200 24.000 C 264.336 24.220,264.709 24.400,265.029 24.400 C 265.349 24.400,265.923 24.559,266.305 24.753 C 267.021 25.117,268.646 25.811,270.400 26.500 C 270.950 26.716,271.713 27.052,272.095 27.247 C 272.477 27.441,273.062 27.600,273.395 27.600 C 273.728 27.600,274.000 27.780,274.000 28.000 C 274.000 28.220,274.253 28.400,274.562 28.400 C 275.186 28.400,275.572 28.581,284.398 33.004 C 287.808 34.713,291.741 36.806,293.139 37.655 C 294.538 38.505,295.766 39.200,295.869 39.200 C 295.972 39.200,296.841 39.740,297.800 40.400 C 298.759 41.060,299.737 41.600,299.972 41.600 C 300.207 41.600,300.400 41.780,300.400 42.000 C 300.400 42.220,300.670 42.400,301.000 42.400 C 301.330 42.400,301.600 42.536,301.600 42.702 C 301.600 42.869,302.095 43.226,302.700 43.497 C 303.305 43.768,304.430 44.531,305.200 45.194 C 305.970 45.856,306.825 46.399,307.100 46.399 C 307.375 46.400,307.600 46.541,307.600 46.714 C 307.600 46.886,308.095 47.324,308.700 47.687 C 309.305 48.050,310.160 48.625,310.600 48.965 C 311.040 49.305,312.639 50.532,314.154 51.692 C 316.908 53.801,318.501 55.104,323.000 58.932 C 327.747 62.971,340.603 76.138,343.994 80.433 C 344.761 81.405,345.608 82.470,345.876 82.800 C 348.270 85.750,350.701 88.908,351.726 90.400 C 352.406 91.390,353.196 92.438,353.481 92.729 C 353.766 93.019,354.000 93.396,354.000 93.566 C 354.000 93.736,354.453 94.399,355.006 95.038 C 355.559 95.677,356.233 96.695,356.503 97.300 C 356.774 97.905,357.131 98.400,357.298 98.400 C 357.464 98.400,357.600 98.670,357.600 99.000 C 357.600 99.330,357.780 99.600,358.000 99.600 C 358.220 99.600,358.400 99.870,358.400 100.200 C 358.400 100.530,358.580 100.800,358.800 100.800 C 359.020 100.800,359.200 101.070,359.200 101.400 C 359.200 101.730,359.346 102.000,359.525 102.000 C 359.704 102.000,360.098 102.630,360.400 103.400 C 360.702 104.170,361.096 104.800,361.275 104.800 C 361.454 104.800,361.600 104.972,361.600 105.182 C 361.600 105.393,362.164 106.518,362.853 107.682 C 363.542 108.847,365.447 112.500,367.088 115.800 C 368.728 119.100,370.234 122.113,370.435 122.495 C 371.506 124.532,370.534 124.133,368.700 121.781 C 366.588 119.074,362.415 113.973,362.008 113.600 C 361.887 113.490,360.441 111.892,358.794 110.048 C 355.537 106.402,347.444 98.367,345.200 96.550 C 344.430 95.926,343.530 95.142,343.199 94.808 C 339.450 91.012,320.305 77.230,315.400 74.797 C 314.740 74.469,314.110 74.111,314.000 74.001 C 313.890 73.890,313.440 73.605,313.000 73.366 C 312.560 73.128,310.814 72.179,309.119 71.258 L 306.039 69.584 304.119 71.965 C 303.022 73.325,301.869 74.356,301.428 74.372 C 300.783 74.395,295.882 71.020,294.085 69.316 C 293.802 69.048,293.037 68.513,292.385 68.128 C 291.733 67.743,291.200 67.286,291.200 67.114 C 291.200 66.941,290.975 66.800,290.700 66.799 C 290.425 66.799,289.570 66.259,288.800 65.600 C 288.030 64.941,287.257 64.401,287.083 64.401 C 286.909 64.400,286.380 64.040,285.908 63.600 C 285.436 63.160,284.813 62.800,284.525 62.800 C 284.236 62.800,284.000 62.620,284.000 62.400 C 284.000 62.180,283.807 62.000,283.572 62.000 C 283.337 62.000,282.359 61.460,281.400 60.800 C 280.441 60.140,279.463 59.600,279.228 59.600 C 278.993 59.600,278.800 59.465,278.800 59.299 C 278.800 58.902,274.332 56.803,272.467 56.324 C 262.388 53.734,258.611 52.917,250.800 51.640 C 239.680 49.822,225.660 49.064,212.649 49.577 C 203.131 49.953,204.000 50.256,204.000 46.566 L 204.000 43.580 197.700 43.690 L 191.400 43.800 191.286 47.696 C 191.156 52.099,191.568 51.649,187.000 52.373 C 183.735 52.890,176.188 54.582,172.600 55.601 C 171.720 55.851,170.550 56.147,170.000 56.258 C 169.450 56.369,168.640 56.605,168.200 56.782 C 167.760 56.960,166.050 57.508,164.400 58.000 C 161.350 58.910,159.951 59.413,158.705 60.047 C 158.323 60.241,157.736 60.400,157.400 60.400 C 157.064 60.400,156.477 60.559,156.095 60.753 C 155.341 61.137,154.685 61.409,150.300 63.159 C 146.056 64.853,134.032 70.606,130.355 72.701 C 129.560 73.154,128.480 73.767,127.955 74.062 C 127.430 74.358,126.910 74.690,126.800 74.800 C 126.404 75.196,124.185 76.454,123.500 76.671 C 123.115 76.793,122.800 77.052,122.800 77.247 C 122.800 77.441,122.564 77.600,122.275 77.600 C 121.987 77.600,121.394 77.915,120.958 78.300 C 120.523 78.685,119.671 79.281,119.066 79.625 C 117.433 80.552,106.994 88.091,106.400 88.773 C 106.290 88.899,105.210 89.755,104.000 90.675 C 102.790 91.595,101.434 92.675,100.986 93.074 C 100.539 93.473,98.649 95.150,96.786 96.800 C 89.259 103.468,78.863 114.594,74.000 121.187 C 73.450 121.933,72.626 123.006,72.170 123.571 C 71.713 124.137,70.769 125.442,70.071 126.470 C 68.090 129.391,67.778 129.600,65.395 129.600 C 62.696 129.600,62.646 129.686,62.393 134.719 C 62.279 136.984,62.009 138.964,61.793 139.119 C 61.577 139.274,61.158 139.830,60.862 140.355 C 60.567 140.880,59.982 141.915,59.562 142.655 C 59.143 143.395,58.424 144.664,57.965 145.475 C 55.527 149.779,49.701 162.071,48.425 165.600 C 47.433 168.346,46.551 170.519,45.953 171.695 C 45.759 172.077,45.600 172.716,45.600 173.115 C 45.600 173.514,45.452 174.011,45.272 174.220 C 45.092 174.429,44.533 175.950,44.031 177.600 C 43.529 179.250,42.956 180.913,42.759 181.295 C 42.562 181.677,42.400 182.431,42.400 182.971 C 42.400 183.511,42.220 184.064,42.000 184.200 C 41.780 184.336,41.600 184.966,41.600 185.600 C 41.600 186.234,41.440 186.852,41.244 186.973 C 41.049 187.094,40.792 187.779,40.674 188.496 C 40.475 189.711,40.081 191.481,39.136 195.400 C 37.283 203.086,35.937 213.317,35.163 225.602 C 34.326 238.881,35.790 259.657,38.419 271.800 C 38.609 272.680,38.969 274.390,39.218 275.600 C 39.467 276.810,39.843 278.610,40.053 279.600 C 40.264 280.590,40.539 281.897,40.664 282.505 C 40.790 283.113,41.051 283.708,41.246 283.829 C 41.441 283.949,41.600 284.566,41.600 285.200 C 41.600 285.834,41.780 286.464,42.000 286.600 C 42.220 286.736,42.400 287.289,42.400 287.829 C 42.400 288.369,42.562 289.123,42.761 289.505 C 42.960 289.887,43.340 291.010,43.607 292.000 C 43.874 292.990,44.270 294.340,44.487 295.000 C 44.857 296.126,45.062 296.668,45.964 298.900 C 46.915 301.254,46.925 301.245,44.483 300.166 C 40.476 298.396,40.894 298.877,36.492 291.000 C 34.099 286.718,29.256 276.895,27.914 273.600 C 27.690 273.050,27.348 272.287,27.153 271.905 C 26.959 271.523,26.800 270.938,26.800 270.605 C 26.800 270.272,26.620 270.000,26.400 270.000 C 26.180 270.000,26.000 269.550,26.000 269.000 C 26.000 268.450,25.820 268.000,25.600 268.000 C 25.380 268.000,25.200 267.752,25.200 267.449 C 25.200 266.700,23.998 263.869,23.774 264.092 C 23.498 264.369,27.427 274.070,29.894 279.200 C 33.520 286.742,34.156 287.967,37.269 293.397 L 40.249 298.595 43.029 300.018 C 47.975 302.549,50.883 304.847,57.200 311.212 C 68.221 322.319,77.563 325.175,90.626 321.432 C 102.080 318.149,102.854 318.000,108.460 318.000 C 120.051 318.000,129.675 321.109,138.400 327.673 C 151.330 337.400,161.719 338.477,176.236 331.596 C 185.645 327.137,189.590 326.233,199.600 326.244 C 209.770 326.256,212.854 326.944,222.600 331.377 C 224.360 332.178,226.160 332.997,226.600 333.196 C 229.680 334.595,231.681 334.958,237.173 335.114 C 247.105 335.396,251.217 334.133,261.008 327.793 C 264.988 325.215,269.001 323.124,272.414 321.849 C 274.901 320.920,276.107 320.627,282.600 319.380 C 286.516 318.628,296.680 318.644,300.200 319.408 C 305.606 320.581,306.622 320.804,309.200 321.386 C 318.885 323.570,332.964 319.793,340.200 313.069 C 345.084 308.530,350.920 304.259,355.112 302.155 L 358.490 300.460 361.319 295.730 C 368.245 284.153,374.170 271.121,378.293 258.400 C 379.398 254.990,380.517 251.390,380.778 250.400 C 381.040 249.410,381.404 248.060,381.588 247.400 C 382.288 244.877,383.557 239.292,383.996 236.800 C 384.248 235.370,384.612 233.480,384.806 232.600 C 385.317 230.277,385.887 226.366,386.378 221.800 C 386.615 219.600,386.986 216.180,387.203 214.200 C 388.623 201.247,387.216 178.860,383.961 162.600 C 371.576 100.728,327.925 48.798,268.492 25.229 C 264.036 23.462,263.831 23.403,264.200 24.000 M203.112 44.737 C 203.496 44.981,203.597 46.365,203.512 50.231 L 203.400 55.400 197.500 55.511 L 191.600 55.621 191.600 50.277 C 191.600 47.338,191.720 44.813,191.867 44.667 C 192.249 44.284,202.500 44.349,203.112 44.737 M113.467 49.867 C 113.320 50.013,113.200 52.898,113.200 56.277 L 113.200 62.420 119.500 62.310 L 125.800 62.200 125.910 56.149 C 126.019 50.150,126.013 50.097,125.110 49.855 C 123.872 49.523,113.800 49.533,113.467 49.867 M125.200 56.000 L 125.200 61.600 119.400 61.600 L 113.600 61.600 113.600 56.000 L 113.600 50.400 119.400 50.400 L 125.200 50.400 125.200 56.000 M320.711 89.500 L 320.822 95.200 315.011 95.200 L 309.200 95.200 309.200 89.667 C 309.200 82.978,308.623 83.555,315.177 83.689 L 320.600 83.800 320.711 89.500 M253.000 92.600 L 253.000 98.200 247.300 98.311 L 241.600 98.422 241.600 92.600 L 241.600 86.778 247.300 86.889 L 253.000 87.000 253.000 92.600 M152.200 109.000 L 152.200 114.600 146.500 114.711 L 140.800 114.822 140.800 109.000 L 140.800 103.178 146.500 103.289 L 152.200 103.400 152.200 109.000 M212.144 120.348 C 268.612 129.224,298.586 193.319,268.901 241.716 C 231.537 302.631,138.884 288.440,121.839 219.192 C 110.614 173.584,142.429 126.203,188.173 120.403 C 189.910 120.183,191.433 119.900,191.558 119.775 C 191.932 119.401,209.173 119.881,212.144 120.348 M74.800 136.000 L 74.800 141.600 69.200 141.600 L 63.600 141.600 63.600 136.000 L 63.600 130.400 69.200 130.400 L 74.800 130.400 74.800 136.000 M23.088 136.933 C 22.642 138.066,22.715 138.645,23.238 138.122 C 23.478 137.882,23.608 137.351,23.526 136.942 C 23.382 136.226,23.366 136.226,23.088 136.933 M21.850 140.762 C 21.468 141.932,21.251 142.984,21.368 143.101 C 21.485 143.219,21.692 142.974,21.828 142.557 C 21.964 142.141,22.256 141.314,22.478 140.720 C 22.699 140.127,22.805 139.415,22.713 139.139 C 22.621 138.863,22.233 139.593,21.850 140.762 M20.617 144.600 C 20.462 145.260,20.173 146.250,19.975 146.800 C 19.655 147.691,19.196 149.329,17.960 154.000 C 17.757 154.770,17.394 156.300,17.155 157.400 C 16.915 158.500,16.554 160.120,16.353 161.000 C 15.106 166.448,13.875 174.852,12.800 185.268 C 12.298 190.124,12.276 210.554,12.768 214.471 C 12.970 216.082,13.350 219.380,13.612 221.800 C 14.124 226.536,15.221 233.402,16.361 239.000 C 17.765 245.892,22.387 261.840,22.704 260.888 C 22.777 260.668,22.278 258.804,21.595 256.745 C 20.913 254.685,19.807 250.840,19.139 248.200 C 17.111 240.185,17.129 240.264,16.000 234.000 C 15.742 232.570,15.360 230.500,15.151 229.400 C 14.942 228.300,14.608 225.870,14.409 224.000 C 14.211 222.130,13.819 218.440,13.539 215.800 C 12.330 204.401,13.149 181.901,15.194 170.300 C 16.367 163.652,16.810 161.404,17.580 158.200 C 17.791 157.320,18.078 156.060,18.218 155.400 C 18.357 154.740,19.100 151.995,19.869 149.300 C 20.638 146.605,21.184 144.175,21.083 143.900 C 20.981 143.625,20.772 143.940,20.617 144.600 M304.000 166.000 L 304.000 171.600 298.200 171.600 L 292.400 171.600 292.400 166.000 L 292.400 160.400 298.200 160.400 L 304.000 160.400 304.000 166.000 M365.911 171.900 L 365.800 177.400 360.200 177.400 L 354.600 177.400 354.487 172.422 C 354.338 165.830,353.778 166.400,360.399 166.400 L 366.023 166.400 365.911 171.900 M102.800 200.000 L 102.800 205.600 97.200 205.600 L 91.600 205.600 91.600 200.000 L 91.600 194.400 97.200 194.400 L 102.800 194.400 102.800 200.000 M366.184 217.208 C 368.376 217.421,370.779 217.710,371.525 217.850 L 372.882 218.104 372.649 220.952 C 372.366 224.396,371.851 228.201,371.248 231.300 C 371.002 232.565,370.629 234.545,370.420 235.700 C 369.291 241.934,364.351 258.936,363.519 259.450 C 363.301 259.585,362.736 259.511,362.262 259.288 C 361.788 259.064,360.770 258.664,360.000 258.400 C 359.230 258.136,358.240 257.776,357.800 257.600 C 357.360 257.424,356.415 257.083,355.700 256.840 C 351.311 255.354,351.484 255.873,353.404 249.934 C 354.942 245.176,357.006 237.452,357.662 234.000 C 358.703 228.526,358.858 227.660,359.208 225.400 C 359.412 224.080,359.697 221.830,359.841 220.400 C 359.986 218.970,360.283 217.575,360.501 217.300 C 360.970 216.710,361.045 216.708,366.184 217.208 M303.800 241.600 L 303.800 247.000 298.100 247.111 L 292.400 247.222 292.400 241.600 L 292.400 235.978 298.100 236.089 L 303.800 236.200 303.800 241.600 M48.600 247.400 L 48.600 253.000 42.900 253.111 L 37.200 253.222 37.200 247.400 L 37.200 241.578 42.900 241.689 L 48.600 241.800 48.600 247.400 M22.806 262.076 C 22.818 263.081,23.587 263.908,23.594 262.924 C 23.597 262.442,23.420 261.936,23.200 261.800 C 22.980 261.664,22.803 261.788,22.806 262.076 M125.911 274.500 L 125.800 280.200 120.100 280.311 L 114.400 280.422 114.400 274.611 L 114.400 268.800 120.211 268.800 L 126.022 268.800 125.911 274.500 M342.800 285.600 L 342.800 291.200 337.000 291.200 L 331.200 291.200 331.200 285.600 L 331.200 280.000 337.000 280.000 L 342.800 280.000 342.800 285.600 M253.200 298.800 L 253.200 304.400 247.400 304.400 L 241.600 304.400 241.600 298.800 L 241.600 293.200 247.400 293.200 L 253.200 293.200 253.200 298.800 M108.300 330.282 C 108.795 330.378,109.605 330.378,110.100 330.282 C 110.595 330.187,110.190 330.109,109.200 330.109 C 108.210 330.109,107.805 330.187,108.300 330.282 M290.100 331.091 C 290.925 331.178,292.275 331.178,293.100 331.091 C 293.925 331.005,293.250 330.934,291.600 330.934 C 289.950 330.934,289.275 331.005,290.100 331.091 M164.900 347.876 C 165.285 347.976,165.915 347.976,166.300 347.876 C 166.685 347.775,166.370 347.693,165.600 347.693 C 164.830 347.693,164.515 347.775,164.900 347.876 M158.500 348.287 C 159.105 348.378,160.095 348.378,160.700 348.287 C 161.305 348.195,160.810 348.120,159.600 348.120 C 158.390 348.120,157.895 348.195,158.500 348.287 M184.100 387.076 C 184.485 387.176,185.115 387.176,185.500 387.076 C 185.885 386.975,185.570 386.893,184.800 386.893 C 184.030 386.893,183.715 386.975,184.100 387.076 M187.700 387.476 C 188.085 387.576,188.715 387.576,189.100 387.476 C 189.485 387.375,189.170 387.293,188.400 387.293 C 187.630 387.293,187.315 387.375,187.700 387.476 M210.900 387.476 C 211.285 387.576,211.915 387.576,212.300 387.476 C 212.685 387.375,212.370 387.293,211.600 387.293 C 210.830 387.293,210.515 387.375,210.900 387.476 " stroke="none" fill="#ee7cb1" fill-rule="evenodd"></path><path id="path1" d="M178.700 0.273 C 176.555 0.359,174.800 0.602,174.800 0.814 C 174.800 1.027,173.551 1.200,172.024 1.200 C 170.497 1.200,169.136 1.380,169.000 1.600 C 168.864 1.820,167.773 2.000,166.576 2.000 C 165.379 2.000,164.400 2.180,164.400 2.400 C 164.400 2.620,163.421 2.800,162.224 2.800 C 161.027 2.800,159.936 2.980,159.800 3.200 C 159.664 3.420,158.944 3.600,158.200 3.600 C 157.456 3.600,156.736 3.780,156.600 4.000 C 156.464 4.220,155.553 4.400,154.576 4.400 C 153.599 4.400,152.800 4.580,152.800 4.800 C 152.800 5.020,152.080 5.200,151.200 5.200 C 150.320 5.200,149.600 5.380,149.600 5.600 C 149.600 5.820,148.981 6.000,148.224 6.000 C 147.467 6.000,146.736 6.180,146.600 6.400 C 146.464 6.620,145.823 6.800,145.176 6.800 C 144.529 6.800,144.000 6.980,144.000 7.200 C 144.000 7.420,143.370 7.600,142.600 7.600 C 141.830 7.600,141.200 7.780,141.200 8.000 C 141.200 8.220,140.771 8.400,140.246 8.400 C 139.222 8.400,135.447 9.440,134.305 10.037 C 133.923 10.237,133.336 10.400,133.000 10.400 C 132.664 10.400,132.077 10.559,131.695 10.753 C 131.313 10.948,130.460 11.329,129.800 11.600 C 129.140 11.871,128.287 12.252,127.905 12.447 C 127.523 12.641,126.848 12.800,126.405 12.800 C 125.962 12.800,125.600 12.980,125.600 13.200 C 125.600 13.420,125.240 13.600,124.800 13.600 C 124.360 13.600,124.000 13.780,124.000 14.000 C 124.000 14.220,123.460 14.400,122.800 14.400 C 122.140 14.400,121.600 14.580,121.600 14.800 C 121.600 15.020,121.240 15.200,120.800 15.200 C 120.360 15.200,120.000 15.380,120.000 15.600 C 120.000 15.820,119.640 16.000,119.200 16.000 C 118.760 16.000,118.400 16.180,118.400 16.400 C 118.400 16.620,117.961 16.800,117.424 16.800 C 116.887 16.800,116.336 16.980,116.200 17.200 C 116.064 17.420,115.603 17.600,115.176 17.600 C 114.749 17.600,114.400 17.780,114.400 18.000 C 114.400 18.220,114.040 18.400,113.600 18.400 C 113.160 18.400,112.800 18.580,112.800 18.800 C 112.800 19.020,112.440 19.200,112.000 19.200 C 111.560 19.200,111.200 19.346,111.200 19.525 C 111.200 19.704,110.570 20.098,109.800 20.400 C 109.030 20.702,108.400 21.096,108.400 21.275 C 108.400 21.454,108.040 21.600,107.600 21.600 C 107.160 21.600,106.800 21.780,106.800 22.000 C 106.800 22.220,106.440 22.400,106.000 22.400 C 105.560 22.400,105.200 22.580,105.200 22.800 C 105.200 23.020,104.880 23.200,104.488 23.200 C 104.097 23.200,103.517 23.560,103.200 24.000 C 102.883 24.440,102.387 24.800,102.098 24.800 C 101.396 24.800,97.435 26.809,97.267 27.251 C 97.193 27.443,96.956 27.600,96.739 27.600 C 96.522 27.600,95.559 28.140,94.600 28.800 C 93.641 29.460,92.703 30.000,92.516 30.000 C 92.329 30.000,91.917 30.360,91.600 30.800 C 91.283 31.240,90.703 31.600,90.312 31.600 C 89.920 31.600,89.600 31.750,89.600 31.932 C 89.600 32.115,89.105 32.519,88.500 32.830 C 87.895 33.140,87.109 33.711,86.753 34.097 C 86.397 34.484,85.852 34.800,85.541 34.800 C 85.231 34.800,84.717 35.160,84.400 35.600 C 84.083 36.040,83.620 36.400,83.371 36.400 C 83.122 36.400,82.354 36.940,81.663 37.600 C 80.972 38.260,80.208 38.800,79.964 38.800 C 79.720 38.800,79.017 39.340,78.400 40.000 C 77.783 40.660,77.164 41.200,77.023 41.200 C 76.740 41.200,76.063 41.731,74.599 43.100 C 74.070 43.595,73.466 44.000,73.259 44.000 C 73.051 44.000,72.005 44.857,70.935 45.905 C 69.865 46.953,68.362 48.255,67.595 48.799 C 66.828 49.342,64.439 51.590,62.287 53.793 C 57.582 58.611,58.611 57.582,53.793 62.287 C 51.590 64.439,49.342 66.828,48.799 67.595 C 48.255 68.362,46.953 69.865,45.905 70.935 C 44.857 72.005,44.000 73.051,44.000 73.259 C 44.000 73.466,43.595 74.070,43.100 74.599 C 41.731 76.063,41.200 76.740,41.200 77.023 C 41.200 77.164,40.660 77.783,40.000 78.400 C 39.340 79.017,38.800 79.720,38.800 79.964 C 38.800 80.208,38.260 80.972,37.600 81.663 C 36.940 82.354,36.400 83.122,36.400 83.371 C 36.400 83.620,36.040 84.083,35.600 84.400 C 35.160 84.717,34.800 85.231,34.800 85.541 C 34.800 85.852,34.484 86.397,34.097 86.753 C 33.711 87.109,33.140 87.895,32.830 88.500 C 32.519 89.105,32.115 89.600,31.932 89.600 C 31.750 89.600,31.600 89.920,31.600 90.312 C 31.600 90.703,31.240 91.283,30.800 91.600 C 30.360 91.917,30.000 92.329,30.000 92.516 C 30.000 92.703,29.460 93.641,28.800 94.600 C 28.140 95.559,27.600 96.522,27.600 96.739 C 27.600 96.956,27.443 97.193,27.251 97.267 C 26.809 97.435,24.800 101.396,24.800 102.098 C 24.800 102.387,24.440 102.883,24.000 103.200 C 23.560 103.517,23.200 104.097,23.200 104.488 C 23.200 104.880,23.020 105.200,22.800 105.200 C 22.580 105.200,22.400 105.560,22.400 106.000 C 22.400 106.440,22.220 106.800,22.000 106.800 C 21.780 106.800,21.600 107.160,21.600 107.600 C 21.600 108.040,21.454 108.400,21.275 108.400 C 21.096 108.400,20.702 109.030,20.400 109.800 C 20.098 110.570,19.704 111.200,19.525 111.200 C 19.346 111.200,19.200 111.560,19.200 112.000 C 19.200 112.440,19.020 112.800,18.800 112.800 C 18.580 112.800,18.400 113.160,18.400 113.600 C 18.400 114.040,18.220 114.400,18.000 114.400 C 17.780 114.400,17.600 114.749,17.600 115.176 C 17.600 115.603,17.420 116.064,17.200 116.200 C 16.980 116.336,16.800 116.887,16.800 117.424 C 16.800 117.961,16.620 118.400,16.400 118.400 C 16.180 118.400,16.000 118.760,16.000 119.200 C 16.000 119.640,15.820 120.000,15.600 120.000 C 15.380 120.000,15.200 120.360,15.200 120.800 C 15.200 121.240,15.020 121.600,14.800 121.600 C 14.580 121.600,14.400 122.140,14.400 122.800 C 14.400 123.460,14.220 124.000,14.000 124.000 C 13.780 124.000,13.600 124.360,13.600 124.800 C 13.600 125.240,13.420 125.600,13.200 125.600 C 12.980 125.600,12.800 125.962,12.800 126.405 C 12.800 126.848,12.641 127.523,12.447 127.905 C 12.252 128.287,11.871 129.140,11.600 129.800 C 11.329 130.460,10.948 131.313,10.753 131.695 C 10.559 132.077,10.400 132.664,10.400 133.000 C 10.400 133.336,10.237 133.923,10.037 134.305 C 9.440 135.447,8.400 139.222,8.400 140.246 C 8.400 140.771,8.220 141.200,8.000 141.200 C 7.780 141.200,7.600 141.830,7.600 142.600 C 7.600 143.370,7.420 144.000,7.200 144.000 C 6.980 144.000,6.800 144.529,6.800 145.176 C 6.800 145.823,6.620 146.464,6.400 146.600 C 6.180 146.736,6.000 147.467,6.000 148.224 C 6.000 148.981,5.820 149.600,5.600 149.600 C 5.380 149.600,5.200 150.320,5.200 151.200 C 5.200 152.080,5.020 152.800,4.800 152.800 C 4.580 152.800,4.400 153.599,4.400 154.576 C 4.400 155.553,4.220 156.464,4.000 156.600 C 3.780 156.736,3.600 157.456,3.600 158.200 C 3.600 158.944,3.420 159.664,3.200 159.800 C 2.980 159.936,2.800 161.027,2.800 162.224 C 2.800 163.421,2.620 164.400,2.400 164.400 C 2.180 164.400,2.000 165.379,2.000 166.576 C 2.000 167.773,1.820 168.864,1.600 169.000 C 1.380 169.136,1.200 170.482,1.200 171.990 C 1.200 173.829,1.035 174.788,0.700 174.900 C -0.032 175.144,-0.032 224.856,0.700 225.100 C 1.035 225.212,1.200 226.171,1.200 228.010 C 1.200 229.518,1.380 230.864,1.600 231.000 C 1.820 231.136,2.000 232.227,2.000 233.424 C 2.000 234.621,2.180 235.600,2.400 235.600 C 2.620 235.600,2.800 236.579,2.800 237.776 C 2.800 238.973,2.980 240.064,3.200 240.200 C 3.420 240.336,3.600 241.056,3.600 241.800 C 3.600 242.544,3.780 243.264,4.000 243.400 C 4.220 243.536,4.400 244.447,4.400 245.424 C 4.400 246.401,4.580 247.200,4.800 247.200 C 5.020 247.200,5.200 247.920,5.200 248.800 C 5.200 249.680,5.380 250.400,5.600 250.400 C 5.820 250.400,6.000 251.019,6.000 251.776 C 6.000 252.533,6.180 253.264,6.400 253.400 C 6.620 253.536,6.800 254.177,6.800 254.824 C 6.800 255.471,6.980 256.000,7.200 256.000 C 7.420 256.000,7.600 256.630,7.600 257.400 C 7.600 258.170,7.780 258.800,8.000 258.800 C 8.220 258.800,8.400 259.229,8.400 259.754 C 8.400 260.778,9.440 264.553,10.037 265.695 C 10.237 266.077,10.400 266.664,10.400 267.000 C 10.400 267.336,10.559 267.923,10.753 268.305 C 10.948 268.687,11.329 269.540,11.600 270.200 C 11.871 270.860,12.252 271.713,12.447 272.095 C 12.641 272.477,12.800 273.152,12.800 273.595 C 12.800 274.038,12.980 274.400,13.200 274.400 C 13.420 274.400,13.600 274.760,13.600 275.200 C 13.600 275.640,13.780 276.000,14.000 276.000 C 14.220 276.000,14.400 276.540,14.400 277.200 C 14.400 277.860,14.580 278.400,14.800 278.400 C 15.020 278.400,15.200 278.760,15.200 279.200 C 15.200 279.640,15.380 280.000,15.600 280.000 C 15.820 280.000,16.000 280.360,16.000 280.800 C 16.000 281.240,16.180 281.600,16.400 281.600 C 16.620 281.600,16.800 282.039,16.800 282.576 C 16.800 283.113,16.980 283.664,17.200 283.800 C 17.420 283.936,17.600 284.397,17.600 284.824 C 17.600 285.251,17.780 285.600,18.000 285.600 C 18.220 285.600,18.400 285.960,18.400 286.400 C 18.400 286.840,18.580 287.200,18.800 287.200 C 19.020 287.200,19.200 287.560,19.200 288.000 C 19.200 288.440,19.346 288.800,19.525 288.800 C 19.704 288.800,20.098 289.430,20.400 290.200 C 20.702 290.970,21.096 291.600,21.275 291.600 C 21.454 291.600,21.600 291.960,21.600 292.400 C 21.600 292.840,21.780 293.200,22.000 293.200 C 22.220 293.200,22.400 293.560,22.400 294.000 C 22.400 294.440,22.580 294.800,22.800 294.800 C 23.020 294.800,23.200 295.120,23.200 295.512 C 23.200 295.903,23.560 296.483,24.000 296.800 C 24.440 297.117,24.800 297.613,24.800 297.902 C 24.800 298.604,26.809 302.565,27.251 302.733 C 27.443 302.807,27.600 303.044,27.600 303.261 C 27.600 303.478,28.140 304.441,28.800 305.400 C 29.460 306.359,30.000 307.297,30.000 307.484 C 30.000 307.671,30.360 308.083,30.800 308.400 C 31.240 308.717,31.600 309.297,31.600 309.688 C 31.600 310.080,31.750 310.400,31.932 310.400 C 32.115 310.400,32.519 310.895,32.830 311.500 C 33.140 312.105,33.711 312.891,34.097 313.247 C 34.484 313.603,34.800 314.148,34.800 314.459 C 34.800 314.769,35.160 315.283,35.600 315.600 C 36.040 315.917,36.400 316.380,36.400 316.629 C 36.400 316.878,36.940 317.646,37.600 318.337 C 38.260 319.028,38.800 319.792,38.800 320.036 C 38.800 320.280,39.340 320.983,40.000 321.600 C 40.660 322.217,41.200 322.836,41.200 322.977 C 41.200 323.260,41.731 323.937,43.100 325.401 C 43.595 325.930,44.000 326.534,44.000 326.741 C 44.000 326.949,44.857 327.995,45.905 329.065 C 46.953 330.135,48.255 331.638,48.799 332.405 C 49.342 333.172,51.590 335.561,53.793 337.713 C 58.611 342.418,57.582 341.389,62.287 346.207 C 64.439 348.410,66.828 350.658,67.595 351.201 C 68.362 351.745,69.865 353.047,70.935 354.095 C 72.005 355.143,73.042 356.000,73.240 356.000 C 73.437 356.000,74.266 356.630,75.082 357.400 C 75.899 358.170,76.727 358.800,76.923 358.800 C 77.119 358.800,77.783 359.340,78.400 360.000 C 79.017 360.660,79.720 361.200,79.964 361.200 C 80.208 361.200,80.972 361.740,81.663 362.400 C 82.354 363.060,83.122 363.600,83.371 363.600 C 83.620 363.600,84.083 363.960,84.400 364.400 C 84.717 364.840,85.231 365.200,85.541 365.200 C 85.852 365.200,86.397 365.516,86.753 365.903 C 87.109 366.289,87.895 366.860,88.500 367.170 C 89.105 367.481,89.600 367.885,89.600 368.068 C 89.600 368.250,89.920 368.400,90.312 368.400 C 90.703 368.400,91.283 368.760,91.600 369.200 C 91.917 369.640,92.329 370.000,92.516 370.000 C 92.703 370.000,93.641 370.540,94.600 371.200 C 95.559 371.860,96.537 372.400,96.772 372.400 C 97.007 372.400,97.200 372.542,97.200 372.716 C 97.200 373.113,101.277 375.200,102.052 375.200 C 102.366 375.200,102.883 375.560,103.200 376.000 C 103.517 376.440,104.097 376.800,104.488 376.800 C 104.880 376.800,105.200 376.980,105.200 377.200 C 105.200 377.420,105.560 377.600,106.000 377.600 C 106.440 377.600,106.800 377.780,106.800 378.000 C 106.800 378.220,107.160 378.400,107.600 378.400 C 108.040 378.400,108.400 378.546,108.400 378.725 C 108.400 378.904,109.030 379.298,109.800 379.600 C 110.570 379.902,111.200 380.296,111.200 380.475 C 111.200 380.654,111.560 380.800,112.000 380.800 C 112.440 380.800,112.800 380.980,112.800 381.200 C 112.800 381.420,113.160 381.600,113.600 381.600 C 114.040 381.600,114.400 381.780,114.400 382.000 C 114.400 382.220,114.749 382.400,115.176 382.400 C 115.603 382.400,116.064 382.580,116.200 382.800 C 116.336 383.020,116.887 383.200,117.424 383.200 C 117.961 383.200,118.400 383.380,118.400 383.600 C 118.400 383.820,118.760 384.000,119.200 384.000 C 119.640 384.000,120.000 384.180,120.000 384.400 C 120.000 384.620,120.360 384.800,120.800 384.800 C 121.240 384.800,121.600 384.980,121.600 385.200 C 121.600 385.420,122.140 385.600,122.800 385.600 C 123.460 385.600,124.000 385.780,124.000 386.000 C 124.000 386.220,124.360 386.400,124.800 386.400 C 125.240 386.400,125.600 386.580,125.600 386.800 C 125.600 387.020,125.962 387.200,126.405 387.200 C 126.848 387.200,127.523 387.359,127.905 387.553 C 128.287 387.748,129.140 388.129,129.800 388.400 C 130.460 388.671,131.313 389.052,131.695 389.247 C 132.077 389.441,132.741 389.600,133.171 389.600 C 133.601 389.600,134.064 389.780,134.200 390.000 C 134.336 390.220,134.876 390.400,135.400 390.400 C 135.924 390.400,136.456 390.567,136.583 390.772 C 136.709 390.977,137.800 391.267,139.006 391.418 C 140.213 391.569,141.200 391.851,141.200 392.046 C 141.200 392.241,141.830 392.400,142.600 392.400 C 143.370 392.400,144.000 392.580,144.000 392.800 C 144.000 393.020,144.529 393.200,145.176 393.200 C 145.823 393.200,146.464 393.380,146.600 393.600 C 146.736 393.820,147.467 394.000,148.224 394.000 C 148.981 394.000,149.600 394.180,149.600 394.400 C 149.600 394.620,150.320 394.800,151.200 394.800 C 152.080 394.800,152.800 394.980,152.800 395.200 C 152.800 395.420,153.599 395.600,154.576 395.600 C 155.553 395.600,156.464 395.780,156.600 396.000 C 156.736 396.220,157.456 396.400,158.200 396.400 C 158.944 396.400,159.664 396.580,159.800 396.800 C 159.936 397.020,161.027 397.200,162.224 397.200 C 163.421 397.200,164.400 397.380,164.400 397.600 C 164.400 397.820,165.379 398.000,166.576 398.000 C 167.773 398.000,168.864 398.180,169.000 398.400 C 169.136 398.620,170.482 398.800,171.990 398.800 C 173.829 398.800,174.788 398.965,174.900 399.300 C 175.144 400.032,224.856 400.032,225.100 399.300 C 225.212 398.965,226.171 398.800,228.010 398.800 C 229.518 398.800,230.864 398.620,231.000 398.400 C 231.136 398.180,232.227 398.000,233.424 398.000 C 234.621 398.000,235.600 397.820,235.600 397.600 C 235.600 397.380,236.579 397.200,237.776 397.200 C 238.973 397.200,240.064 397.020,240.200 396.800 C 240.336 396.580,241.056 396.400,241.800 396.400 C 242.544 396.400,243.264 396.220,243.400 396.000 C 243.536 395.780,244.447 395.600,245.424 395.600 C 246.401 395.600,247.200 395.420,247.200 395.200 C 247.200 394.980,247.920 394.800,248.800 394.800 C 249.680 394.800,250.400 394.620,250.400 394.400 C 250.400 394.180,251.019 394.000,251.776 394.000 C 252.533 394.000,253.264 393.820,253.400 393.600 C 253.536 393.380,254.177 393.200,254.824 393.200 C 255.471 393.200,256.000 393.020,256.000 392.800 C 256.000 392.580,256.630 392.400,257.400 392.400 C 258.170 392.400,258.800 392.241,258.800 392.046 C 258.800 391.851,259.787 391.569,260.994 391.418 C 262.200 391.267,263.291 390.977,263.417 390.772 C 263.544 390.567,264.076 390.400,264.600 390.400 C 265.124 390.400,265.664 390.220,265.800 390.000 C 265.936 389.780,266.399 389.600,266.829 389.600 C 267.259 389.600,267.923 389.441,268.305 389.247 C 268.687 389.052,269.540 388.671,270.200 388.400 C 270.860 388.129,271.713 387.748,272.095 387.553 C 272.477 387.359,273.152 387.200,273.595 387.200 C 274.038 387.200,274.400 387.020,274.400 386.800 C 274.400 386.580,274.760 386.400,275.200 386.400 C 275.640 386.400,276.000 386.220,276.000 386.000 C 276.000 385.780,276.540 385.600,277.200 385.600 C 277.860 385.600,278.400 385.420,278.400 385.200 C 278.400 384.980,278.760 384.800,279.200 384.800 C 279.640 384.800,280.000 384.620,280.000 384.400 C 280.000 384.180,280.360 384.000,280.800 384.000 C 281.240 384.000,281.600 383.820,281.600 383.600 C 281.600 383.380,282.039 383.200,282.576 383.200 C 283.113 383.200,283.664 383.020,283.800 382.800 C 283.936 382.580,284.397 382.400,284.824 382.400 C 285.251 382.400,285.600 382.220,285.600 382.000 C 285.600 381.780,285.960 381.600,286.400 381.600 C 286.840 381.600,287.200 381.420,287.200 381.200 C 287.200 380.980,287.560 380.800,288.000 380.800 C 288.440 380.800,288.800 380.654,288.800 380.475 C 288.800 380.296,289.430 379.902,290.200 379.600 C 290.970 379.298,291.600 378.904,291.600 378.725 C 291.600 378.546,291.960 378.400,292.400 378.400 C 292.840 378.400,293.200 378.220,293.200 378.000 C 293.200 377.780,293.560 377.600,294.000 377.600 C 294.440 377.600,294.800 377.420,294.800 377.200 C 294.800 376.980,295.120 376.800,295.512 376.800 C 295.903 376.800,296.483 376.440,296.800 376.000 C 297.117 375.560,297.634 375.200,297.948 375.200 C 298.723 375.200,302.800 373.113,302.800 372.716 C 302.800 372.542,302.993 372.400,303.228 372.400 C 303.463 372.400,304.441 371.860,305.400 371.200 C 306.359 370.540,307.297 370.000,307.484 370.000 C 307.671 370.000,308.083 369.640,308.400 369.200 C 308.717 368.760,309.297 368.400,309.688 368.400 C 310.080 368.400,310.400 368.250,310.400 368.068 C 310.400 367.885,310.895 367.481,311.500 367.170 C 312.105 366.860,312.891 366.289,313.247 365.903 C 313.603 365.516,314.148 365.200,314.459 365.200 C 314.769 365.200,315.283 364.840,315.600 364.400 C 315.917 363.960,316.380 363.600,316.629 363.600 C 316.878 363.600,317.646 363.060,318.337 362.400 C 319.028 361.740,319.792 361.200,320.036 361.200 C 320.280 361.200,320.983 360.660,321.600 360.000 C 322.217 359.340,322.881 358.800,323.077 358.800 C 323.273 358.800,324.101 358.170,324.918 357.400 C 325.734 356.630,326.563 356.000,326.760 356.000 C 326.958 356.000,327.995 355.143,329.065 354.095 C 330.135 353.047,331.638 351.745,332.405 351.201 C 333.172 350.658,335.561 348.410,337.713 346.207 C 342.418 341.389,341.389 342.418,346.207 337.713 C 348.410 335.561,350.658 333.172,351.201 332.405 C 351.745 331.638,353.047 330.135,354.095 329.065 C 355.143 327.995,356.000 326.958,356.000 326.760 C 356.000 326.563,356.630 325.734,357.400 324.918 C 358.170 324.101,358.800 323.273,358.800 323.077 C 358.800 322.881,359.340 322.217,360.000 321.600 C 360.660 320.983,361.200 320.280,361.200 320.036 C 361.200 319.792,361.740 319.028,362.400 318.337 C 363.060 317.646,363.600 316.878,363.600 316.629 C 363.600 316.380,363.960 315.917,364.400 315.600 C 364.840 315.283,365.200 314.769,365.200 314.459 C 365.200 314.148,365.516 313.603,365.903 313.247 C 366.289 312.891,366.860 312.105,367.170 311.500 C 367.481 310.895,367.885 310.400,368.068 310.400 C 368.250 310.400,368.400 310.080,368.400 309.688 C 368.400 309.297,368.760 308.717,369.200 308.400 C 369.640 308.083,370.000 307.671,370.000 307.484 C 370.000 307.297,370.540 306.359,371.200 305.400 C 371.860 304.441,372.400 303.463,372.400 303.228 C 372.400 302.993,372.542 302.800,372.716 302.800 C 373.113 302.800,375.200 298.723,375.200 297.948 C 375.200 297.634,375.560 297.117,376.000 296.800 C 376.440 296.483,376.800 295.903,376.800 295.512 C 376.800 295.120,376.980 294.800,377.200 294.800 C 377.420 294.800,377.600 294.440,377.600 294.000 C 377.600 293.560,377.780 293.200,378.000 293.200 C 378.220 293.200,378.400 292.840,378.400 292.400 C 378.400 291.960,378.546 291.600,378.725 291.600 C 378.904 291.600,379.298 290.970,379.600 290.200 C 379.902 289.430,380.296 288.800,380.475 288.800 C 380.654 288.800,380.800 288.440,380.800 288.000 C 380.800 287.560,380.980 287.200,381.200 287.200 C 381.420 287.200,381.600 286.840,381.600 286.400 C 381.600 285.960,381.780 285.600,382.000 285.600 C 382.220 285.600,382.400 285.251,382.400 284.824 C 382.400 284.397,382.580 283.936,382.800 283.800 C 383.020 283.664,383.200 283.113,383.200 282.576 C 383.200 282.039,383.380 281.600,383.600 281.600 C 383.820 281.600,384.000 281.240,384.000 280.800 C 384.000 280.360,384.180 280.000,384.400 280.000 C 384.620 280.000,384.800 279.640,384.800 279.200 C 384.800 278.760,384.980 278.400,385.200 278.400 C 385.420 278.400,385.600 277.860,385.600 277.200 C 385.600 276.540,385.780 276.000,386.000 276.000 C 386.220 276.000,386.400 275.640,386.400 275.200 C 386.400 274.760,386.580 274.400,386.800 274.400 C 387.020 274.400,387.200 274.038,387.200 273.595 C 387.200 273.152,387.359 272.477,387.553 272.095 C 387.748 271.713,388.129 270.860,388.400 270.200 C 388.671 269.540,389.052 268.687,389.247 268.305 C 389.441 267.923,389.600 267.259,389.600 266.829 C 389.600 266.399,389.780 265.936,390.000 265.800 C 390.220 265.664,390.400 265.124,390.400 264.600 C 390.400 264.076,390.567 263.544,390.772 263.417 C 390.977 263.291,391.267 262.200,391.418 260.994 C 391.569 259.787,391.851 258.800,392.046 258.800 C 392.241 258.800,392.400 258.170,392.400 257.400 C 392.400 256.630,392.580 256.000,392.800 256.000 C 393.020 256.000,393.200 255.471,393.200 254.824 C 393.200 254.177,393.380 253.536,393.600 253.400 C 393.820 253.264,394.000 252.533,394.000 251.776 C 394.000 251.019,394.180 250.400,394.400 250.400 C 394.620 250.400,394.800 249.680,394.800 248.800 C 394.800 247.920,394.980 247.200,395.200 247.200 C 395.420 247.200,395.600 246.401,395.600 245.424 C 395.600 244.447,395.780 243.536,396.000 243.400 C 396.220 243.264,396.400 242.544,396.400 241.800 C 396.400 241.056,396.580 240.336,396.800 240.200 C 397.020 240.064,397.200 238.973,397.200 237.776 C 397.200 236.579,397.380 235.600,397.600 235.600 C 397.820 235.600,398.000 234.621,398.000 233.424 C 398.000 232.227,398.180 231.136,398.400 231.000 C 398.620 230.864,398.800 229.518,398.800 228.010 C 398.800 226.171,398.965 225.212,399.300 225.100 C 399.693 224.969,399.800 219.591,399.800 200.000 C 399.800 180.409,399.693 175.031,399.300 174.900 C 398.965 174.788,398.800 173.829,398.800 171.990 C 398.800 170.482,398.620 169.136,398.400 169.000 C 398.180 168.864,398.000 167.773,398.000 166.576 C 398.000 165.379,397.820 164.400,397.600 164.400 C 397.380 164.400,397.200 163.421,397.200 162.224 C 397.200 161.027,397.020 159.936,396.800 159.800 C 396.580 159.664,396.400 158.944,396.400 158.200 C 396.400 157.456,396.220 156.736,396.000 156.600 C 395.780 156.464,395.600 155.553,395.600 154.576 C 395.600 153.599,395.420 152.800,395.200 152.800 C 394.980 152.800,394.800 152.080,394.800 151.200 C 394.800 150.320,394.620 149.600,394.400 149.600 C 394.180 149.600,394.000 148.981,394.000 148.224 C 394.000 147.467,393.820 146.736,393.600 146.600 C 393.380 146.464,393.200 145.823,393.200 145.176 C 393.200 144.529,393.020 144.000,392.800 144.000 C 392.580 144.000,392.400 143.370,392.400 142.600 C 392.400 141.830,392.241 141.200,392.046 141.200 C 391.851 141.200,391.569 140.213,391.418 139.006 C 391.267 137.800,390.977 136.709,390.772 136.583 C 390.567 136.456,390.400 135.924,390.400 135.400 C 390.400 134.876,390.220 134.336,390.000 134.200 C 389.780 134.064,389.600 133.601,389.600 133.171 C 389.600 132.741,389.441 132.077,389.247 131.695 C 389.052 131.313,388.671 130.460,388.400 129.800 C 388.129 129.140,387.748 128.287,387.553 127.905 C 387.359 127.523,387.200 126.848,387.200 126.405 C 387.200 125.962,387.020 125.600,386.800 125.600 C 386.580 125.600,386.400 125.240,386.400 124.800 C 386.400 124.360,386.220 124.000,386.000 124.000 C 385.780 124.000,385.600 123.460,385.600 122.800 C 385.600 122.140,385.420 121.600,385.200 121.600 C 384.980 121.600,384.800 121.240,384.800 120.800 C 384.800 120.360,384.620 120.000,384.400 120.000 C 384.180 120.000,384.000 119.640,384.000 119.200 C 384.000 118.760,383.820 118.400,383.600 118.400 C 383.380 118.400,383.200 117.961,383.200 117.424 C 383.200 116.887,383.020 116.336,382.800 116.200 C 382.580 116.064,382.400 115.603,382.400 115.176 C 382.400 114.749,382.220 114.400,382.000 114.400 C 381.780 114.400,381.600 114.040,381.600 113.600 C 381.600 113.160,381.420 112.800,381.200 112.800 C 380.980 112.800,380.800 112.440,380.800 112.000 C 380.800 111.560,380.654 111.200,380.475 111.200 C 380.296 111.200,379.902 110.570,379.600 109.800 C 379.298 109.030,378.904 108.400,378.725 108.400 C 378.546 108.400,378.400 108.040,378.400 107.600 C 378.400 107.160,378.220 106.800,378.000 106.800 C 377.780 106.800,377.600 106.440,377.600 106.000 C 377.600 105.560,377.420 105.200,377.200 105.200 C 376.980 105.200,376.800 104.880,376.800 104.488 C 376.800 104.097,376.440 103.517,376.000 103.200 C 375.560 102.883,375.200 102.366,375.200 102.052 C 375.200 101.277,373.113 97.200,372.716 97.200 C 372.542 97.200,372.400 97.007,372.400 96.772 C 372.400 96.537,371.860 95.559,371.200 94.600 C 370.540 93.641,370.000 92.703,370.000 92.516 C 370.000 92.329,369.640 91.917,369.200 91.600 C 368.760 91.283,368.400 90.703,368.400 90.312 C 368.400 89.920,368.250 89.600,368.068 89.600 C 367.885 89.600,367.481 89.105,367.170 88.500 C 366.860 87.895,366.289 87.109,365.903 86.753 C 365.516 86.397,365.200 85.852,365.200 85.541 C 365.200 85.231,364.840 84.717,364.400 84.400 C 363.960 84.083,363.600 83.620,363.600 83.371 C 363.600 83.122,363.060 82.354,362.400 81.663 C 361.740 80.972,361.200 80.208,361.200 79.964 C 361.200 79.720,360.660 79.017,360.000 78.400 C 359.340 77.783,358.800 77.119,358.800 76.923 C 358.800 76.727,358.170 75.899,357.400 75.082 C 356.630 74.266,356.000 73.437,356.000 73.240 C 356.000 73.042,355.143 72.005,354.095 70.935 C 353.047 69.865,351.745 68.362,351.201 67.595 C 350.658 66.828,348.410 64.439,346.207 62.287 C 341.389 57.582,342.418 58.611,337.713 53.793 C 335.561 51.590,333.172 49.342,332.405 48.799 C 331.638 48.255,330.135 46.953,329.065 45.905 C 327.995 44.857,326.949 44.000,326.741 44.000 C 326.534 44.000,325.930 43.595,325.401 43.100 C 323.937 41.731,323.260 41.200,322.977 41.200 C 322.836 41.200,322.217 40.660,321.600 40.000 C 320.983 39.340,320.280 38.800,320.036 38.800 C 319.792 38.800,319.028 38.260,318.337 37.600 C 317.646 36.940,316.878 36.400,316.629 36.400 C 316.380 36.400,315.917 36.040,315.600 35.600 C 315.283 35.160,314.769 34.800,314.459 34.800 C 314.148 34.800,313.603 34.484,313.247 34.097 C 312.891 33.711,312.105 33.140,311.500 32.830 C 310.895 32.519,310.400 32.115,310.400 31.932 C 310.400 31.750,310.080 31.600,309.688 31.600 C 309.297 31.600,308.717 31.240,308.400 30.800 C 308.083 30.360,307.671 30.000,307.484 30.000 C 307.297 30.000,306.359 29.460,305.400 28.800 C 304.441 28.140,303.478 27.600,303.261 27.600 C 303.044 27.600,302.807 27.443,302.733 27.251 C 302.565 26.809,298.604 24.800,297.902 24.800 C 297.613 24.800,297.117 24.440,296.800 24.000 C 296.483 23.560,295.903 23.200,295.512 23.200 C 295.120 23.200,294.800 23.020,294.800 22.800 C 294.800 22.580,294.440 22.400,294.000 22.400 C 293.560 22.400,293.200 22.220,293.200 22.000 C 293.200 21.780,292.840 21.600,292.400 21.600 C 291.960 21.600,291.600 21.454,291.600 21.275 C 291.600 21.096,290.970 20.702,290.200 20.400 C 289.430 20.098,288.800 19.704,288.800 19.525 C 288.800 19.346,288.440 19.200,288.000 19.200 C 287.560 19.200,287.200 19.020,287.200 18.800 C 287.200 18.580,286.840 18.400,286.400 18.400 C 285.960 18.400,285.600 18.220,285.600 18.000 C 285.600 17.780,285.251 17.600,284.824 17.600 C 284.397 17.600,283.936 17.420,283.800 17.200 C 283.664 16.980,283.113 16.800,282.576 16.800 C 282.039 16.800,281.600 16.620,281.600 16.400 C 281.600 16.180,281.240 16.000,280.800 16.000 C 280.360 16.000,280.000 15.820,280.000 15.600 C 280.000 15.380,279.640 15.200,279.200 15.200 C 278.760 15.200,278.400 15.020,278.400 14.800 C 278.400 14.580,277.860 14.400,277.200 14.400 C 276.540 14.400,276.000 14.220,276.000 14.000 C 276.000 13.780,275.640 13.600,275.200 13.600 C 274.760 13.600,274.400 13.420,274.400 13.200 C 274.400 12.980,274.038 12.800,273.595 12.800 C 273.152 12.800,272.477 12.641,272.095 12.447 C 271.713 12.252,270.860 11.871,270.200 11.600 C 269.540 11.329,268.687 10.948,268.305 10.753 C 267.923 10.559,267.336 10.400,267.000 10.400 C 266.664 10.400,266.077 10.237,265.695 10.037 C 264.553 9.440,260.778 8.400,259.754 8.400 C 259.229 8.400,258.800 8.220,258.800 8.000 C 258.800 7.780,258.170 7.600,257.400 7.600 C 256.630 7.600,256.000 7.420,256.000 7.200 C 256.000 6.980,255.471 6.800,254.824 6.800 C 254.177 6.800,253.536 6.620,253.400 6.400 C 253.264 6.180,252.533 6.000,251.776 6.000 C 251.019 6.000,250.400 5.820,250.400 5.600 C 250.400 5.380,249.680 5.200,248.800 5.200 C 247.920 5.200,247.200 5.020,247.200 4.800 C 247.200 4.580,246.401 4.400,245.424 4.400 C 244.447 4.400,243.536 4.220,243.400 4.000 C 243.264 3.780,242.544 3.600,241.800 3.600 C 241.056 3.600,240.336 3.420,240.200 3.200 C 240.064 2.980,238.973 2.800,237.776 2.800 C 236.579 2.800,235.600 2.620,235.600 2.400 C 235.600 2.180,234.621 2.000,233.424 2.000 C 232.227 2.000,231.136 1.820,231.000 1.600 C 230.864 1.380,229.518 1.200,228.010 1.200 C 226.233 1.200,225.210 1.031,225.107 0.720 C 224.948 0.244,188.291 -0.109,178.700 0.273 M214.732 12.802 C 226.633 14.041,232.590 14.914,239.000 16.359 C 239.880 16.557,241.500 16.915,242.600 17.155 C 249.662 18.692,260.655 22.122,268.538 25.248 C 340.856 53.924,387.612 122.630,387.599 200.200 C 387.599 205.920,387.420 212.220,387.203 214.200 C 386.986 216.180,386.615 219.600,386.378 221.800 C 385.887 226.366,385.317 230.277,384.806 232.600 C 384.612 233.480,384.248 235.370,383.996 236.800 C 383.557 239.292,382.288 244.877,381.588 247.400 C 381.404 248.060,381.040 249.410,380.778 250.400 C 378.116 260.476,372.745 274.205,367.322 284.800 C 365.577 288.210,362.875 293.128,361.319 295.730 L 358.490 300.460 355.112 302.155 C 350.920 304.259,345.084 308.530,340.200 313.069 C 332.964 319.793,318.885 323.570,309.200 321.386 C 306.622 320.804,305.606 320.581,300.200 319.408 C 296.680 318.644,286.516 318.628,282.600 319.380 C 276.107 320.627,274.901 320.920,272.414 321.849 C 269.001 323.124,264.988 325.215,261.008 327.793 C 251.217 334.133,247.105 335.396,237.173 335.114 C 231.681 334.958,229.680 334.595,226.600 333.196 C 226.160 332.997,224.360 332.178,222.600 331.377 C 212.854 326.944,209.770 326.256,199.600 326.244 C 189.590 326.233,185.645 327.137,176.236 331.596 C 161.719 338.477,151.330 337.400,138.400 327.673 C 129.675 321.109,120.051 318.000,108.460 318.000 C 102.854 318.000,102.080 318.149,90.626 321.432 C 77.563 325.175,68.221 322.319,57.200 311.212 C 50.883 304.847,47.975 302.549,43.029 300.018 L 40.249 298.595 37.269 293.397 C 34.163 287.979,33.541 286.782,29.891 279.200 C 23.795 266.540,18.025 248.692,15.600 235.000 C 14.477 228.662,14.038 225.747,13.612 221.800 C 13.350 219.380,12.970 216.082,12.768 214.471 C 12.276 210.554,12.298 190.124,12.800 185.268 C 13.875 174.852,15.106 166.448,16.353 161.000 C 16.554 160.120,16.915 158.500,17.155 157.400 C 17.394 156.300,17.757 154.770,17.960 154.000 C 18.886 150.503,19.662 147.703,20.014 146.600 C 40.092 83.548,83.548 40.092,146.600 20.014 C 147.703 19.662,150.503 18.886,154.000 17.960 C 154.770 17.757,156.300 17.394,157.400 17.155 C 158.500 16.915,160.120 16.554,161.000 16.353 C 166.208 15.161,174.890 13.870,184.600 12.845 C 189.210 12.358,210.176 12.328,214.732 12.802 M191.867 44.667 C 191.720 44.813,191.600 47.338,191.600 50.277 L 191.600 55.621 197.500 55.511 L 203.400 55.400 203.512 50.231 C 203.597 46.365,203.496 44.981,203.112 44.737 C 202.500 44.349,192.249 44.284,191.867 44.667 M113.600 56.000 L 113.600 61.600 119.400 61.600 L 125.200 61.600 125.200 56.000 L 125.200 50.400 119.400 50.400 L 113.600 50.400 113.600 56.000 M309.477 83.856 C 309.325 84.008,309.200 86.623,309.200 89.667 L 309.200 95.200 315.011 95.200 L 320.822 95.200 320.711 89.500 L 320.600 83.800 315.177 83.689 C 312.195 83.628,309.630 83.703,309.477 83.856 M241.600 92.600 L 241.600 98.422 247.300 98.311 L 253.000 98.200 253.000 92.600 L 253.000 87.000 247.300 86.889 L 241.600 86.778 241.600 92.600 M140.800 109.000 L 140.800 114.822 146.500 114.711 L 152.200 114.600 152.200 109.000 L 152.200 103.400 146.500 103.289 L 140.800 103.178 140.800 109.000 M191.558 119.775 C 191.433 119.900,189.910 120.183,188.173 120.403 C 183.884 120.947,177.382 122.579,172.842 124.252 C 117.061 144.802,101.436 215.258,143.403 257.000 C 187.439 300.800,262.606 280.135,277.989 220.000 C 289.728 174.106,259.083 127.727,212.144 120.348 C 209.173 119.881,191.932 119.401,191.558 119.775 M63.600 136.000 L 63.600 141.600 69.200 141.600 L 74.800 141.600 74.800 136.000 L 74.800 130.400 69.200 130.400 L 63.600 130.400 63.600 136.000 M206.800 132.800 C 206.800 133.022,207.867 133.200,209.200 133.200 C 210.533 133.200,211.600 133.378,211.600 133.600 C 211.600 133.820,212.410 134.000,213.400 134.000 C 214.390 134.000,215.200 134.180,215.200 134.400 C 215.200 134.620,215.920 134.800,216.800 134.800 C 217.680 134.800,218.400 134.980,218.400 135.200 C 218.400 135.420,218.940 135.600,219.600 135.600 C 220.260 135.600,220.800 135.780,220.800 136.000 C 220.800 136.220,221.340 136.400,222.000 136.400 C 222.660 136.400,223.200 136.580,223.200 136.800 C 223.200 137.020,223.514 137.200,223.897 137.200 C 224.695 137.200,233.731 141.593,233.933 142.080 C 234.007 142.256,234.412 142.400,234.833 142.400 C 235.255 142.400,235.600 142.580,235.600 142.800 C 235.600 143.020,235.920 143.200,236.312 143.200 C 236.703 143.200,237.283 143.560,237.600 144.000 C 237.917 144.440,238.380 144.800,238.629 144.800 C 238.878 144.800,239.646 145.340,240.337 146.000 C 241.028 146.660,241.686 147.200,241.800 147.200 C 242.071 147.200,252.800 157.929,252.800 158.200 C 252.800 158.314,253.340 158.972,254.000 159.663 C 254.660 160.354,255.200 161.122,255.200 161.371 C 255.200 161.620,255.560 162.083,256.000 162.400 C 256.440 162.717,256.800 163.297,256.800 163.688 C 256.800 164.080,256.980 164.400,257.200 164.400 C 257.420 164.400,257.600 164.745,257.600 165.167 C 257.600 165.588,257.755 165.993,257.944 166.067 C 258.432 166.256,262.800 175.298,262.800 176.119 C 262.800 176.494,262.980 176.800,263.200 176.800 C 263.420 176.800,263.600 177.340,263.600 178.000 C 263.600 178.660,263.780 179.200,264.000 179.200 C 264.220 179.200,264.400 179.740,264.400 180.400 C 264.400 181.060,264.580 181.600,264.800 181.600 C 265.020 181.600,265.200 182.320,265.200 183.200 C 265.200 184.080,265.380 184.800,265.600 184.800 C 265.820 184.800,266.000 185.610,266.000 186.600 C 266.000 187.590,266.180 188.400,266.400 188.400 C 266.622 188.400,266.800 189.467,266.800 190.800 C 266.800 192.133,266.978 193.200,267.200 193.200 C 267.451 193.200,267.600 195.733,267.600 200.000 C 267.600 204.267,267.451 206.800,267.200 206.800 C 266.978 206.800,266.800 207.867,266.800 209.200 C 266.800 210.533,266.622 211.600,266.400 211.600 C 266.180 211.600,266.000 212.410,266.000 213.400 C 266.000 214.390,265.820 215.200,265.600 215.200 C 265.380 215.200,265.200 215.920,265.200 216.800 C 265.200 217.680,265.020 218.400,264.800 218.400 C 264.580 218.400,264.400 218.940,264.400 219.600 C 264.400 220.260,264.220 220.800,264.000 220.800 C 263.780 220.800,263.600 221.340,263.600 222.000 C 263.600 222.660,263.420 223.200,263.200 223.200 C 262.980 223.200,262.800 223.506,262.800 223.881 C 262.800 224.702,258.432 233.744,257.944 233.933 C 257.755 234.007,257.600 234.412,257.600 234.833 C 257.600 235.255,257.420 235.600,257.200 235.600 C 256.980 235.600,256.800 235.920,256.800 236.312 C 256.800 236.703,256.440 237.283,256.000 237.600 C 255.560 237.917,255.200 238.380,255.200 238.629 C 255.200 238.878,254.660 239.646,254.000 240.337 C 253.340 241.028,252.800 241.686,252.800 241.800 C 252.800 242.071,242.071 252.800,241.800 252.800 C 241.686 252.800,241.028 253.340,240.337 254.000 C 239.646 254.660,238.878 255.200,238.629 255.200 C 238.380 255.200,237.917 255.560,237.600 256.000 C 237.283 256.440,236.703 256.800,236.312 256.800 C 235.920 256.800,235.600 256.980,235.600 257.200 C 235.600 257.420,235.255 257.600,234.833 257.600 C 234.412 257.600,234.007 257.755,233.933 257.944 C 233.744 258.432,224.702 262.800,223.881 262.800 C 223.506 262.800,223.200 262.980,223.200 263.200 C 223.200 263.420,222.660 263.600,222.000 263.600 C 221.340 263.600,220.800 263.780,220.800 264.000 C 220.800 264.220,220.260 264.400,219.600 264.400 C 218.940 264.400,218.400 264.580,218.400 264.800 C 218.400 265.020,217.680 265.200,216.800 265.200 C 215.920 265.200,215.200 265.380,215.200 265.600 C 215.200 265.820,214.390 266.000,213.400 266.000 C 212.410 266.000,211.600 266.180,211.600 266.400 C 211.600 266.622,210.533 266.800,209.200 266.800 C 207.867 266.800,206.800 266.978,206.800 267.200 C 206.800 267.451,204.267 267.600,200.000 267.600 C 195.733 267.600,193.200 267.451,193.200 267.200 C 193.200 266.978,192.133 266.800,190.800 266.800 C 189.467 266.800,188.400 266.622,188.400 266.400 C 188.400 266.180,187.590 266.000,186.600 266.000 C 185.610 266.000,184.800 265.820,184.800 265.600 C 184.800 265.380,184.080 265.200,183.200 265.200 C 182.320 265.200,181.600 265.020,181.600 264.800 C 181.600 264.580,181.060 264.400,180.400 264.400 C 179.740 264.400,179.200 264.220,179.200 264.000 C 179.200 263.780,178.660 263.600,178.000 263.600 C 177.340 263.600,176.800 263.420,176.800 263.200 C 176.800 262.980,176.494 262.800,176.119 262.800 C 175.298 262.800,166.256 258.432,166.067 257.944 C 165.993 257.755,165.588 257.600,165.167 257.600 C 164.745 257.600,164.400 257.420,164.400 257.200 C 164.400 256.980,164.080 256.800,163.688 256.800 C 163.297 256.800,162.717 256.440,162.400 256.000 C 162.083 255.560,161.620 255.200,161.371 255.200 C 161.122 255.200,160.354 254.660,159.663 254.000 C 158.972 253.340,158.314 252.800,158.200 252.800 C 157.929 252.800,147.200 242.071,147.200 241.800 C 147.200 241.686,146.660 241.028,146.000 240.337 C 145.340 239.646,144.800 238.878,144.800 238.629 C 144.800 238.380,144.440 237.917,144.000 237.600 C 143.560 237.283,143.200 236.703,143.200 236.312 C 143.200 235.920,143.020 235.600,142.800 235.600 C 142.580 235.600,142.400 235.255,142.400 234.833 C 142.400 234.412,142.256 234.007,142.080 233.933 C 141.593 233.731,137.200 224.695,137.200 223.897 C 137.200 223.514,137.020 223.200,136.800 223.200 C 136.580 223.200,136.400 222.660,136.400 222.000 C 136.400 221.340,136.220 220.800,136.000 220.800 C 135.780 220.800,135.600 220.260,135.600 219.600 C 135.600 218.940,135.420 218.400,135.200 218.400 C 134.980 218.400,134.800 217.680,134.800 216.800 C 134.800 215.920,134.620 215.200,134.400 215.200 C 134.180 215.200,134.000 214.390,134.000 213.400 C 134.000 212.410,133.820 211.600,133.600 211.600 C 133.378 211.600,133.200 210.533,133.200 209.200 C 133.200 207.867,133.022 206.800,132.800 206.800 C 132.549 206.800,132.400 204.267,132.400 200.000 C 132.400 195.733,132.549 193.200,132.800 193.200 C 133.022 193.200,133.200 192.133,133.200 190.800 C 133.200 189.467,133.378 188.400,133.600 188.400 C 133.820 188.400,134.000 187.590,134.000 186.600 C 134.000 185.610,134.180 184.800,134.400 184.800 C 134.620 184.800,134.800 184.080,134.800 183.200 C 134.800 182.320,134.980 181.600,135.200 181.600 C 135.420 181.600,135.600 181.060,135.600 180.400 C 135.600 179.740,135.780 179.200,136.000 179.200 C 136.220 179.200,136.400 178.660,136.400 178.000 C 136.400 177.340,136.580 176.800,136.800 176.800 C 137.020 176.800,137.200 176.486,137.200 176.103 C 137.200 175.305,141.593 166.269,142.080 166.067 C 142.256 165.993,142.400 165.588,142.400 165.167 C 142.400 164.745,142.580 164.400,142.800 164.400 C 143.020 164.400,143.200 164.080,143.200 163.688 C 143.200 163.297,143.560 162.717,144.000 162.400 C 144.440 162.083,144.800 161.620,144.800 161.371 C 144.800 161.122,145.340 160.354,146.000 159.663 C 146.660 158.972,147.200 158.314,147.200 158.200 C 147.200 157.929,157.929 147.200,158.200 147.200 C 158.314 147.200,158.972 146.660,159.663 146.000 C 160.354 145.340,161.122 144.800,161.371 144.800 C 161.620 144.800,162.083 144.440,162.400 144.000 C 162.717 143.560,163.297 143.200,163.688 143.200 C 164.080 143.200,164.400 143.020,164.400 142.800 C 164.400 142.580,164.745 142.400,165.167 142.400 C 165.588 142.400,165.993 142.256,166.067 142.080 C 166.269 141.593,175.305 137.200,176.103 137.200 C 176.486 137.200,176.800 137.020,176.800 136.800 C 176.800 136.580,177.340 136.400,178.000 136.400 C 178.660 136.400,179.200 136.220,179.200 136.000 C 179.200 135.780,179.740 135.600,180.400 135.600 C 181.060 135.600,181.600 135.420,181.600 135.200 C 181.600 134.980,182.320 134.800,183.200 134.800 C 184.080 134.800,184.800 134.620,184.800 134.400 C 184.800 134.180,185.610 134.000,186.600 134.000 C 187.590 134.000,188.400 133.820,188.400 133.600 C 188.400 133.378,189.467 133.200,190.800 133.200 C 192.133 133.200,193.200 133.022,193.200 132.800 C 193.200 132.549,195.733 132.400,200.000 132.400 C 204.267 132.400,206.800 132.549,206.800 132.800 M292.400 166.000 L 292.400 171.600 298.200 171.600 L 304.000 171.600 304.000 166.000 L 304.000 160.400 298.200 160.400 L 292.400 160.400 292.400 166.000 M354.575 166.922 C 354.464 167.209,354.425 169.684,354.487 172.422 L 354.600 177.400 360.200 177.400 L 365.800 177.400 365.911 171.900 L 366.023 166.400 360.399 166.400 C 356.141 166.400,354.726 166.527,354.575 166.922 M91.600 200.000 L 91.600 205.600 97.200 205.600 L 102.800 205.600 102.800 200.000 L 102.800 194.400 97.200 194.400 L 91.600 194.400 91.600 200.000 M292.400 241.600 L 292.400 247.222 298.100 247.111 L 303.800 247.000 303.800 241.600 L 303.800 236.200 298.100 236.089 L 292.400 235.978 292.400 241.600 M37.200 247.400 L 37.200 253.222 42.900 253.111 L 48.600 253.000 48.600 247.400 L 48.600 241.800 42.900 241.689 L 37.200 241.578 37.200 247.400 M114.400 274.611 L 114.400 280.422 120.100 280.311 L 125.800 280.200 125.911 274.500 L 126.022 268.800 120.211 268.800 L 114.400 268.800 114.400 274.611 M331.200 285.600 L 331.200 291.200 337.000 291.200 L 342.800 291.200 342.800 285.600 L 342.800 280.000 337.000 280.000 L 331.200 280.000 331.200 285.600 M241.600 298.800 L 241.600 304.400 247.400 304.400 L 253.200 304.400 253.200 298.800 L 253.200 293.200 247.400 293.200 L 241.600 293.200 241.600 298.800 M116.600 331.015 C 123.251 332.361,124.907 333.151,132.644 338.669 C 142.513 345.708,149.069 347.827,160.800 347.769 C 169.489 347.726,171.400 347.245,182.351 342.344 C 194.142 337.067,205.316 336.839,215.600 341.666 C 222.721 345.008,226.196 346.243,231.024 347.146 C 233.951 347.694,242.992 347.745,245.323 347.227 C 246.245 347.022,248.170 346.634,249.600 346.365 C 255.100 345.330,260.347 342.995,266.600 338.800 C 277.189 331.696,289.957 329.083,300.400 331.883 C 303.452 332.701,305.925 333.232,310.167 333.982 C 313.043 334.490,319.282 334.526,321.200 334.044 C 321.970 333.851,323.950 333.474,325.600 333.207 C 327.250 332.939,328.960 332.570,329.400 332.387 C 334.274 330.353,334.501 330.943,330.390 334.952 C 315.709 349.267,296.120 362.616,277.399 371.063 C 264.422 376.919,247.446 382.313,235.400 384.410 C 209.738 388.876,190.262 388.876,164.600 384.410 C 163.500 384.218,161.700 383.861,160.600 383.615 C 125.996 375.898,96.572 360.271,70.418 335.720 C 67.785 333.248,67.908 333.230,76.520 334.841 C 79.174 335.337,85.595 335.291,87.894 334.759 C 89.584 334.368,94.840 332.956,98.200 331.990 C 98.860 331.800,100.120 331.442,101.000 331.193 C 105.308 329.977,111.139 329.910,116.600 331.015 " stroke="none" fill="#0a0908" fill-rule="evenodd"></path><path id="path2" d="M189.104 13.029 C 188.953 13.180,186.619 13.459,183.915 13.651 C 178.580 14.028,173.914 14.557,170.300 15.194 C 163.656 16.366,161.412 16.808,158.200 17.579 C 157.320 17.791,155.868 18.121,154.974 18.315 C 152.857 18.772,144.034 21.212,143.000 21.626 C 142.560 21.803,141.480 22.161,140.600 22.423 C 139.720 22.684,138.687 23.056,138.305 23.249 C 137.923 23.442,137.336 23.600,137.000 23.600 C 136.664 23.600,136.077 23.759,135.695 23.953 C 134.803 24.407,132.873 25.213,129.600 26.500 C 129.050 26.716,128.287 27.052,127.905 27.247 C 127.523 27.441,126.938 27.600,126.605 27.600 C 126.272 27.600,126.000 27.780,126.000 28.000 C 126.000 28.220,125.755 28.400,125.456 28.400 C 125.157 28.400,123.852 28.918,122.556 29.552 C 121.260 30.186,118.940 31.309,117.400 32.049 C 113.300 34.018,103.510 39.448,101.538 40.847 C 100.954 41.261,100.279 41.600,100.038 41.600 C 99.797 41.600,99.600 41.780,99.600 42.000 C 99.600 42.220,99.330 42.400,99.000 42.400 C 98.670 42.400,98.400 42.580,98.400 42.800 C 98.400 43.020,98.130 43.200,97.800 43.200 C 97.470 43.200,97.200 43.380,97.200 43.600 C 97.200 43.820,96.930 44.000,96.600 44.000 C 96.270 44.000,96.000 44.180,96.000 44.400 C 96.000 44.620,95.812 44.800,95.583 44.800 C 95.354 44.800,94.780 45.160,94.308 45.600 C 93.836 46.040,93.213 46.400,92.925 46.400 C 92.636 46.400,92.400 46.541,92.400 46.714 C 92.400 46.886,91.867 47.343,91.215 47.728 C 90.563 48.113,89.798 48.648,89.515 48.916 C 89.232 49.185,87.560 50.483,85.800 51.802 C 84.040 53.121,82.510 54.292,82.400 54.405 C 82.290 54.519,81.215 55.419,80.011 56.405 C 73.373 61.849,61.849 73.373,56.405 80.011 C 55.419 81.215,54.519 82.290,54.405 82.400 C 54.292 82.510,53.121 84.040,51.802 85.800 C 50.483 87.560,49.185 89.232,48.916 89.515 C 48.648 89.798,48.113 90.563,47.728 91.215 C 47.343 91.867,46.886 92.400,46.714 92.400 C 46.541 92.400,46.400 92.636,46.400 92.925 C 46.400 93.213,46.040 93.836,45.600 94.308 C 45.160 94.780,44.800 95.354,44.800 95.583 C 44.800 95.812,44.620 96.000,44.400 96.000 C 44.180 96.000,44.000 96.270,44.000 96.600 C 44.000 96.930,43.820 97.200,43.600 97.200 C 43.380 97.200,43.200 97.470,43.200 97.800 C 43.200 98.130,43.020 98.400,42.800 98.400 C 42.580 98.400,42.400 98.670,42.400 99.000 C 42.400 99.330,42.220 99.600,42.000 99.600 C 41.780 99.600,41.600 99.797,41.600 100.038 C 41.600 100.279,41.261 100.954,40.847 101.538 C 39.448 103.510,34.018 113.300,32.049 117.400 C 31.309 118.940,30.186 121.260,29.552 122.556 C 28.918 123.852,28.400 125.157,28.400 125.456 C 28.400 125.755,28.220 126.000,28.000 126.000 C 27.780 126.000,27.600 126.272,27.600 126.605 C 27.600 126.938,27.441 127.523,27.247 127.905 C 26.873 128.640,26.124 130.399,25.546 131.900 C 24.873 133.649,24.303 135.008,23.953 135.695 C 23.759 136.077,23.600 136.664,23.600 137.000 C 23.600 137.336,23.442 137.923,23.249 138.305 C 23.056 138.687,22.684 139.720,22.423 140.600 C 22.161 141.480,21.803 142.560,21.626 143.000 C 21.244 143.954,18.799 152.743,18.351 154.774 C 18.178 155.558,17.847 157.010,17.616 158.000 C 16.755 161.685,16.360 163.692,15.194 170.300 C 13.149 181.901,12.330 204.401,13.539 215.800 C 13.819 218.440,14.211 222.130,14.409 224.000 C 14.608 225.870,14.942 228.300,15.151 229.400 C 15.360 230.500,15.742 232.570,16.000 234.000 C 17.102 240.114,17.042 239.841,18.974 247.600 C 20.123 252.212,22.657 260.598,23.234 261.695 C 23.436 262.077,23.600 262.628,23.600 262.919 C 23.600 263.211,23.960 264.195,24.400 265.106 C 24.840 266.016,25.200 267.040,25.200 267.381 C 25.200 267.721,25.380 268.000,25.600 268.000 C 25.820 268.000,26.000 268.450,26.000 269.000 C 26.000 269.550,26.180 270.000,26.400 270.000 C 26.620 270.000,26.800 270.272,26.800 270.605 C 26.800 270.938,26.959 271.523,27.153 271.905 C 27.348 272.287,27.690 273.050,27.914 273.600 C 29.256 276.895,34.099 286.718,36.492 291.000 C 40.894 298.877,40.476 298.396,44.483 300.166 C 46.925 301.245,46.915 301.254,45.964 298.900 C 45.062 296.668,44.857 296.126,44.487 295.000 C 44.270 294.340,43.874 292.990,43.607 292.000 C 43.340 291.010,42.960 289.887,42.761 289.505 C 42.562 289.123,42.400 288.369,42.400 287.829 C 42.400 287.289,42.220 286.736,42.000 286.600 C 41.780 286.464,41.600 285.834,41.600 285.200 C 41.600 284.566,41.441 283.949,41.246 283.829 C 41.051 283.708,40.791 283.113,40.666 282.505 C 40.142 279.944,39.506 276.888,39.165 275.300 C 38.964 274.365,38.636 272.835,38.436 271.900 C 34.988 255.783,34.012 232.406,36.037 214.400 C 36.985 205.963,38.175 199.176,40.068 191.400 C 40.282 190.520,40.555 189.213,40.673 188.496 C 40.792 187.779,41.049 187.094,41.244 186.973 C 41.440 186.852,41.600 186.234,41.600 185.600 C 41.600 184.966,41.780 184.336,42.000 184.200 C 42.220 184.064,42.400 183.511,42.400 182.971 C 42.400 182.431,42.562 181.677,42.759 181.295 C 42.956 180.913,43.529 179.250,44.031 177.600 C 44.533 175.950,45.092 174.429,45.272 174.220 C 45.452 174.011,45.600 173.514,45.600 173.115 C 45.600 172.716,45.759 172.077,45.953 171.695 C 46.450 170.717,47.600 167.882,48.425 165.600 C 49.701 162.071,55.527 149.779,57.965 145.475 C 58.424 144.664,59.143 143.395,59.562 142.655 C 59.982 141.915,60.567 140.880,60.862 140.355 C 61.158 139.830,61.577 139.274,61.793 139.119 C 62.009 138.964,62.279 136.984,62.393 134.719 C 62.646 129.686,62.696 129.600,65.395 129.600 C 67.778 129.600,68.090 129.391,70.071 126.470 C 70.769 125.442,71.713 124.137,72.170 123.571 C 72.626 123.006,73.450 121.933,74.000 121.187 C 78.863 114.594,89.259 103.468,96.786 96.800 C 98.649 95.150,100.539 93.473,100.986 93.074 C 101.434 92.675,102.790 91.595,104.000 90.675 C 105.210 89.755,106.290 88.899,106.400 88.773 C 106.994 88.091,117.433 80.552,119.066 79.625 C 119.671 79.281,120.523 78.685,120.958 78.300 C 121.394 77.915,121.987 77.600,122.275 77.600 C 122.564 77.600,122.800 77.441,122.800 77.247 C 122.800 77.052,123.115 76.793,123.500 76.671 C 124.185 76.454,126.404 75.196,126.800 74.800 C 126.910 74.690,127.430 74.358,127.955 74.062 C 128.480 73.767,129.560 73.154,130.355 72.701 C 134.787 70.175,148.062 63.915,152.200 62.400 C 153.394 61.963,155.308 61.153,156.095 60.753 C 156.477 60.559,157.064 60.400,157.400 60.400 C 157.736 60.400,158.323 60.241,158.705 60.047 C 159.951 59.413,161.350 58.910,164.400 58.000 C 166.050 57.508,167.760 56.960,168.200 56.782 C 168.640 56.605,169.450 56.369,170.000 56.258 C 170.550 56.147,171.720 55.851,172.600 55.601 C 176.188 54.582,183.735 52.890,187.000 52.373 C 191.568 51.649,191.156 52.099,191.286 47.696 L 191.400 43.800 197.700 43.690 L 204.000 43.580 204.000 46.566 C 204.000 50.256,203.131 49.953,212.649 49.577 C 231.575 48.830,249.479 50.570,266.400 54.800 C 267.280 55.020,268.675 55.368,269.500 55.573 C 270.325 55.779,271.660 56.116,272.467 56.324 C 274.332 56.803,278.800 58.902,278.800 59.299 C 278.800 59.465,278.993 59.600,279.228 59.600 C 279.463 59.600,280.441 60.140,281.400 60.800 C 282.359 61.460,283.337 62.000,283.572 62.000 C 283.807 62.000,284.000 62.180,284.000 62.400 C 284.000 62.620,284.236 62.800,284.525 62.800 C 284.813 62.800,285.436 63.160,285.908 63.600 C 286.380 64.040,286.909 64.400,287.083 64.401 C 287.257 64.401,288.030 64.941,288.800 65.600 C 289.570 66.259,290.425 66.799,290.700 66.799 C 290.975 66.800,291.200 66.941,291.200 67.114 C 291.200 67.286,291.733 67.743,292.385 68.128 C 293.037 68.513,293.802 69.048,294.085 69.316 C 295.882 71.020,300.783 74.395,301.428 74.372 C 301.869 74.356,303.022 73.325,304.119 71.965 L 306.039 69.584 309.119 71.258 C 310.814 72.179,312.560 73.128,313.000 73.366 C 313.440 73.605,313.890 73.890,314.000 74.001 C 314.110 74.111,314.740 74.469,315.400 74.797 C 320.305 77.230,339.450 91.012,343.199 94.808 C 343.530 95.142,344.430 95.926,345.200 96.550 C 347.444 98.367,355.537 106.402,358.794 110.048 C 360.441 111.892,361.887 113.490,362.008 113.600 C 362.415 113.973,366.588 119.074,368.700 121.781 C 370.534 124.133,371.506 124.532,370.435 122.495 C 370.234 122.113,368.728 119.100,367.088 115.800 C 365.447 112.500,363.542 108.847,362.853 107.682 C 362.164 106.518,361.600 105.393,361.600 105.182 C 361.600 104.972,361.454 104.800,361.275 104.800 C 361.096 104.800,360.702 104.170,360.400 103.400 C 360.098 102.630,359.704 102.000,359.525 102.000 C 359.346 102.000,359.200 101.730,359.200 101.400 C 359.200 101.070,359.020 100.800,358.800 100.800 C 358.580 100.800,358.400 100.530,358.400 100.200 C 358.400 99.870,358.220 99.600,358.000 99.600 C 357.780 99.600,357.600 99.330,357.600 99.000 C 357.600 98.670,357.464 98.400,357.298 98.400 C 357.131 98.400,356.774 97.905,356.503 97.300 C 356.233 96.695,355.559 95.677,355.006 95.038 C 354.453 94.399,354.000 93.736,354.000 93.566 C 354.000 93.396,353.766 93.019,353.481 92.729 C 353.196 92.438,352.406 91.390,351.726 90.400 C 350.701 88.908,348.270 85.750,345.876 82.800 C 345.608 82.470,344.761 81.405,343.994 80.433 C 340.603 76.138,327.747 62.971,323.000 58.932 C 318.501 55.104,316.908 53.801,314.154 51.692 C 312.639 50.532,311.040 49.305,310.600 48.965 C 310.160 48.625,309.305 48.050,308.700 47.687 C 308.095 47.324,307.600 46.886,307.600 46.714 C 307.600 46.541,307.375 46.400,307.100 46.399 C 306.825 46.399,305.970 45.856,305.200 45.194 C 304.430 44.531,303.305 43.768,302.700 43.497 C 302.095 43.226,301.600 42.869,301.600 42.702 C 301.600 42.536,301.330 42.400,301.000 42.400 C 300.670 42.400,300.400 42.220,300.400 42.000 C 300.400 41.780,300.207 41.600,299.972 41.600 C 299.737 41.600,298.759 41.060,297.800 40.400 C 296.841 39.740,295.972 39.200,295.869 39.200 C 295.766 39.200,294.538 38.505,293.139 37.655 C 291.741 36.806,287.808 34.713,284.398 33.004 C 275.572 28.581,275.186 28.400,274.562 28.400 C 274.253 28.400,274.000 28.220,274.000 28.000 C 274.000 27.780,273.728 27.600,273.395 27.600 C 273.062 27.600,272.477 27.441,272.095 27.247 C 271.713 27.052,270.950 26.716,270.400 26.500 C 269.850 26.284,268.905 25.903,268.300 25.654 C 267.695 25.404,266.705 24.999,266.100 24.753 C 265.495 24.508,264.687 24.148,264.305 23.953 C 263.923 23.759,263.336 23.600,263.000 23.600 C 262.664 23.600,262.077 23.438,261.695 23.239 C 261.313 23.040,260.190 22.649,259.200 22.368 C 258.210 22.088,257.220 21.759,257.000 21.637 C 256.295 21.246,243.634 17.923,240.200 17.227 C 238.880 16.959,237.170 16.583,236.400 16.391 C 235.630 16.199,234.280 15.924,233.400 15.780 C 232.520 15.636,230.810 15.355,229.600 15.156 C 226.260 14.607,221.069 13.975,216.400 13.548 C 211.168 13.070,189.475 12.658,189.104 13.029 M242.081 29.958 C 242.587 30.155,243.810 30.540,244.800 30.812 C 248.031 31.702,249.387 32.106,250.200 32.420 C 250.640 32.589,252.710 33.306,254.800 34.012 C 271.626 39.699,291.649 50.532,304.627 60.970 C 305.742 61.866,307.137 62.958,307.727 63.395 C 309.400 64.634,309.092 65.423,305.388 69.400 C 304.568 70.280,303.449 71.585,302.901 72.300 C 301.563 74.047,301.320 73.990,297.506 71.054 C 286.253 62.387,275.344 56.045,260.400 49.481 C 256.482 47.759,246.382 44.231,241.400 42.843 C 238.007 41.897,236.571 41.437,236.296 41.206 C 236.036 40.989,236.665 38.036,238.446 31.100 C 238.860 29.488,239.976 29.137,242.081 29.958 M125.110 49.855 C 126.013 50.097,126.019 50.150,125.910 56.149 L 125.800 62.200 119.500 62.310 L 113.200 62.420 113.200 56.277 C 113.200 52.898,113.320 50.013,113.467 49.867 C 113.800 49.533,123.872 49.523,125.110 49.855 M360.501 217.300 C 360.283 217.575,359.986 218.970,359.841 220.400 C 359.697 221.830,359.412 224.080,359.208 225.400 C 358.858 227.660,358.703 228.526,357.662 234.000 C 357.006 237.452,354.942 245.176,353.404 249.934 C 351.484 255.873,351.311 255.354,355.700 256.840 C 356.415 257.083,357.360 257.424,357.800 257.600 C 358.240 257.776,359.230 258.136,360.000 258.400 C 360.770 258.664,361.809 259.075,362.308 259.312 C 362.867 259.578,363.356 259.601,363.581 259.372 C 364.309 258.630,368.149 246.220,367.878 245.486 C 367.779 245.219,367.573 245.540,367.419 246.200 C 367.265 246.860,366.612 249.110,365.968 251.200 C 365.325 253.290,364.586 255.720,364.327 256.600 C 363.563 259.195,363.473 259.230,360.485 258.121 C 359.008 257.573,356.720 256.758,355.400 256.310 C 352.081 255.183,352.116 255.267,353.377 251.512 C 353.989 249.691,354.660 247.570,354.867 246.800 C 355.075 246.030,355.427 244.770,355.649 244.000 C 355.871 243.230,356.205 241.970,356.391 241.200 C 356.576 240.430,357.001 238.720,357.334 237.400 C 357.871 235.269,358.616 231.450,359.977 223.833 C 360.210 222.532,360.400 220.811,360.400 220.010 C 360.400 218.179,361.065 217.296,362.600 217.085 C 363.711 216.932,363.692 216.915,362.349 216.860 C 361.551 216.827,360.719 217.025,360.501 217.300 M365.800 217.623 C 366.680 217.805,368.300 217.942,369.400 217.927 L 371.400 217.900 369.600 217.580 C 368.610 217.403,366.990 217.267,366.000 217.276 L 364.200 217.292 365.800 217.623 M372.138 221.304 C 372.099 223.382,372.200 224.304,372.410 223.800 C 372.830 222.794,372.904 217.999,372.500 218.004 C 372.335 218.006,372.172 219.491,372.138 221.304 M371.665 226.000 C 371.625 226.550,371.499 227.720,371.385 228.600 C 371.206 229.994,371.234 230.073,371.608 229.214 C 371.845 228.672,371.971 227.502,371.889 226.614 C 371.807 225.726,371.706 225.450,371.665 226.000 M370.618 232.218 C 370.465 233.239,370.430 234.163,370.540 234.273 C 370.650 234.383,370.865 233.639,371.018 232.618 C 371.171 231.598,371.206 230.673,371.096 230.563 C 370.986 230.453,370.771 231.198,370.618 232.218 M369.819 236.327 C 369.655 237.277,369.617 238.150,369.734 238.268 C 370.026 238.559,370.526 235.773,370.300 235.121 C 370.200 234.835,369.984 235.377,369.819 236.327 M369.000 240.000 C 368.848 240.691,368.814 241.347,368.924 241.457 C 369.034 241.567,369.248 241.091,369.400 240.400 C 369.552 239.709,369.586 239.053,369.476 238.943 C 369.366 238.833,369.152 239.309,369.000 240.000 M368.200 243.200 C 368.048 243.891,368.014 244.547,368.124 244.657 C 368.234 244.767,368.448 244.291,368.600 243.600 C 368.752 242.909,368.786 242.253,368.676 242.143 C 368.566 242.033,368.352 242.509,368.200 243.200 " stroke="none" fill="#f3acd3" fill-rule="evenodd"></path><path id="path3" d="M238.446 31.100 C 236.665 38.036,236.036 40.989,236.296 41.206 C 236.571 41.437,238.007 41.897,241.400 42.843 C 246.382 44.231,256.482 47.759,260.400 49.481 C 275.344 56.045,286.253 62.387,297.506 71.054 C 301.320 73.990,301.563 74.047,302.901 72.300 C 303.449 71.585,304.568 70.280,305.388 69.400 C 309.092 65.423,309.400 64.634,307.727 63.395 C 307.137 62.958,305.742 61.866,304.627 60.970 C 291.649 50.532,271.626 39.699,254.800 34.012 C 252.710 33.306,250.640 32.589,250.200 32.420 C 249.387 32.106,248.031 31.702,244.800 30.812 C 243.810 30.540,242.587 30.155,242.081 29.958 C 239.976 29.137,238.860 29.488,238.446 31.100 M360.842 217.921 C 360.599 218.376,360.400 219.359,360.400 220.107 C 360.400 220.855,360.210 222.532,359.977 223.833 C 358.616 231.450,357.871 235.269,357.334 237.400 C 357.001 238.720,356.576 240.430,356.391 241.200 C 356.205 241.970,355.871 243.230,355.649 244.000 C 355.427 244.770,355.075 246.030,354.867 246.800 C 354.660 247.570,353.989 249.691,353.377 251.512 C 352.116 255.267,352.081 255.183,355.400 256.310 C 356.720 256.758,359.008 257.573,360.485 258.121 C 363.504 259.242,363.559 259.218,364.382 256.400 C 364.671 255.410,365.236 253.610,365.638 252.400 C 368.000 245.291,370.599 233.745,371.814 224.960 C 372.762 218.102,372.819 218.252,369.200 217.946 C 367.550 217.806,365.094 217.557,363.742 217.393 C 361.504 217.122,361.245 217.169,360.842 217.921 M104.734 355.000 C 104.624 355.109,103.739 355.370,102.767 355.579 C 101.795 355.788,100.380 356.109,99.622 356.292 L 98.244 356.624 99.198 357.512 C 99.722 358.000,100.387 358.400,100.675 358.400 C 100.964 358.400,101.200 358.580,101.200 358.800 C 101.200 359.020,101.470 359.200,101.800 359.200 C 102.130 359.200,102.400 359.359,102.400 359.553 C 102.400 359.748,102.715 360.013,103.100 360.142 C 103.485 360.272,104.340 360.700,105.000 361.094 C 110.285 364.245,121.430 370.000,122.248 370.000 C 122.552 370.000,122.800 370.180,122.800 370.400 C 122.800 370.620,123.053 370.800,123.362 370.800 C 123.671 370.800,124.706 371.186,125.662 371.657 C 127.327 372.478,128.461 372.963,130.200 373.600 C 132.046 374.276,135.131 375.557,136.095 376.047 C 136.477 376.241,137.152 376.400,137.595 376.400 C 138.038 376.400,138.400 376.580,138.400 376.800 C 138.400 377.020,138.929 377.200,139.576 377.200 C 140.223 377.200,140.864 377.380,141.000 377.600 C 141.136 377.820,141.599 378.000,142.029 378.000 C 142.459 378.000,143.123 378.161,143.505 378.358 C 143.887 378.555,146.720 379.373,149.800 380.177 C 152.880 380.980,155.953 381.809,156.628 382.019 C 157.304 382.228,158.328 382.400,158.905 382.400 C 159.481 382.400,160.064 382.580,160.200 382.800 C 160.336 383.020,161.236 383.200,162.200 383.200 C 163.164 383.200,164.064 383.380,164.200 383.600 C 164.336 383.820,165.301 384.000,166.344 384.000 C 167.387 384.000,168.411 384.164,168.620 384.365 C 168.990 384.720,171.081 385.005,176.400 385.425 C 177.830 385.539,179.360 385.797,179.800 386.000 C 182.805 387.387,212.269 387.132,223.200 385.624 C 224.850 385.396,227.190 385.109,228.400 384.986 C 229.610 384.862,230.960 384.600,231.400 384.403 C 232.147 384.069,232.952 383.932,237.600 383.349 C 238.590 383.224,239.571 382.960,239.780 382.761 C 239.989 382.563,240.606 382.400,241.152 382.400 C 241.697 382.400,242.696 382.225,243.372 382.010 C 244.047 381.796,245.680 381.351,247.000 381.022 C 252.064 379.760,256.414 378.519,256.668 378.265 C 256.814 378.119,257.343 378.000,257.843 378.000 C 258.343 378.000,258.864 377.820,259.000 377.600 C 259.136 377.380,259.777 377.200,260.424 377.200 C 261.071 377.200,261.600 377.020,261.600 376.800 C 261.600 376.580,262.039 376.400,262.576 376.400 C 263.113 376.400,263.664 376.220,263.800 376.000 C 263.936 375.780,264.487 375.600,265.024 375.600 C 265.561 375.600,266.000 375.420,266.000 375.200 C 266.000 374.980,266.272 374.800,266.605 374.800 C 266.938 374.800,267.523 374.641,267.905 374.447 C 268.287 374.252,269.095 373.892,269.700 373.647 C 270.305 373.401,271.295 372.999,271.900 372.753 C 272.505 372.508,273.313 372.148,273.695 371.953 C 274.077 371.759,274.662 371.600,274.995 371.600 C 275.328 371.600,275.600 371.420,275.600 371.200 C 275.600 370.980,275.960 370.800,276.400 370.800 C 276.840 370.800,277.200 370.620,277.200 370.400 C 277.200 370.180,277.448 370.000,277.750 370.000 C 278.355 370.000,292.984 362.616,293.600 362.000 C 293.710 361.890,294.205 361.575,294.700 361.300 C 295.195 361.025,296.005 360.575,296.500 360.300 C 296.995 360.025,297.490 359.710,297.600 359.599 C 297.710 359.489,298.250 359.164,298.800 358.877 C 300.413 358.036,301.362 357.228,301.075 356.941 C 300.090 355.957,290.248 355.325,286.052 355.978 C 277.458 357.313,274.052 358.623,266.800 363.376 C 262.166 366.414,258.395 368.443,256.000 369.186 C 255.010 369.493,254.020 369.868,253.800 370.021 C 253.580 370.173,252.500 370.491,251.400 370.729 C 250.300 370.967,248.320 371.395,247.000 371.681 C 241.306 372.913,231.046 372.280,225.000 370.324 C 222.362 369.470,222.520 369.536,217.400 367.187 C 205.280 361.626,194.436 361.438,183.400 366.598 C 175.456 370.311,173.580 370.968,167.400 372.200 C 164.146 372.848,156.380 372.973,153.906 372.416 C 152.968 372.205,151.120 371.826,149.800 371.573 C 144.787 370.613,138.713 367.846,134.012 364.379 C 126.870 359.114,123.346 357.176,119.400 356.346 C 112.798 354.956,105.451 354.282,104.734 355.000 " stroke="none" fill="#fbe5c5" fill-rule="evenodd"></path><path id="path4" d="M102.600 330.876 C 101.720 331.092,99.290 331.796,97.200 332.439 C 89.438 334.829,87.429 335.200,82.261 335.200 C 77.960 335.200,75.429 334.916,71.076 333.944 C 70.018 333.707,69.067 333.600,68.962 333.705 C 68.410 334.257,83.278 347.136,90.000 351.929 C 94.683 355.269,101.937 359.957,106.200 362.399 C 106.860 362.777,108.210 363.559,109.200 364.137 C 114.291 367.106,122.800 371.025,122.800 370.400 C 122.800 370.180,122.552 370.000,122.248 370.000 C 121.430 370.000,110.285 364.245,105.000 361.094 C 104.340 360.700,103.485 360.272,103.100 360.142 C 102.715 360.013,102.400 359.748,102.400 359.553 C 102.400 359.359,102.130 359.200,101.800 359.200 C 101.470 359.200,101.200 359.020,101.200 358.800 C 101.200 358.580,100.964 358.400,100.675 358.400 C 100.387 358.400,99.722 358.000,99.198 357.512 L 98.244 356.624 99.622 356.291 C 100.380 356.108,101.720 355.771,102.600 355.543 C 105.592 354.767,110.529 354.691,114.250 355.364 C 123.431 357.024,125.019 357.749,134.012 364.379 C 138.713 367.846,144.787 370.613,149.800 371.573 C 151.120 371.826,152.968 372.205,153.906 372.416 C 156.380 372.973,164.146 372.848,167.400 372.200 C 173.580 370.968,175.456 370.311,183.400 366.598 C 194.436 361.438,205.280 361.626,217.400 367.187 C 222.520 369.536,222.362 369.470,225.000 370.324 C 231.046 372.280,241.306 372.913,247.000 371.681 C 248.320 371.395,250.300 370.967,251.400 370.729 C 252.500 370.491,253.580 370.173,253.800 370.021 C 254.020 369.868,255.010 369.493,256.000 369.186 C 258.395 368.443,262.166 366.414,266.800 363.376 C 274.052 358.623,277.458 357.313,286.052 355.978 C 290.248 355.325,300.090 355.957,301.075 356.941 C 301.362 357.228,300.413 358.036,298.800 358.877 C 298.250 359.164,297.710 359.489,297.600 359.599 C 297.206 359.995,294.987 361.254,294.300 361.471 C 293.707 361.659,293.275 362.400,293.759 362.400 C 294.465 362.400,306.330 354.638,311.200 350.990 C 320.481 344.038,333.995 332.128,333.342 331.475 C 333.227 331.360,332.203 331.581,331.066 331.967 C 329.930 332.352,327.830 332.890,326.400 333.161 C 324.970 333.432,323.045 333.822,322.123 334.027 C 317.560 335.042,310.061 334.392,300.929 332.192 C 291.216 329.852,278.772 331.507,271.146 336.153 C 269.659 337.059,266.948 338.719,265.121 339.841 C 255.445 345.788,249.266 347.600,238.657 347.600 C 229.382 347.600,226.559 346.867,214.400 341.303 C 212.970 340.649,210.810 339.886,209.600 339.607 C 208.390 339.328,206.878 338.943,206.240 338.750 C 204.620 338.261,194.640 338.312,192.646 338.819 C 188.626 339.843,185.141 341.102,181.800 342.737 C 167.156 349.904,149.898 349.924,138.644 342.787 C 137.615 342.134,136.678 341.600,136.563 341.600 C 136.447 341.600,135.689 341.092,134.877 340.470 C 126.622 334.156,123.571 332.592,116.776 331.190 C 112.669 330.342,105.423 330.182,102.600 330.876 M291.789 362.944 C 290.313 363.963,278.299 370.000,277.748 370.000 C 277.447 370.000,277.200 370.180,277.200 370.400 C 277.200 370.620,276.840 370.800,276.400 370.800 C 275.960 370.800,275.600 370.980,275.600 371.200 C 275.600 371.899,290.038 365.015,292.400 363.190 C 293.530 362.317,293.004 362.106,291.789 362.944 M124.400 371.596 C 126.714 372.857,132.014 374.920,132.273 374.661 C 132.406 374.528,132.174 374.308,131.757 374.173 C 131.341 374.038,130.595 373.764,130.100 373.564 C 129.605 373.364,128.795 373.046,128.300 372.857 C 127.805 372.668,126.618 372.128,125.662 371.657 C 123.515 370.598,122.477 370.548,124.400 371.596 M273.600 371.977 C 272.680 372.483,269.753 373.683,268.243 374.173 C 267.826 374.308,267.598 374.531,267.734 374.668 C 267.966 374.899,275.200 372.067,275.200 371.745 C 275.200 371.492,274.224 371.634,273.600 371.977 M133.000 375.200 C 133.136 375.420,133.517 375.600,133.847 375.600 C 134.177 375.600,134.336 375.420,134.200 375.200 C 134.064 374.980,133.683 374.800,133.353 374.800 C 133.023 374.800,132.864 374.980,133.000 375.200 M137.200 376.800 C 137.976 377.301,138.400 377.301,138.400 376.800 C 138.400 376.580,137.995 376.403,137.500 376.406 C 136.772 376.411,136.715 376.486,137.200 376.800 M261.600 376.800 C 261.600 377.301,262.024 377.301,262.800 376.800 C 263.285 376.486,263.228 376.411,262.500 376.406 C 262.005 376.403,261.600 376.580,261.600 376.800 M139.600 377.600 C 140.388 378.109,141.315 378.109,141.000 377.600 C 140.864 377.380,140.358 377.203,139.876 377.206 C 139.164 377.211,139.112 377.285,139.600 377.600 M259.000 377.600 C 258.685 378.109,259.612 378.109,260.400 377.600 C 260.888 377.285,260.836 377.211,260.124 377.206 C 259.642 377.203,259.136 377.380,259.000 377.600 M142.000 378.400 C 142.788 378.909,143.715 378.909,143.400 378.400 C 143.264 378.180,142.758 378.003,142.276 378.006 C 141.564 378.011,141.512 378.085,142.000 378.400 M256.600 378.400 C 256.285 378.909,257.212 378.909,258.000 378.400 C 258.488 378.085,258.436 378.011,257.724 378.006 C 257.242 378.003,256.736 378.180,256.600 378.400 M144.600 379.185 C 145.040 379.366,146.210 379.735,147.200 380.004 C 148.190 380.273,149.450 380.631,150.000 380.800 C 152.373 381.529,155.092 382.186,161.400 383.555 C 174.435 386.384,184.691 387.400,200.200 387.400 C 212.508 387.400,224.338 386.457,232.400 384.834 C 241.903 382.921,246.598 381.845,250.000 380.800 C 250.550 380.631,251.810 380.273,252.800 380.004 C 255.209 379.350,256.369 378.862,255.599 378.827 C 255.268 378.812,253.738 379.172,252.199 379.626 C 250.659 380.081,248.320 380.716,247.000 381.037 C 245.680 381.358,244.047 381.796,243.372 382.010 C 242.696 382.225,241.697 382.400,241.152 382.400 C 240.606 382.400,239.989 382.563,239.780 382.761 C 239.571 382.960,238.590 383.224,237.600 383.349 C 232.952 383.932,232.147 384.069,231.400 384.403 C 230.960 384.600,229.610 384.862,228.400 384.986 C 227.190 385.109,224.850 385.396,223.200 385.624 C 212.269 387.132,182.805 387.387,179.800 386.000 C 179.360 385.797,177.830 385.539,176.400 385.425 C 171.081 385.005,168.990 384.720,168.620 384.365 C 168.411 384.164,167.387 384.000,166.344 384.000 C 165.301 384.000,164.336 383.820,164.200 383.600 C 164.064 383.380,163.164 383.200,162.200 383.200 C 161.236 383.200,160.336 383.020,160.200 382.800 C 160.064 382.580,159.481 382.400,158.905 382.400 C 158.328 382.400,157.304 382.230,156.628 382.021 C 150.437 380.112,142.068 378.139,144.600 379.185 " stroke="none" fill="#f4bd73" fill-rule="evenodd"></path></g></svg>