<svg width="265" height="265" xmlns="http://www.w3.org/2000/svg" xmlns:xlink="http://www.w3.org/1999/xlink" overflow="hidden"><defs><clipPath id="clip0"><path d="M529 175 794 175 794 440 529 440Z" fill-rule="evenodd" clip-rule="evenodd"/></clipPath><clipPath id="clip1"><path d="M530 176 793 176 793 439 530 439Z" fill-rule="evenodd" clip-rule="evenodd"/></clipPath><clipPath id="clip2"><path d="M530 176 793 176 793 440 530 440Z" fill-rule="evenodd" clip-rule="evenodd"/></clipPath></defs><g clip-path="url(#clip0)" transform="translate(-529 -175)"><g clip-path="url(#clip1)"><g clip-path="url(#clip2)"><path d="M74.684 105.464C73.8882 105.825 72.7809 106.719 72.2228 107.45L71.2091 108.78 71.1101 134.126C71.0039 161.587 70.9868 161.304 72.8925 163.094 74.7155 164.807 73.745 164.769 112.439 164.641L148.747 164.521 148.747 134.89 148.747 105.258 124.953 105.025C84.1264 104.624 76.3854 104.692 74.684 105.464M228.835 105.055 210.989 105.149 210.989 134.836 210.989 164.522 247.472 164.641C286.353 164.769 285.372 164.807 287.195 163.094 289.101 161.304 289.084 161.587 288.978 134.126L288.879 108.78 287.892 107.485C285.574 104.448 292.181 104.72 228.835 105.055" fill="#A4A4F4" transform="matrix(1 0 -0 1.00002 481.456 123.983)"/><path d="M133.538 105.055 149.099 105.15 149.099 134.808 149.099 164.466 152.528 164.692C154.413 164.818 167.231 164.92 181.011 164.921L206.066 164.923 206.066 230.327 206.066 295.732 179.78 295.824 153.495 295.916 179.956 296.002 206.418 296.087 206.418 230.329 206.418 164.572 208.703 164.572 210.989 164.572 210.989 134.915 210.989 105.259 179.81 105.025C162.661 104.896 141.734 104.829 133.304 104.876L117.978 104.959 133.538 105.055" fill="#FCCC6C" transform="matrix(1 0 -0 1.00002 481.456 123.983)"/><path d="M123.428 64.5196C103.227 69.0324 95.8175 95.1973 112.373 103.56L114.461 104.615 145.758 104.833C230.727 105.426 247.53 105.225 250.89 103.581 267.929 95.245 259.415 67.7091 238.769 64.3747 229.756 62.919 228.145 63.6032 204.272 79.0383L192.808 86.4498 190.911 85.5109C189.051 84.5891 188.882 84.5711 182.133 84.5711L175.253 84.5711 173.129 85.6838 171.006 86.7964 167.876 84.7592C160.869 80.1978 154.401 76.0091 151.912 74.4211 150.462 73.4966 147.85 71.806 146.11 70.6654 136.834 64.5862 130.642 62.9091 123.428 64.5196M139.756 77.6763C142.518 78.6467 159.269 89.4692 160.194 90.8798 161.45 92.7955 160.625 95.8283 158.558 96.8969 157.117 97.6423 125.978 97.6549 124.554 96.9104 121.35 95.2369 120.293 92.0591 121.468 87.6435 123.539 79.8656 132.339 75.0693 139.756 77.6763M231.788 77.5143C241.459 80.4499 245.97 93.1115 238.699 96.9104 237.236 97.6747 206.132 97.6405 204.648 96.8735 202.709 95.8706 201.876 92.5461 203.119 90.7718 203.673 89.9805 206.819 87.8551 219.076 79.989 223.47 77.1695 227.845 76.3179 231.788 77.5143M153.67 230.329 153.67 295.736 179.868 295.736 206.066 295.736 206.066 230.329 206.066 164.923 179.868 164.923 153.67 164.923 153.67 230.329" fill="#F6C04E" transform="matrix(1 0 -0 1.00002 481.456 123.983)"/><path d="M148.833 134.767 148.747 164.568 115.252 164.657 81.7579 164.747 81.6562 227.516C81.549 292.762 81.5301 291.868 83.0488 293.798 84.9285 296.188 83.0281 296.071 120.176 296.08L153.67 296.087 153.67 230.329 153.67 164.572 151.386 164.572 149.102 164.572 149.011 134.769 148.919 104.967 148.833 134.767M206.418 230.328 206.418 296.087 239.912 296.08C277.06 296.071 275.159 296.188 277.039 293.798 278.557 291.868 278.539 292.762 278.431 227.516L278.33 164.747 242.373 164.657 206.418 164.568 206.418 230.328" fill="#9494EC" transform="matrix(1 0 -0 1.00002 481.456 123.983)"/></g></g></g></svg>