<svg width="265" height="265" xmlns="http://www.w3.org/2000/svg" xmlns:xlink="http://www.w3.org/1999/xlink" overflow="hidden"><defs><clipPath id="clip0"><path d="M529 175 794 175 794 440 529 440Z" fill-rule="evenodd" clip-rule="evenodd"/></clipPath><clipPath id="clip1"><path d="M530 176 793 176 793 439 530 439Z" fill-rule="evenodd" clip-rule="evenodd"/></clipPath><clipPath id="clip2"><path d="M530 176 793 176 793 439 530 439Z" fill-rule="evenodd" clip-rule="evenodd"/></clipPath></defs><g clip-path="url(#clip0)" transform="translate(-529 -175)"><g clip-path="url(#clip1)"><g clip-path="url(#clip2)"><path d="M74.6817 105.461C73.8859 105.822 72.7787 106.716 72.2206 107.447L71.207 108.776 71.1079 134.122C71.0017 161.582 70.9846 161.299 72.8903 163.09 74.7132 164.802 73.7428 164.764 112.436 164.636L148.742 164.516 148.742 134.886 148.742 105.255 124.949 105.022C84.1238 104.621 76.3831 104.689 74.6817 105.461M228.828 105.051 210.982 105.146 210.982 134.832 210.982 164.517 247.464 164.636C286.345 164.764 285.363 164.802 287.186 163.09 289.092 161.299 289.075 161.582 288.969 134.122L288.87 108.776 287.883 107.482C285.565 104.445 292.172 104.717 228.828 105.051" fill="#F49C74" transform="matrix(1 0 -0 1.00005 481.462 125.051)"/><path d="M133.534 105.051 149.094 105.147 149.094 134.804 149.094 164.461 152.523 164.687C154.408 164.812 167.226 164.915 181.005 164.916L206.059 164.918 206.059 230.32 206.059 295.723 179.775 295.815 153.49 295.907 179.95 295.993 206.411 296.078 206.411 230.322 206.411 164.567 208.697 164.567 210.982 164.567 210.982 134.911 210.982 105.256 179.804 105.022C162.657 104.893 141.73 104.826 133.3 104.872L117.975 104.956 133.534 105.051" fill="#EB3C54" transform="matrix(1 0 -0 1.00005 481.462 125.051)"/><path d="M123.424 64.5176C103.224 69.0303 95.8146 95.1944 112.37 103.557L114.458 104.612 145.754 104.83C230.72 105.422 247.522 105.222 250.883 103.578 267.92 95.2421 259.407 67.707 238.761 64.3727 229.749 62.9171 228.138 63.6012 204.266 79.0359L192.802 86.4472 190.905 85.5083C189.045 84.5865 188.876 84.5685 182.128 84.5685L175.248 84.5685 173.124 85.6811 171 86.7938 167.871 84.7566C160.864 80.1954 154.396 76.0068 151.907 74.4188 150.457 73.4943 147.846 71.8038 146.106 70.6632 136.83 64.5843 130.638 62.9072 123.424 64.5176M139.752 77.6739C142.514 78.6443 159.265 89.4665 160.189 90.8771 161.445 92.7927 160.62 95.8254 158.553 96.8939 157.112 97.6393 125.975 97.6519 124.551 96.9074 121.347 95.234 120.289 92.0563 121.465 87.6409 123.535 79.8632 132.334 75.067 139.752 77.6739M231.781 77.5119C241.451 80.4474 245.963 93.1086 238.691 96.9074 237.228 97.6717 206.126 97.6375 204.641 96.8705 202.702 95.8677 201.87 92.5433 203.113 90.769 203.667 89.9778 206.813 87.8524 219.07 79.9865 223.464 77.1671 227.839 76.3156 231.781 77.5119M153.665 230.322 153.665 295.727 179.863 295.727 206.059 295.727 206.059 230.322 206.059 164.918 179.863 164.918 153.665 164.918 153.665 230.322" fill="#DC3444" transform="matrix(1 0 -0 1.00005 481.462 125.051)"/><path d="M148.829 134.763 148.742 164.563 115.249 164.652 81.7554 164.742 81.6537 227.509C81.5466 292.753 81.5277 291.859 83.0463 293.789 84.9259 296.179 83.0256 296.062 120.172 296.071L153.665 296.078 153.665 230.322 153.665 164.567 151.382 164.567 149.098 164.567 149.006 134.765 148.914 104.964 148.829 134.763M206.411 230.321 206.411 296.078 239.905 296.071C277.051 296.062 275.151 296.179 277.03 293.789 278.549 291.859 278.53 292.753 278.423 227.509L278.321 164.742 242.366 164.652 206.411 164.563 206.411 230.321" fill="#EC845C" transform="matrix(1 0 -0 1.00005 481.462 125.051)"/></g></g></g></svg>